<svg width="20" height="20" viewBox="0 0 20 20" fill="none" xmlns="http://www.w3.org/2000/svg">
<path d="M17.5 7.81242C17.5 7.97818 17.4342 8.13716 17.317 8.25439C17.1998 8.37161 17.0408 8.43748 16.8751 8.4375C16.7093 8.43752 16.5503 8.37169 16.4331 8.2545C16.3159 8.1373 16.25 7.97834 16.25 7.81258L16.2496 4.63432L11.6897 9.19419C11.5725 9.31139 11.4135 9.37724 11.2477 9.37723C11.082 9.37722 10.923 9.31137 10.8058 9.19415C10.6886 9.07693 10.6227 8.91795 10.6227 8.75219C10.6227 8.58642 10.6886 8.42745 10.8058 8.31024L15.3657 3.75042L12.1874 3.75C12.0217 3.74999 11.8627 3.68413 11.7455 3.56691C11.6283 3.4497 11.5625 3.29072 11.5625 3.12496C11.5625 2.9592 11.6283 2.80023 11.7455 2.68303C11.8628 2.56583 12.0217 2.49999 12.1875 2.5H12.1876L16.8745 2.50061C17.0402 2.50063 17.1991 2.56648 17.3163 2.68367C17.4335 2.80086 17.4994 2.9598 17.4994 3.12553L17.5 7.81242ZM14.375 10.625C14.2092 10.625 14.0503 10.6909 13.9331 10.8081C13.8159 10.9253 13.75 11.0842 13.75 11.25V16.25H3.75V6.25H8.75C8.91576 6.25 9.07473 6.18415 9.19194 6.06694C9.30915 5.94973 9.375 5.79076 9.375 5.625C9.375 5.45924 9.30915 5.30027 9.19194 5.18306C9.07473 5.06585 8.91576 5 8.75 5H3.75C3.4186 5.00038 3.10087 5.1322 2.86654 5.36654C2.6322 5.60087 2.50038 5.9186 2.5 6.25V16.25C2.50038 16.5814 2.6322 16.8991 2.86654 17.1335C3.10087 17.3678 3.4186 17.4996 3.75 17.5H13.75C14.0814 17.4996 14.3991 17.3678 14.6335 17.1335C14.8678 16.8991 14.9996 16.5814 15 16.25V11.25C15 11.0842 14.9341 10.9253 14.8169 10.8081C14.6997 10.6909 14.5408 10.625 14.375 10.625V10.625Z" fill="white"/>
</svg>
