<svg width="1000" height="276" viewBox="0 0 1000 276" fill="none" xmlns="http://www.w3.org/2000/svg">
<g clip-path="url(#clip0_1_42)">
<path d="M241.724 0.229736V212.597L268.999 212.701V111.618H334.895V84.8643H268.999V26.9838H354.778V0.229736H241.724ZM404.019 43.3278C413.908 43.3278 421.82 35.312 421.82 25.5264C421.82 15.7409 413.804 7.72505 404.019 7.72505C394.129 7.72505 386.217 15.7409 386.217 25.5264C386.217 35.312 394.233 43.3278 404.019 43.3278ZM390.173 70.0819V212.597H417.448V70.0819H390.173Z" fill="black"/>
<path fill-rule="evenodd" clip-rule="evenodd" d="M518.738 65.9177C482.407 65.9177 457.11 96.6277 457.11 133.063C457.11 169.499 482.407 200.209 518.738 200.209C535.395 200.209 549.032 193.754 559.026 183.344V202.187C559.026 225.818 540.496 245.493 516.24 245.493C507.496 245.493 498.855 242.162 491.984 237.373L478.243 261.108C489.174 268.187 502.186 272.247 516.136 272.247C554.862 272.247 586.196 240.913 586.196 202.187V70.0818H559.026V82.7822C549.032 72.372 535.395 65.9177 518.738 65.9177V65.9177ZM484.489 133.063C484.489 110.473 501.77 92.6718 521.757 92.6718C541.745 92.6718 559.026 110.473 559.026 133.063C559.026 155.653 541.745 173.455 521.757 173.455C501.77 173.455 484.489 155.653 484.489 133.063V133.063Z" fill="black"/>
<path d="M684.78 92.6718C668.644 92.6718 655.528 106.413 655.528 122.549V212.597H628.253V70.0818H655.528V83.0945C663.543 72.7884 675.307 65.9177 690.714 65.9177C709.869 65.9177 724.547 75.391 733.083 89.9652C742.557 75.9115 757.964 65.9177 776.598 65.9177C807.724 65.9177 827.087 91.0062 827.191 122.028V212.597H799.917V122.445C799.917 106.309 786.8 92.5677 770.664 92.5677C754.528 92.5677 741.411 106.309 741.411 122.445V212.597H714.137V122.445C714.033 106.309 700.916 92.6718 684.78 92.6718V92.6718Z" fill="black"/>
<path fill-rule="evenodd" clip-rule="evenodd" d="M972.726 86.2175C960.546 73.6212 943.889 65.9177 924.631 65.9177C884.031 65.9177 855.091 100.375 855.091 141.391C855.091 182.407 883.927 216.865 924.631 216.865C943.889 216.865 960.546 209.057 972.726 196.565V212.597H1000V70.0818H972.726V86.2175ZM882.47 141.391C882.47 114.221 903.29 92.6718 927.65 92.6718C951.905 92.6718 972.83 114.117 972.83 141.391C972.83 168.562 952.009 190.111 927.65 190.111C903.29 190.007 882.47 168.562 882.47 141.391V141.391Z" fill="black"/>
<path d="M91.7134 137.852C91.7134 112.555 112.221 91.9434 137.622 91.9434C162.919 91.9434 183.531 112.451 183.531 137.852C183.531 163.149 163.023 183.761 137.622 183.761C112.325 183.761 91.7134 163.149 91.7134 137.852Z" fill="#1ABCFE"/>
<path d="M0 229.566C0 204.269 20.508 183.657 45.9088 183.657H91.8176V229.566C91.8176 254.862 71.3096 275.474 45.9088 275.474C20.508 275.474 0 254.966 0 229.566V229.566Z" fill="#0ACF83"/>
<path d="M91.7134 0.229834V91.9433H137.622C162.919 91.9433 183.531 71.4353 183.531 46.0345C183.531 20.7378 163.023 0.125732 137.622 0.125732H91.7134V0.229834Z" fill="#FF7262"/>
<path d="M0 46.1385C0 71.4352 20.508 92.0473 45.9088 92.0473H91.8176V0.229736H45.9088C20.508 0.229736 0 20.7377 0 46.1385Z" fill="#F24E1E"/>
<path d="M0 137.852C0 163.149 20.508 183.761 45.9088 183.761H91.8176V91.9434H45.9088C20.508 91.9434 0 112.555 0 137.852Z" fill="#A259FF"/>
</g>
<defs>
<clipPath id="clip0_1_42">
<rect width="1000" height="275.6" fill="white"/>
</clipPath>
</defs>
</svg>
