<svg width="36" height="37" viewBox="0 0 36 37" fill="none" xmlns="http://www.w3.org/2000/svg">
  <path
    d="M31.7047 18.8999H27.2047C26.608 18.8999 26.0357 19.137 25.6137 19.5589C25.1918 19.9809 24.9547 20.5532 24.9547 21.1499V26.7749C24.9547 27.3716 25.1918 27.9439 25.6137 28.3659C26.0357 28.7879 26.608 29.0249 27.2047 29.0249H29.4547C30.0515 29.0249 30.6238 28.7879 31.0457 28.3659C31.4677 27.9439 31.7047 27.3716 31.7047 26.7749V18.8999ZM31.7047 18.8999C31.7047 17.1185 31.3521 15.3546 30.6673 13.7101C29.9824 12.0655 28.9789 10.5727 27.7144 9.31785C26.45 8.06295 24.9496 7.07072 23.2999 6.39836C21.6502 5.72599 19.8838 5.38678 18.1024 5.40029C16.321 5.38678 14.5545 5.72599 12.9048 6.39836C11.2551 7.07072 9.75477 8.06295 8.49032 9.31785C7.22587 10.5727 6.2223 12.0655 5.53744 13.7101C4.85259 15.3546 4.5 17.1185 4.5 18.8999V26.7749C4.5 27.3716 4.73705 27.9439 5.15901 28.3659C5.58097 28.7879 6.15326 29.0249 6.75 29.0249H9C9.59674 29.0249 10.169 28.7879 10.591 28.3659C11.0129 27.9439 11.25 27.3716 11.25 26.7749V21.1499C11.25 20.5532 11.0129 19.9809 10.591 19.5589C10.169 19.137 9.59674 18.8999 9 18.8999H4.5"
    stroke="white" stroke-width="2" stroke-linecap="round" stroke-linejoin="round" />
  <path
    d="M31.7047 26.7749V30.1499C31.7047 31.3434 31.2306 32.488 30.3867 33.3319C29.5428 34.1758 28.3982 34.6499 27.2047 34.6499H19.125"
    stroke="white" stroke-width="2" stroke-linecap="round" stroke-linejoin="round" />
</svg>
