<svg width="1000" height="290" viewBox="0 0 1000 290" fill="none" xmlns="http://www.w3.org/2000/svg">
<g clip-path="url(#clip0_1_2)">
<path fill-rule="evenodd" clip-rule="evenodd" d="M381.006 66.608V196.989H428.517V219.477H355.71V66.608H381.006ZM517.813 131.466V117.716H541.784V219.477H517.807V205.716C514.585 210.813 510 214.818 504.057 217.727C498.125 220.636 492.148 222.091 486.136 222.091C478.364 222.091 471.25 220.67 464.801 217.835C458.523 215.121 452.87 211.144 448.193 206.153C443.57 201.198 439.916 195.42 437.42 189.119C434.828 182.588 433.52 175.618 433.568 168.591C433.568 161.46 434.852 154.653 437.42 148.17C439.9 141.831 443.555 136.016 448.193 131.034C452.87 126.042 458.523 122.064 464.801 119.347C471.25 116.506 478.364 115.085 486.136 115.085C492.148 115.085 498.125 116.545 504.063 119.46C510 122.369 514.585 126.375 517.813 131.466V131.466ZM515.608 181.04C517.084 177.058 517.83 172.843 517.813 168.597C517.813 164.222 517.074 160.074 515.608 156.142C514.231 152.36 512.142 148.877 509.455 145.881C506.765 142.934 503.511 140.558 499.886 138.892C496.142 137.148 492 136.273 487.455 136.273C482.909 136.273 478.801 137.148 475.136 138.892C471.472 140.642 468.318 142.972 465.682 145.881C463.001 148.862 460.945 152.352 459.636 156.142C458.229 160.141 457.522 164.352 457.545 168.591C457.545 172.96 458.239 177.114 459.636 181.034C460.943 184.827 462.999 188.318 465.682 191.301C468.343 194.23 471.556 196.605 475.136 198.29C478.801 200.04 482.909 200.909 487.455 200.909C492 200.909 496.148 200.04 499.886 198.295C503.512 196.631 506.766 194.255 509.455 191.307C512.143 188.309 514.232 184.824 515.608 181.04V181.04ZM560.699 219.472V117.71H625.807V141.131H584.67V219.472H560.699V219.472ZM712.688 131.466V117.716H736.659V219.477H712.682V205.716C709.455 210.813 704.875 214.818 698.932 217.727C693 220.636 687.023 222.091 681.011 222.091C673.233 222.091 666.125 220.67 659.676 217.835C653.398 215.121 647.745 211.144 643.068 206.153C638.445 201.198 634.791 195.42 632.295 189.119C629.703 182.588 628.395 175.618 628.443 168.591C628.443 161.46 629.722 154.653 632.295 148.17C634.775 141.831 638.43 136.016 643.068 131.034C647.745 126.042 653.398 122.064 659.676 119.347C666.125 116.506 673.233 115.085 681.011 115.085C687.023 115.085 693 116.545 698.938 119.46C704.875 122.369 709.455 126.375 712.688 131.466V131.466ZM710.483 181.04C711.957 177.058 712.702 172.843 712.682 168.597C712.682 164.222 711.943 160.074 710.483 156.142C709.104 152.36 707.013 148.876 704.324 145.881C701.634 142.934 698.381 140.558 694.756 138.892C691.017 137.148 686.875 136.273 682.33 136.273C677.784 136.273 673.676 137.148 670.011 138.892C666.347 140.642 663.193 142.972 660.557 145.881C657.874 148.862 655.816 152.351 654.506 156.142C653.098 160.141 652.391 164.352 652.415 168.591C652.415 172.96 653.108 177.114 654.506 181.034C655.814 184.827 657.872 188.319 660.557 191.301C663.218 194.23 666.431 196.605 670.011 198.29C673.676 200.04 677.784 200.909 682.33 200.909C686.875 200.909 691.023 200.04 694.756 198.295C698.382 196.631 701.636 194.255 704.324 191.307C707.015 188.31 709.105 184.824 710.483 181.04V181.04ZM832.773 117.71H857.057L817.705 219.472H787.58L748.227 117.71H772.511L802.642 195.636L832.773 117.71V117.71ZM909.341 115.097C941.989 115.097 964.25 143.818 960.068 177.438H880.534C880.534 186.216 889.46 203.188 910.659 203.188C928.898 203.188 941.114 187.261 941.125 187.25L957.318 199.693C942.841 215.045 930.983 222.097 912.415 222.097C879.233 222.097 856.75 201.256 856.75 168.597C856.75 139.051 879.989 115.097 909.341 115.097V115.097ZM880.597 159.75H938.051C937.875 157.79 934.761 134 909.153 134C883.546 134 880.784 157.79 880.597 159.75V159.75ZM975.682 219.472V66.608H999.659V219.472H975.682V219.472ZM282.75 65.4148C282.855 65.8 282.908 66.1974 282.909 66.5966V128.665C282.908 129.463 282.695 130.247 282.293 130.936C281.891 131.626 281.314 132.197 280.619 132.591L228.153 162.585V222.034C228.151 222.831 227.938 223.614 227.536 224.302C227.134 224.991 226.557 225.561 225.864 225.955L116.352 288.563C116.102 288.71 115.824 288.795 115.557 288.892C115.449 288.926 115.352 288.989 115.25 289.017C114.483 289.218 113.676 289.218 112.909 289.017C112.784 288.983 112.67 288.915 112.551 288.869C112.295 288.784 112.04 288.699 111.801 288.563L2.28409 225.966C1.59011 225.571 1.01319 224.999 0.611998 224.308C0.210806 223.617 -0.000350498 222.833 4.36719e-07 222.034V35.8295C0.000902377 35.4303 0.0543929 35.033 0.159091 34.6477C0.193182 34.5114 0.272728 34.392 0.318182 34.267C0.409091 34.0284 0.488637 33.7841 0.613637 33.5625C0.698864 33.4148 0.823864 33.2955 0.920455 33.1648C1.05682 32.983 1.17046 32.7898 1.32955 32.6307C1.46023 32.5 1.63068 32.4034 1.77841 32.2898C1.94318 32.1648 2.09091 32.017 2.27841 31.9091L2.28409 31.9034L57.0455 0.602273C57.7383 0.208807 58.5214 0.00195312 59.3182 0.00195313C60.115 0.00195312 60.8981 0.208807 61.5909 0.602273L116.352 31.9034H116.364C116.545 32.017 116.693 32.1648 116.864 32.2898C117.011 32.4034 117.176 32.5 117.307 32.6307C117.466 32.7898 117.58 32.983 117.716 33.1591C117.818 33.2955 117.943 33.4148 118.028 33.5625C118.153 33.7841 118.233 34.0284 118.324 34.267C118.369 34.392 118.443 34.5114 118.483 34.6477C118.586 35.0332 118.637 35.4306 118.636 35.8295V152.131L164.273 126.045V66.5966C164.272 66.1976 164.323 65.8003 164.426 65.4148C164.466 65.2784 164.54 65.1648 164.591 65.0341C164.676 64.7955 164.756 64.5511 164.881 64.3295C164.966 64.1818 165.091 64.0625 165.193 63.9318C165.33 63.75 165.443 63.5568 165.602 63.4034C165.733 63.2727 165.898 63.1761 166.045 63.0625C166.216 62.9318 166.364 62.7784 166.551 62.6761V62.6705L221.313 31.3693C222.006 30.9737 222.79 30.7657 223.588 30.7657C224.386 30.7657 225.17 30.9737 225.864 31.3693L280.619 62.6705H280.625C280.818 62.7841 280.966 62.9318 281.136 63.0568C281.278 63.1705 281.449 63.2727 281.58 63.3977C281.739 63.5568 281.852 63.75 281.983 63.9261C282.085 64.0625 282.21 64.1818 282.295 64.3295C282.426 64.5511 282.5 64.7955 282.591 65.0341C282.642 65.1648 282.716 65.2784 282.75 65.4148V65.4148ZM273.784 126.045V74.4318L254.619 85.3864L228.153 100.517V152.131L273.778 126.045H273.784ZM219.028 219.415V167.767L192.983 182.528L118.636 224.659V276.79L219.028 219.403V219.415ZM9.125 43.6648V219.415L109.511 276.801V224.676L57.0682 195.21L57.0568 195.193L57.0341 195.188C56.8523 195.085 56.7102 194.938 56.5455 194.813C56.3977 194.699 56.2386 194.608 56.108 194.483L56.0966 194.466C55.9489 194.324 55.8466 194.148 55.7216 193.989C55.608 193.841 55.4716 193.71 55.3807 193.551L55.375 193.534C55.2727 193.364 55.2102 193.159 55.1364 192.966C55.0625 192.801 54.9659 192.642 54.9205 192.46V192.455C54.858 192.239 54.8523 192.011 54.8239 191.79C54.8068 191.619 54.7557 191.455 54.7557 191.278V69.7443L28.2955 54.6193L9.125 43.6648ZM59.3182 9.75568L13.7102 35.8352L59.3182 61.9034L104.932 35.8295L59.3182 9.75568V9.75568ZM83.0455 172.472L109.511 157.347V43.6648L90.3523 54.6193L63.8807 69.75V183.426L83.0455 172.472V172.472ZM223.591 40.5284L177.977 66.5966L223.591 92.6705L269.199 66.5966L223.591 40.5284V40.5284ZM219.028 100.517L192.557 85.3864L173.398 74.4318V126.045L199.864 141.176L219.028 152.131V100.511V100.517ZM114.068 216.824L180.972 178.903L214.415 159.949L168.835 133.892L116.352 163.892L68.5227 191.233L114.068 216.824Z" fill="#FF2D20"/>
</g>
<defs>
<clipPath id="clip0_1_2">
<rect width="1000" height="289.773" fill="white"/>
</clipPath>
</defs>
</svg>
