<svg width="1000" height="226" viewBox="0 0 1000 226" fill="none" xmlns="http://www.w3.org/2000/svg">
<g clip-path="url(#clip0_1_34)">
<path d="M498.868 56.5931C459.819 56.5931 431.664 82.06 431.664 120.26C431.664 158.461 463.356 183.928 502.405 183.928C525.997 183.928 546.795 174.59 559.67 158.85L532.612 143.216C525.467 151.033 514.608 155.596 502.405 155.596C485.463 155.596 471.067 146.753 465.726 132.605H564.834C565.613 128.643 566.072 124.54 566.072 120.225C566.072 82.06 537.917 56.5931 498.868 56.5931V56.5931ZM465.407 107.881C469.829 93.7677 481.926 84.8896 498.833 84.8896C515.775 84.8896 527.872 93.7677 532.258 107.881H465.407ZM879.74 56.5931C840.69 56.5931 812.535 82.06 812.535 120.26C812.535 158.461 844.227 183.928 883.277 183.928C906.869 183.928 927.667 174.59 940.542 158.85L913.483 143.216C906.338 151.033 895.48 155.596 883.277 155.596C866.334 155.596 851.938 146.753 846.597 132.605H945.706C946.484 128.643 946.944 124.54 946.944 120.225C946.944 82.06 918.789 56.5931 879.74 56.5931V56.5931ZM846.314 107.881C850.736 93.7677 862.832 84.8896 879.74 84.8896C896.682 84.8896 908.779 93.7677 913.165 107.881H846.314ZM708.263 120.26C708.263 141.483 722.128 155.631 743.633 155.631C758.206 155.631 769.135 149.017 774.759 138.229L801.924 153.898C790.676 172.644 769.595 183.928 743.633 183.928C704.549 183.928 676.429 158.461 676.429 120.26C676.429 82.06 704.584 56.5931 743.633 56.5931C769.595 56.5931 790.641 67.8763 801.924 86.6228L774.759 102.292C769.135 91.504 758.206 84.8896 743.633 84.8896C722.163 84.8896 708.263 99.0379 708.263 120.26ZM1000 17.6853V180.39H968.166V17.6853H1000ZM130.695 0L261.389 226.372H0L130.695 0ZM457.449 17.6853L359.437 187.465L261.425 17.6853H298.175L359.437 123.797L420.699 17.6853H457.449ZM665.818 60.1302V94.4044C662.281 93.3786 658.531 92.6712 654.499 92.6712C633.949 92.6712 619.128 106.819 619.128 128.042V180.39H587.295V60.1302H619.128V92.6712C619.128 74.7029 640.033 60.1302 665.818 60.1302Z" fill="black"/>
</g>
<defs>
<clipPath id="clip0_1_34">
<rect width="1000" height="226" fill="white"/>
</clipPath>
</defs>
</svg>
