<svg width="1320" height="40" viewBox="0 0 1320 40" fill="none" xmlns="http://www.w3.org/2000/svg">
<path d="M74.8969 0H5.10311C2.28444 0 0 1.77658 0 3.96862V8.20683V9.58938V30.4106V31.7932V36.0314C0 38.2234 2.28444 40 5.10311 40H74.8969C77.7156 40 80 38.2234 80 36.0314V31.7932V30.4106V9.58938V8.20683V3.96862C80 1.77658 77.7156 0 74.8969 0Z" fill="#635BFF"/>
<path d="M71.8665 20.7283C71.8665 16.1864 69.6663 12.6035 65.4618 12.6035C61.2392 12.6035 58.6846 16.1875 58.6846 20.6932C58.6846 26.0335 61.7001 28.7297 66.0291 28.7297C68.1399 28.7297 69.7366 28.2507 70.9436 27.5769V24.0291C69.7376 24.6305 68.3539 25.0031 66.5976 25.0031C64.8764 25.0031 63.351 24.3996 63.1562 22.3069H71.8314C71.8314 22.0759 71.8665 21.1541 71.8665 20.7283ZM63.103 19.0423C63.103 17.0379 64.3271 16.2034 65.4448 16.2034C66.5273 16.2034 67.6801 17.0369 67.6801 19.0423H63.103Z" fill="#F9F9F9"/>
<path d="M51.8372 12.6025C50.099 12.6025 48.9814 13.419 48.3598 13.9863L48.1298 12.8867H44.2266V33.5718L48.6621 32.632L48.6801 27.611C49.3188 28.0719 50.2587 28.7287 51.8202 28.7287C54.9954 28.7287 57.8875 26.174 57.8875 20.5507C57.8694 15.4063 54.9422 12.6025 51.8372 12.6025ZM50.7728 24.8265C49.7265 24.8265 49.1049 24.4539 48.6791 23.993L48.6621 17.4106C49.1229 16.8965 49.7616 16.5409 50.7728 16.5409C52.3876 16.5409 53.5052 18.3505 53.5052 20.6741C53.5052 23.0521 52.4057 24.8265 50.7728 24.8265Z" fill="#F9F9F9"/>
<path d="M38.123 11.5558L42.5724 10.5978V7L38.123 7.9367V11.5558Z" fill="#F9F9F9"/>
<path d="M42.5724 12.9077H38.123V28.4271H42.5724V12.9077Z" fill="#F9F9F9"/>
<path d="M33.3525 14.2166L33.0683 12.9042H29.2363V28.4268H33.6718V17.907C34.7182 16.5414 36.4926 16.7894 37.0429 16.9842V12.9042C36.4745 12.6913 34.3988 12.3007 33.3525 14.2166Z" fill="#F9F9F9"/>
<path d="M24.4799 9.0542L20.1508 9.97706L20.1338 24.1872C20.1338 26.8132 22.103 28.7462 24.7289 28.7462C26.184 28.7462 27.2485 28.4801 27.8339 28.1608V24.5598C27.2655 24.7897 24.4628 25.6061 24.4628 22.9802V16.6819H27.8339V12.9032H24.4628L24.4799 9.0542Z" fill="#F9F9F9"/>
<path d="M12.4887 17.4106C12.4887 16.7187 13.0561 16.4526 13.997 16.4526C15.3456 16.4526 17.0487 16.8603 18.3963 17.5883V13.419C16.9242 12.8335 15.4691 12.6025 13.997 12.6025C10.395 12.6025 8 14.4834 8 17.6235C8 22.5199 14.741 21.7396 14.741 23.8504C14.741 24.6668 14.0311 24.9329 13.038 24.9329C11.5658 24.9329 9.68499 24.3294 8.19479 23.514V27.7356C9.84466 28.4455 11.5126 28.7468 13.038 28.7468C16.7283 28.7468 19.2649 26.9191 19.2649 23.7439C19.2478 18.4569 12.4887 19.3979 12.4887 17.4106Z" fill="#F9F9F9"/>
<path d="M104 11L111.812 14.4721C112.535 14.7931 113 15.5071 113 16.2975C113 17.0342 113 18.1892 113 20C113 25 104 29 104 29" stroke="#9CA3AF" stroke-width="2" stroke-linecap="round" stroke-linejoin="round"/>
<path d="M104 11L96.1877 14.4721C95.4655 14.7931 95 15.5071 95 16.2975C95 17.0342 95 18.1892 95 20C95 25 104 29 104 29" stroke="#9CA3AF" stroke-width="2" stroke-linecap="round" stroke-linejoin="round"/>
<path d="M101 19.2778L103.143 21.5L107 17.5" stroke="#9CA3AF" stroke-width="2" stroke-linecap="round" stroke-linejoin="round"/>
<path d="M129.472 17.5625C129.419 17.0663 129.195 16.6799 128.801 16.4034C128.411 16.1269 127.903 15.9886 127.278 15.9886C126.839 15.9886 126.462 16.0549 126.148 16.1875C125.833 16.3201 125.593 16.5 125.426 16.7273C125.259 16.9545 125.174 17.214 125.17 17.5057C125.17 17.7481 125.225 17.9583 125.335 18.1364C125.449 18.3144 125.602 18.4659 125.795 18.5909C125.989 18.7121 126.203 18.8144 126.438 18.8977C126.672 18.9811 126.909 19.0511 127.148 19.108L128.239 19.3807C128.678 19.483 129.1 19.6212 129.506 19.7955C129.915 19.9697 130.28 20.1894 130.602 20.4545C130.928 20.7197 131.186 21.0398 131.375 21.4148C131.564 21.7898 131.659 22.2292 131.659 22.733C131.659 23.4148 131.485 24.0152 131.136 24.5341C130.788 25.0492 130.284 25.4527 129.625 25.7443C128.97 26.0322 128.176 26.1761 127.244 26.1761C126.339 26.1761 125.553 26.036 124.886 25.7557C124.223 25.4754 123.705 25.0663 123.33 24.5284C122.958 23.9905 122.758 23.3352 122.727 22.5625H124.801C124.831 22.9678 124.956 23.3049 125.176 23.5739C125.396 23.8428 125.682 24.0436 126.034 24.1761C126.39 24.3087 126.788 24.375 127.227 24.375C127.686 24.375 128.087 24.3068 128.432 24.1705C128.78 24.0303 129.053 23.8371 129.25 23.5909C129.447 23.3409 129.547 23.0492 129.551 22.7159C129.547 22.4129 129.458 22.1629 129.284 21.9659C129.11 21.7652 128.866 21.5985 128.551 21.4659C128.241 21.3295 127.877 21.2083 127.46 21.1023L126.136 20.7614C125.178 20.5152 124.42 20.142 123.864 19.642C123.311 19.1383 123.034 18.4697 123.034 17.6364C123.034 16.9508 123.22 16.3504 123.591 15.8352C123.966 15.3201 124.475 14.9205 125.119 14.6364C125.763 14.3485 126.492 14.2045 127.307 14.2045C128.133 14.2045 128.856 14.3485 129.477 14.6364C130.102 14.9205 130.593 15.3163 130.949 15.8239C131.305 16.3277 131.489 16.9072 131.5 17.5625H129.472ZM137.119 26.1705C136.244 26.1705 135.488 25.9886 134.852 25.625C134.219 25.2576 133.733 24.7386 133.392 24.0682C133.051 23.3939 132.88 22.6004 132.88 21.6875C132.88 20.7898 133.051 20.0019 133.392 19.3239C133.737 18.642 134.218 18.1117 134.835 17.733C135.452 17.3504 136.178 17.1591 137.011 17.1591C137.549 17.1591 138.057 17.2462 138.534 17.4205C139.015 17.5909 139.439 17.8561 139.807 18.2159C140.178 18.5758 140.469 19.0341 140.682 19.5909C140.894 20.1439 141 20.803 141 21.5682V22.1989H133.846V20.8125H139.028C139.024 20.4186 138.939 20.0682 138.772 19.7614C138.606 19.4508 138.373 19.2064 138.074 19.0284C137.778 18.8504 137.433 18.7614 137.04 18.7614C136.619 18.7614 136.25 18.8636 135.932 19.0682C135.613 19.2689 135.365 19.5341 135.187 19.8636C135.013 20.1894 134.924 20.5473 134.92 20.9375V22.1477C134.92 22.6553 135.013 23.0909 135.199 23.4545C135.384 23.8144 135.644 24.0909 135.977 24.2841C136.31 24.4735 136.701 24.5682 137.147 24.5682C137.447 24.5682 137.718 24.5265 137.96 24.4432C138.202 24.3561 138.413 24.2292 138.591 24.0625C138.769 23.8958 138.903 23.6894 138.994 23.4432L140.915 23.6591C140.793 24.1667 140.562 24.6098 140.221 24.9886C139.884 25.3636 139.452 25.6553 138.926 25.8636C138.399 26.0682 137.797 26.1705 137.119 26.1705ZM146.355 26.1705C145.483 26.1705 144.735 25.9792 144.11 25.5966C143.489 25.214 143.01 24.6856 142.673 24.0114C142.339 23.3333 142.173 22.553 142.173 21.6705C142.173 20.7841 142.343 20.0019 142.684 19.3239C143.025 18.642 143.506 18.1117 144.127 17.733C144.752 17.3504 145.491 17.1591 146.343 17.1591C147.052 17.1591 147.678 17.2898 148.224 17.5511C148.773 17.8087 149.211 18.1742 149.536 18.6477C149.862 19.1174 150.048 19.6667 150.093 20.2955H148.127C148.048 19.875 147.858 19.5246 147.559 19.2443C147.264 18.9602 146.868 18.8182 146.372 18.8182C145.951 18.8182 145.582 18.9318 145.264 19.1591C144.946 19.3826 144.697 19.7045 144.519 20.125C144.345 20.5455 144.258 21.0492 144.258 21.6364C144.258 22.2311 144.345 22.7424 144.519 23.1705C144.694 23.5947 144.938 23.9223 145.252 24.1534C145.571 24.3807 145.944 24.4943 146.372 24.4943C146.675 24.4943 146.946 24.4375 147.184 24.3239C147.427 24.2064 147.629 24.0379 147.792 23.8182C147.955 23.5985 148.067 23.3314 148.127 23.017H150.093C150.044 23.6345 149.862 24.1818 149.548 24.6591C149.233 25.1326 148.805 25.5038 148.264 25.7727C147.722 26.0379 147.086 26.1705 146.355 26.1705ZM157.153 22.3295V17.2727H159.21V26H157.215V24.4489H157.124C156.927 24.9375 156.603 25.3371 156.153 25.6477C155.706 25.9583 155.155 26.1136 154.499 26.1136C153.927 26.1136 153.422 25.9867 152.982 25.733C152.547 25.4754 152.206 25.1023 151.96 24.6136C151.713 24.1212 151.59 23.5265 151.59 22.8295V17.2727H153.647V22.5114C153.647 23.0644 153.799 23.5038 154.102 23.8295C154.405 24.1553 154.802 24.3182 155.295 24.3182C155.598 24.3182 155.891 24.2443 156.175 24.0966C156.46 23.9489 156.692 23.7292 156.874 23.4375C157.06 23.142 157.153 22.7727 157.153 22.3295ZM161.133 26V17.2727H163.127V18.7273H163.218C163.377 18.2235 163.65 17.8352 164.036 17.5625C164.426 17.286 164.871 17.1477 165.371 17.1477C165.485 17.1477 165.612 17.1534 165.752 17.1648C165.896 17.1723 166.015 17.1856 166.11 17.2045V19.0966C166.023 19.0663 165.884 19.0398 165.695 19.017C165.509 18.9905 165.33 18.9773 165.155 18.9773C164.78 18.9773 164.443 19.0587 164.144 19.2216C163.848 19.3807 163.616 19.6023 163.445 19.8864C163.275 20.1705 163.189 20.4981 163.189 20.8693V26H161.133ZM170.789 26.1705C169.914 26.1705 169.158 25.9886 168.522 25.625C167.889 25.2576 167.402 24.7386 167.061 24.0682C166.72 23.3939 166.55 22.6004 166.55 21.6875C166.55 20.7898 166.72 20.0019 167.061 19.3239C167.406 18.642 167.887 18.1117 168.504 17.733C169.122 17.3504 169.847 17.1591 170.681 17.1591C171.219 17.1591 171.726 17.2462 172.203 17.4205C172.684 17.5909 173.109 17.8561 173.476 18.2159C173.847 18.5758 174.139 19.0341 174.351 19.5909C174.563 20.1439 174.669 20.803 174.669 21.5682V22.1989H167.516V20.8125H172.698C172.694 20.4186 172.609 20.0682 172.442 19.7614C172.275 19.4508 172.042 19.2064 171.743 19.0284C171.448 18.8504 171.103 18.7614 170.709 18.7614C170.289 18.7614 169.919 18.8636 169.601 19.0682C169.283 19.2689 169.035 19.5341 168.857 19.8636C168.683 20.1894 168.594 20.5473 168.59 20.9375V22.1477C168.59 22.6553 168.683 23.0909 168.868 23.4545C169.054 23.8144 169.313 24.0909 169.647 24.2841C169.98 24.4735 170.37 24.5682 170.817 24.5682C171.116 24.5682 171.387 24.5265 171.629 24.4432C171.872 24.3561 172.082 24.2292 172.26 24.0625C172.438 23.8958 172.573 23.6894 172.664 23.4432L174.584 23.6591C174.463 24.1667 174.232 24.6098 173.891 24.9886C173.554 25.3636 173.122 25.6553 172.595 25.8636C172.069 26.0682 171.467 26.1705 170.789 26.1705ZM180.085 26V14.3636H184.449C185.343 14.3636 186.093 14.5303 186.699 14.8636C187.308 15.197 187.769 15.6553 188.079 16.2386C188.394 16.8182 188.551 17.4773 188.551 18.2159C188.551 18.9621 188.394 19.625 188.079 20.2045C187.765 20.7841 187.301 21.2405 186.687 21.5739C186.074 21.9034 185.318 22.0682 184.42 22.0682H181.528V20.3352H184.136C184.659 20.3352 185.087 20.2443 185.42 20.0625C185.754 19.8807 186 19.6307 186.159 19.3125C186.322 18.9943 186.403 18.6288 186.403 18.2159C186.403 17.803 186.322 17.4394 186.159 17.125C186 16.8106 185.752 16.5663 185.415 16.392C185.081 16.214 184.651 16.125 184.125 16.125H182.193V26H180.085ZM192.454 26.1761C191.901 26.1761 191.403 26.0777 190.96 25.8807C190.52 25.6799 190.172 25.3845 189.914 24.9943C189.66 24.6042 189.534 24.1231 189.534 23.5511C189.534 23.0587 189.625 22.6515 189.806 22.3295C189.988 22.0076 190.236 21.75 190.551 21.5568C190.865 21.3636 191.219 21.2178 191.613 21.1193C192.011 21.017 192.422 20.9432 192.846 20.8977C193.357 20.8447 193.772 20.7973 194.09 20.7557C194.409 20.7102 194.64 20.642 194.784 20.5511C194.931 20.4564 195.005 20.3106 195.005 20.1136V20.0795C195.005 19.6515 194.878 19.3201 194.625 19.0852C194.371 18.8504 194.005 18.733 193.528 18.733C193.024 18.733 192.625 18.8428 192.329 19.0625C192.037 19.2822 191.84 19.5417 191.738 19.8409L189.818 19.5682C189.969 19.0379 190.219 18.5947 190.568 18.2386C190.916 17.8788 191.342 17.6098 191.846 17.4318C192.35 17.25 192.907 17.1591 193.517 17.1591C193.937 17.1591 194.356 17.2083 194.772 17.3068C195.189 17.4053 195.57 17.5682 195.914 17.7955C196.259 18.0189 196.535 18.3239 196.744 18.7102C196.956 19.0966 197.062 19.5795 197.062 20.1591V26H195.085V24.8011H195.017C194.892 25.0436 194.715 25.2708 194.488 25.483C194.265 25.6913 193.982 25.8598 193.642 25.9886C193.304 26.1136 192.909 26.1761 192.454 26.1761ZM192.988 24.6648C193.401 24.6648 193.759 24.5833 194.062 24.4205C194.365 24.2538 194.598 24.0341 194.761 23.7614C194.928 23.4886 195.011 23.1913 195.011 22.8693V21.8409C194.946 21.8939 194.837 21.9432 194.681 21.9886C194.53 22.0341 194.359 22.0739 194.17 22.108C193.981 22.142 193.793 22.1723 193.607 22.1989C193.422 22.2254 193.261 22.2481 193.125 22.267C192.818 22.3087 192.543 22.3769 192.301 22.4716C192.058 22.5663 191.867 22.6989 191.727 22.8693C191.587 23.036 191.517 23.2519 191.517 23.517C191.517 23.8958 191.655 24.1818 191.931 24.375C192.208 24.5682 192.56 24.6648 192.988 24.6648ZM199.904 29.2727C199.624 29.2727 199.364 29.25 199.126 29.2045C198.891 29.1629 198.703 29.1136 198.563 29.0568L199.04 27.4545C199.34 27.5417 199.607 27.5833 199.842 27.5795C200.076 27.5758 200.283 27.5019 200.461 27.358C200.643 27.2178 200.796 26.983 200.921 26.6534L201.097 26.1818L197.933 17.2727H200.114L202.126 23.8636H202.217L204.234 17.2727H206.421L202.927 27.0568C202.764 27.5189 202.548 27.9148 202.279 28.2443C202.01 28.5777 201.681 28.8314 201.29 29.0057C200.904 29.1837 200.442 29.2727 199.904 29.2727ZM207.652 26V17.2727H209.618V18.7557H209.721C209.902 18.2557 210.204 17.8655 210.624 17.5852C211.044 17.3011 211.546 17.1591 212.13 17.1591C212.721 17.1591 213.219 17.303 213.624 17.5909C214.033 17.875 214.321 18.2633 214.488 18.7557H214.579C214.772 18.2708 215.098 17.8845 215.556 17.5966C216.018 17.3049 216.565 17.1591 217.198 17.1591C218.001 17.1591 218.656 17.4129 219.164 17.9205C219.671 18.428 219.925 19.1686 219.925 20.142V26H217.863V20.4602C217.863 19.9186 217.719 19.5227 217.431 19.2727C217.143 19.0189 216.791 18.892 216.374 18.892C215.878 18.892 215.49 19.0473 215.209 19.358C214.933 19.6648 214.794 20.0644 214.794 20.5568V26H212.777V20.375C212.777 19.9242 212.641 19.5644 212.368 19.2955C212.099 19.0265 211.747 18.892 211.312 18.892C211.016 18.892 210.747 18.9678 210.505 19.1193C210.262 19.267 210.069 19.4773 209.925 19.75C209.781 20.0189 209.709 20.3333 209.709 20.6932V26H207.652ZM225.683 26.1705C224.808 26.1705 224.053 25.9886 223.416 25.625C222.784 25.2576 222.297 24.7386 221.956 24.0682C221.615 23.3939 221.445 22.6004 221.445 21.6875C221.445 20.7898 221.615 20.0019 221.956 19.3239C222.301 18.642 222.782 18.1117 223.399 17.733C224.017 17.3504 224.742 17.1591 225.576 17.1591C226.113 17.1591 226.621 17.2462 227.098 17.4205C227.579 17.5909 228.004 17.8561 228.371 18.2159C228.742 18.5758 229.034 19.0341 229.246 19.5909C229.458 20.1439 229.564 20.803 229.564 21.5682V22.1989H222.411V20.8125H227.593C227.589 20.4186 227.504 20.0682 227.337 19.7614C227.17 19.4508 226.937 19.2064 226.638 19.0284C226.343 18.8504 225.998 18.7614 225.604 18.7614C225.183 18.7614 224.814 18.8636 224.496 19.0682C224.178 19.2689 223.93 19.5341 223.752 19.8636C223.577 20.1894 223.488 20.5473 223.485 20.9375V22.1477C223.485 22.6553 223.577 23.0909 223.763 23.4545C223.949 23.8144 224.208 24.0909 224.541 24.2841C224.875 24.4735 225.265 24.5682 225.712 24.5682C226.011 24.5682 226.282 24.5265 226.524 24.4432C226.767 24.3561 226.977 24.2292 227.155 24.0625C227.333 23.8958 227.468 23.6894 227.558 23.4432L229.479 23.6591C229.358 24.1667 229.127 24.6098 228.786 24.9886C228.449 25.3636 228.017 25.6553 227.49 25.8636C226.964 26.0682 226.361 26.1705 225.683 26.1705ZM233.169 20.8864V26H231.112V17.2727H233.078V18.7557H233.18C233.381 18.267 233.701 17.8788 234.141 17.5909C234.584 17.303 235.131 17.1591 235.783 17.1591C236.385 17.1591 236.91 17.2879 237.357 17.5455C237.807 17.803 238.156 18.1761 238.402 18.6648C238.652 19.1534 238.775 19.7462 238.771 20.4432V26H236.714V20.7614C236.714 20.178 236.563 19.7216 236.26 19.392C235.961 19.0625 235.546 18.8977 235.016 18.8977C234.656 18.8977 234.336 18.9773 234.055 19.1364C233.779 19.2917 233.561 19.517 233.402 19.8125C233.247 20.108 233.169 20.4659 233.169 20.8864ZM245.028 17.2727V18.8636H240.011V17.2727H245.028ZM241.25 15.1818H243.307V23.375C243.307 23.6515 243.348 23.8636 243.432 24.0114C243.519 24.1553 243.632 24.2538 243.772 24.3068C243.913 24.3598 244.068 24.3864 244.238 24.3864C244.367 24.3864 244.485 24.3769 244.591 24.358C244.7 24.339 244.784 24.322 244.841 24.3068L245.187 25.9148C245.077 25.9527 244.92 25.9943 244.716 26.0398C244.515 26.0852 244.269 26.1117 243.977 26.1193C243.462 26.1345 242.998 26.0568 242.585 25.8864C242.172 25.7121 241.844 25.4432 241.602 25.0795C241.363 24.7159 241.246 24.2614 241.25 23.7159V15.1818Z" fill="#9CA3AF"/>
<line x1="258.5" y1="2.18557e-08" x2="258.5" y2="40" stroke="#374151"/>
<g clip-path="url(#clip0_2402_1574)">
<path d="M296.053 13.52C293.213 13.52 290.675 14.9921 290.675 17.712C290.675 20.8311 295.177 21.0465 295.177 22.6135C295.177 23.2733 294.42 23.8639 293.129 23.8639C291.296 23.8639 289.927 23.0386 289.927 23.0386L289.34 25.7832C289.34 25.7832 290.918 26.4803 293.013 26.4803C296.119 26.4803 298.562 24.9359 298.562 22.1696C298.562 18.8737 294.042 18.6646 294.042 17.2103C294.042 16.6934 294.663 16.1271 295.95 16.1271C297.403 16.1271 298.589 16.7273 298.589 16.7273L299.162 14.0765C299.162 14.0765 297.872 13.52 296.053 13.52ZM270.069 13.7201L270 14.1202C270 14.1202 271.195 14.3389 272.271 14.7751C273.657 15.2753 273.755 15.5665 273.989 16.4709L276.532 26.274H279.941L285.192 13.7201H281.791L278.417 22.2556L277.04 15.0205C276.913 14.1925 276.274 13.7201 275.491 13.7201H270.069ZM286.56 13.7201L283.892 26.274H287.135L289.794 13.7201H286.56V13.7201ZM304.648 13.7201C303.866 13.7201 303.452 14.1388 303.148 14.8704L298.396 26.274H301.797L302.455 24.3734H306.599L306.999 26.274H310L307.382 13.7201H304.648ZM305.091 17.1118L306.099 21.8226H303.398L305.091 17.1118Z" fill="#9CA3AF"/>
</g>
<g clip-path="url(#clip1_2402_1574)">
<path d="M347.161 29.7136V29.7649H347.209C347.218 29.765 347.227 29.7628 347.235 29.7583C347.238 29.7561 347.24 29.7532 347.242 29.7498C347.244 29.7463 347.244 29.7425 347.244 29.7387C347.244 29.735 347.244 29.7312 347.242 29.7279C347.24 29.7245 347.238 29.7217 347.235 29.7196C347.227 29.7149 347.218 29.7127 347.209 29.713H347.161V29.7136ZM347.209 29.6772C347.23 29.676 347.25 29.6819 347.267 29.6939C347.274 29.6994 347.279 29.7064 347.282 29.7142C347.286 29.7221 347.287 29.7307 347.287 29.7394C347.287 29.7468 347.286 29.7542 347.283 29.7611C347.28 29.7679 347.276 29.7741 347.271 29.7793C347.258 29.7904 347.242 29.7971 347.225 29.7984L347.289 29.8715H347.24L347.181 29.7989H347.162V29.8715H347.12V29.6774H347.21L347.209 29.6772ZM347.197 29.9385C347.218 29.9387 347.24 29.9344 347.26 29.9257C347.279 29.9174 347.296 29.9056 347.311 29.8909C347.326 29.8762 347.337 29.8588 347.346 29.8396C347.362 29.7989 347.362 29.7532 347.346 29.7125C347.337 29.6934 347.326 29.676 347.311 29.6612C347.296 29.6465 347.279 29.6347 347.26 29.6264C347.24 29.6182 347.218 29.6141 347.197 29.6144C347.175 29.6142 347.153 29.6182 347.132 29.6264C347.113 29.6345 347.095 29.6463 347.08 29.6612C347.057 29.6845 347.042 29.7139 347.036 29.7459C347.03 29.7778 347.033 29.8109 347.046 29.8409C347.053 29.8601 347.065 29.8776 347.08 29.8922C347.095 29.9071 347.113 29.9189 347.132 29.927C347.153 29.9356 347.174 29.94 347.197 29.9398M347.197 29.5676C347.253 29.5676 347.307 29.5897 347.347 29.6292C347.367 29.6482 347.382 29.6709 347.393 29.6958C347.404 29.7215 347.409 29.7491 347.409 29.777C347.409 29.8049 347.404 29.8325 347.393 29.8582C347.382 29.883 347.367 29.9056 347.347 29.9248C347.328 29.9437 347.305 29.9589 347.28 29.9697C347.253 29.9809 347.225 29.9866 347.197 29.9864C347.168 29.9866 347.139 29.9809 347.112 29.9697C347.087 29.9591 347.064 29.9439 347.044 29.9248C347.025 29.9049 347.01 29.8816 346.999 29.856C346.988 29.8304 346.983 29.8027 346.983 29.7748C346.983 29.7469 346.988 29.7193 346.999 29.6937C347.01 29.6687 347.025 29.646 347.045 29.6271C347.064 29.6076 347.087 29.5923 347.113 29.5821C347.14 29.5709 347.168 29.5653 347.197 29.5655M327.546 28.8178C327.546 28.4475 327.789 28.1434 328.185 28.1434C328.564 28.1434 328.82 28.4345 328.82 28.8178C328.82 29.2011 328.564 29.4922 328.185 29.4922C327.789 29.4922 327.546 29.188 327.546 28.8178ZM329.251 28.8178V27.7642H328.793V28.0208C328.648 27.8312 328.428 27.7122 328.128 27.7122C327.538 27.7122 327.075 28.1752 327.075 28.8183C327.075 29.4614 327.538 29.9244 328.128 29.9244C328.428 29.9244 328.648 29.8053 328.793 29.6158V29.8715H329.251V28.8178H329.251ZM344.727 28.8178C344.727 28.4475 344.97 28.1434 345.367 28.1434C345.746 28.1434 346.001 28.4345 346.001 28.8178C346.001 29.2011 345.746 29.4922 345.367 29.4922C344.97 29.4922 344.727 29.188 344.727 28.8178ZM346.433 28.8178V26.9185H345.975V28.0208C345.83 27.8312 345.609 27.7122 345.31 27.7122C344.719 27.7122 344.256 28.1752 344.256 28.8183C344.256 29.4614 344.719 29.9244 345.31 29.9244C345.609 29.9244 345.83 29.8053 345.975 29.6158V29.8715H346.433V28.8178ZM334.936 28.1217C335.231 28.1217 335.421 28.3068 335.469 28.6326H334.376C334.425 28.3285 334.61 28.1217 334.936 28.1217M334.945 27.711C334.328 27.711 333.896 28.1602 333.896 28.8171C333.896 29.4869 334.345 29.9233 334.976 29.9233C335.293 29.9233 335.584 29.8441 335.839 29.6281L335.615 29.2886C335.438 29.4298 335.214 29.509 335.002 29.509C334.707 29.509 334.438 29.3723 334.372 28.9931H335.936C335.941 28.9361 335.945 28.8786 335.945 28.817C335.941 28.1603 335.535 27.7109 334.945 27.7109M340.475 28.817C340.475 28.4468 340.717 28.1426 341.114 28.1426C341.493 28.1426 341.748 28.4337 341.748 28.817C341.748 29.2004 341.493 29.4914 341.114 29.4914C340.717 29.4914 340.475 29.1873 340.475 28.817M342.18 28.817V27.7642H341.722V28.0208C341.577 27.8312 341.357 27.7122 341.057 27.7122C340.467 27.7122 340.003 28.1752 340.003 28.8183C340.003 29.4614 340.466 29.9244 341.057 29.9244C341.357 29.9244 341.577 29.8053 341.722 29.6158V29.8715H342.18V28.8178L342.18 28.817ZM337.888 28.817C337.888 29.456 338.333 29.9231 339.012 29.9231C339.329 29.9231 339.541 29.8525 339.769 29.672L339.549 29.3017C339.377 29.4253 339.197 29.4914 338.997 29.4914C338.632 29.4869 338.363 29.2226 338.363 28.817C338.363 28.4115 338.632 28.1472 338.997 28.1426C339.196 28.1426 339.377 28.2087 339.549 28.3323L339.769 27.9621C339.54 27.7815 339.329 27.7109 339.012 27.7109C338.333 27.7109 337.888 28.1779 337.888 28.817ZM343.793 27.7109C343.529 27.7109 343.357 27.8345 343.238 28.0196V27.7642H342.784V29.8704H343.242V28.6897C343.242 28.3412 343.392 28.1475 343.691 28.1475C343.79 28.1461 343.887 28.1641 343.978 28.2005L344.119 27.7688C344.018 27.7289 343.886 27.7113 343.793 27.7113M331.516 27.9316C331.296 27.7864 330.992 27.7113 330.657 27.7113C330.123 27.7113 329.78 27.9671 329.78 28.3856C329.78 28.729 330.036 28.9409 330.507 29.007L330.723 29.0378C330.974 29.073 331.093 29.1391 331.093 29.2581C331.093 29.421 330.926 29.5139 330.613 29.5139C330.295 29.5139 330.066 29.4125 329.912 29.2935L329.697 29.6507C329.948 29.8357 330.265 29.924 330.609 29.924C331.217 29.924 331.57 29.6376 331.57 29.2365C331.57 28.8663 331.292 28.6726 330.834 28.6066L330.618 28.5752C330.42 28.5496 330.261 28.5097 330.261 28.3685C330.261 28.2145 330.41 28.1218 330.662 28.1218C330.931 28.1218 331.191 28.2232 331.318 28.3024L331.517 27.9322L331.516 27.9316ZM337.426 27.7117C337.162 27.7117 336.989 27.8353 336.871 28.0203V27.7642H336.417V29.8704H336.875V28.6897C336.875 28.3412 337.025 28.1475 337.324 28.1475C337.422 28.1461 337.52 28.1641 337.611 28.2005L337.752 27.7688C337.65 27.7289 337.518 27.7113 337.425 27.7113M333.517 27.7642H332.768V27.1252H332.305V27.7642H331.878V28.1828H332.305V29.1436C332.305 29.6323 332.495 29.9234 333.037 29.9234C333.236 29.9234 333.464 29.8618 333.61 29.7605L333.477 29.3683C333.341 29.4475 333.191 29.4874 333.072 29.4874C332.843 29.4874 332.768 29.3463 332.768 29.1349V28.1832H333.517V27.7642ZM326.669 29.8709V28.5491C326.669 28.0513 326.352 27.7163 325.841 27.7118C325.572 27.7073 325.295 27.791 325.1 28.0865C324.955 27.853 324.726 27.7118 324.404 27.7118C324.179 27.7118 323.96 27.7779 323.788 28.0246V27.7642H323.329V29.8704H323.791V28.7025C323.791 28.3369 323.994 28.1426 324.307 28.1426C324.611 28.1426 324.765 28.3409 324.765 28.6979V29.8701H325.228V28.7023C325.228 28.3367 325.439 28.1424 325.743 28.1424C326.056 28.1424 326.205 28.3406 326.205 28.6977V29.8699L326.669 29.8709Z" fill="#231F20"/>
<path d="M347.422 22.8646V22.5566H347.342L347.249 22.768L347.157 22.5566H347.077V22.8646H347.134V22.6326L347.22 22.8328H347.279L347.366 22.6321V22.8646H347.423H347.422ZM346.914 22.8646V22.6094H347.016V22.5574H346.754V22.6094H346.857V22.8646H346.913H346.914Z" fill="#F79410"/>
<path d="M338.305 24.1854H331.364V11.7114H338.305L338.305 24.1854Z" fill="#FF5F00"/>
<path d="M331.805 17.9488C331.805 15.4185 332.989 13.1644 334.834 11.7118C333.438 10.6106 331.711 10.013 329.932 10.0156C325.551 10.0156 322 13.5674 322 17.9488C322 22.3302 325.551 25.882 329.932 25.882C331.711 25.8847 333.438 25.287 334.834 24.1858C332.99 22.7335 331.805 20.4793 331.805 17.9488Z" fill="#EB001B"/>
<path d="M347.67 17.9488C347.67 22.3302 344.119 25.882 339.738 25.882C337.959 25.8846 336.232 25.287 334.835 24.1858C336.68 22.7332 337.865 20.4793 337.865 17.9488C337.865 15.4183 336.68 13.1644 334.835 11.7118C336.232 10.6107 337.959 10.0131 339.738 10.0156C344.119 10.0156 347.67 13.5674 347.67 17.9488" fill="#F79E1B"/>
</g>
<path d="M366.644 28.9815L366.978 26.8602L366.234 26.8429H362.682L365.15 11.1897C365.158 11.1419 365.182 11.0983 365.219 11.0669C365.256 11.0354 365.302 11.0183 365.351 11.0186H371.341C373.329 11.0186 374.701 11.4323 375.418 12.2491C375.754 12.6322 375.968 13.0326 376.071 13.4732C376.18 13.9355 376.182 14.4879 376.076 15.1616L376.068 15.2108V15.6424L376.404 15.8327C376.66 15.9626 376.891 16.1384 377.084 16.3512C377.371 16.6788 377.557 17.0952 377.636 17.5888C377.717 18.0964 377.69 18.7005 377.557 19.3844C377.404 20.1712 377.156 20.8563 376.821 21.417C376.526 21.9193 376.129 22.3543 375.656 22.6941C375.212 23.0096 374.684 23.2491 374.086 23.4023C373.508 23.553 372.848 23.629 372.125 23.629H371.659C371.325 23.629 371.002 23.7491 370.747 23.9643C370.494 24.1817 370.325 24.4823 370.272 24.8123L370.237 25.0032L369.647 28.742L369.62 28.8793C369.613 28.9227 369.601 28.9444 369.583 28.9591C369.566 28.9733 369.544 28.9812 369.522 28.9815H366.644Z" fill="#253B80"/>
<path d="M376.721 15.2603C376.703 15.3746 376.683 15.4914 376.66 15.6115C375.87 19.667 373.167 21.068 369.716 21.068H367.959C367.537 21.068 367.181 21.3745 367.115 21.7909L366.215 27.4971L365.961 29.1146C365.95 29.1788 365.954 29.2444 365.972 29.3069C365.99 29.3694 366.021 29.4274 366.063 29.4768C366.105 29.5262 366.157 29.5659 366.216 29.5931C366.275 29.6203 366.339 29.6344 366.404 29.6344H369.521C369.89 29.6344 370.204 29.3662 370.262 29.0022L370.293 28.8439L370.879 25.1197L370.917 24.9154C370.975 24.5501 371.289 24.2819 371.658 24.2819H372.124C375.144 24.2819 377.508 23.0559 378.199 19.508C378.487 18.0259 378.338 16.7883 377.574 15.918C377.332 15.6487 377.043 15.4259 376.721 15.2603Z" fill="#179BD7"/>
<path d="M375.895 14.9307C375.643 14.8578 375.386 14.8008 375.127 14.7602C374.614 14.6815 374.096 14.6437 373.578 14.6472H368.883C368.704 14.6471 368.531 14.7108 368.396 14.827C368.26 14.9432 368.17 15.1041 368.143 15.2807L367.144 21.6063L367.115 21.7909C367.146 21.5895 367.249 21.4059 367.403 21.2733C367.558 21.1407 367.755 21.0679 367.959 21.068H369.716C373.168 21.068 375.87 19.6663 376.66 15.6114C376.684 15.4914 376.703 15.3745 376.721 15.2602C376.513 15.1509 376.296 15.0593 376.072 14.9863C376.013 14.9668 375.954 14.9483 375.895 14.9307Z" fill="#222D65"/>
<path d="M368.143 15.2811C368.17 15.1045 368.26 14.9435 368.396 14.8274C368.532 14.7113 368.704 14.6477 368.883 14.6483H373.578C374.134 14.6483 374.653 14.6847 375.127 14.7613C375.448 14.8117 375.764 14.887 376.073 14.9867C376.306 15.064 376.522 15.1553 376.722 15.2606C376.957 13.7619 376.72 12.7415 375.91 11.8175C375.017 10.8002 373.404 10.3647 371.341 10.3647H365.351C364.93 10.3647 364.57 10.6713 364.505 11.0882L362.01 26.9024C361.999 26.9758 362.003 27.0509 362.023 27.1224C362.043 27.194 362.079 27.2603 362.127 27.3169C362.175 27.3734 362.235 27.4189 362.303 27.45C362.37 27.4812 362.444 27.4974 362.518 27.4975H366.216L367.144 21.6067L368.143 15.2811Z" fill="#253B80"/>
<g clip-path="url(#clip2_2402_1574)">
<path d="M408.048 19.847C408.057 19.3286 408.004 18.8102 407.89 18.3066H400.812V21.1043H404.968C404.81 22.0964 404.253 22.9783 403.427 23.5503L403.413 23.6427L405.65 25.3767L405.805 25.3916C407.226 24.0777 408.048 22.1441 408.048 19.847Z" fill="#4285F4"/>
<path d="M400.811 27.2176C402.846 27.2176 404.557 26.5472 405.805 25.3912L403.427 23.547C402.656 24.0654 401.741 24.3276 400.814 24.3008C398.86 24.2889 397.132 23.0256 396.524 21.1665L396.435 21.1754L394.108 22.975L394.078 23.0584C395.353 25.6117 397.96 27.2206 400.811 27.2176Z" fill="#34A853"/>
<path d="M396.521 21.1698C396.357 20.6901 396.271 20.1866 396.271 19.6771C396.274 19.1706 396.357 18.6671 396.515 18.1845L396.512 18.0862L394.155 16.2568L394.078 16.2926C393.005 18.4228 393.005 20.9314 394.078 23.0617L396.521 21.1698Z" fill="#FBBC05"/>
<path d="M400.812 15.0559C401.893 15.038 402.936 15.4402 403.725 16.1791L405.853 14.1025C404.488 12.8213 402.68 12.1212 400.809 12.1421C397.957 12.1421 395.35 13.7479 394.072 16.2983L396.509 18.1901C397.123 16.331 398.854 15.0678 400.812 15.0559Z" fill="#EB4335"/>
<path d="M415.089 20.5171V25.9961H413.337V12.4609H417.982C419.099 12.4371 420.183 12.8572 420.991 13.6318C422.573 15.0887 422.674 17.5556 421.214 19.1377C421.143 19.2151 421.068 19.2896 420.991 19.3611C420.18 20.1298 419.099 20.5439 417.982 20.5141L415.089 20.5171ZM415.089 14.1264V18.8516H418.023C418.673 18.8725 419.302 18.6193 419.754 18.1515C420.669 17.2726 420.696 15.8216 419.817 14.907L419.799 14.8891C419.784 14.8742 419.769 14.8563 419.754 14.8444C419.305 14.3677 418.676 14.1085 418.023 14.1264H415.089ZM426.279 16.4324C427.575 16.4324 428.597 16.775 429.345 17.4633C430.093 18.1485 430.468 19.09 430.468 20.2877V25.9961H428.794V24.7091H428.719C427.995 25.7667 427.03 26.2971 425.823 26.2971C424.882 26.3268 423.961 26.0051 423.246 25.3884C422.915 25.1117 422.65 24.7645 422.471 24.3722C422.292 23.9799 422.202 23.5524 422.209 23.1211C422.18 22.2273 422.588 21.3722 423.303 20.8359C424.033 20.2698 425.007 19.9868 426.226 19.9868C427.116 19.954 428.001 20.1477 428.794 20.5529V20.1536C428.797 19.5577 428.532 18.9917 428.07 18.6163C427.605 18.2021 427.003 17.9757 426.381 17.9847C425.445 17.9638 424.566 18.4286 424.06 19.2121L422.519 18.2468C423.359 17.0372 424.614 16.4324 426.279 16.4324ZM424.012 23.1598C424.009 23.6097 424.226 24.0327 424.59 24.2949C424.977 24.5988 425.46 24.7567 425.952 24.7478C426.69 24.7478 427.396 24.4558 427.921 23.9344C428.472 23.4547 428.791 22.7576 428.791 22.0247C428.243 21.5927 427.483 21.3752 426.506 21.3752C425.874 21.3513 425.248 21.5301 424.727 21.8846C424.289 22.1647 424.021 22.6414 424.012 23.1598ZM440.083 16.7363L434.237 30.0779H432.429L434.598 25.4092L430.751 16.7333H432.655L435.435 23.3862H435.474L438.176 16.7333L440.083 16.7363Z" fill="white"/>
</g>
<path d="M987 20.1818C987 19.5606 987.152 18.9943 987.455 18.483C987.758 17.9716 988.165 17.5644 988.676 17.2614C989.188 16.9583 989.754 16.8068 990.375 16.8068C990.913 16.8068 991.409 16.9223 991.864 17.1534C992.322 17.3845 992.701 17.7008 993 18.1023C993.299 18.5 993.485 18.9508 993.557 19.4545H992.182C992.106 19.0644 991.896 18.7462 991.551 18.5C991.206 18.25 990.814 18.125 990.375 18.125C989.996 18.125 989.652 18.2178 989.341 18.4034C989.03 18.589 988.782 18.8371 988.597 19.1477C988.411 19.4583 988.318 19.803 988.318 20.1818C988.318 20.5606 988.411 20.9053 988.597 21.2159C988.782 21.5265 989.03 21.7746 989.341 21.9602C989.652 22.1458 989.996 22.2386 990.375 22.2386C990.814 22.2386 991.186 22.1155 991.489 21.8693C991.795 21.6193 991.989 21.2992 992.068 20.9091H993.443C993.371 21.4129 993.195 21.8655 992.915 22.267C992.634 22.6648 992.275 22.9792 991.835 23.2102C991.4 23.4413 990.913 23.5568 990.375 23.5568C989.754 23.5568 989.188 23.4053 988.676 23.1023C988.165 22.7992 987.758 22.392 987.455 21.8807C987.152 21.3693 987 20.803 987 20.1818ZM990.318 26.1818C989.492 26.1818 988.716 26.0265 987.989 25.7159C987.265 25.4053 986.627 24.9754 986.074 24.4261C985.525 23.8731 985.093 23.2348 984.778 22.5114C984.468 21.7879 984.314 21.0114 984.318 20.1818C984.322 19.3523 984.479 18.5758 984.79 17.8523C985.104 17.1288 985.536 16.4924 986.085 15.9432C986.634 15.3902 987.271 14.9583 987.994 14.6477C988.718 14.3371 989.492 14.1818 990.318 14.1818C991.148 14.1818 991.924 14.3371 992.648 14.6477C993.375 14.9583 994.011 15.3902 994.557 15.9432C995.106 16.4924 995.536 17.1288 995.847 17.8523C996.157 18.5758 996.314 19.3523 996.318 20.1818C996.322 21.0114 996.169 21.7879 995.858 22.5114C995.547 23.2348 995.117 23.8731 994.568 24.4261C994.019 24.9754 993.381 25.4053 992.653 25.7159C991.926 26.0265 991.148 26.1818 990.318 26.1818ZM990.318 24.8636C990.966 24.8636 991.574 24.7424 992.142 24.5C992.71 24.2576 993.208 23.9223 993.636 23.4943C994.064 23.0663 994.4 22.5701 994.642 22.0057C994.884 21.4375 995.004 20.8314 995 20.1875C994.996 19.5398 994.873 18.9318 994.631 18.3636C994.388 17.7955 994.053 17.2973 993.625 16.8693C993.197 16.4413 992.701 16.1061 992.136 15.8636C991.572 15.6212 990.966 15.5 990.318 15.5C989.674 15.5 989.07 15.6212 988.506 15.8636C987.941 16.1061 987.445 16.4432 987.017 16.875C986.589 17.303 986.252 17.8011 986.006 18.3693C985.763 18.9337 985.64 19.5398 985.636 20.1875C985.633 20.8277 985.752 21.4318 985.994 22C986.237 22.5644 986.572 23.0606 987 23.4886C987.432 23.9167 987.93 24.2538 988.494 24.5C989.063 24.7424 989.67 24.8636 990.318 24.8636ZM1002.96 26V24.9773L1006.8 20.7727C1007.25 20.2803 1007.62 19.8523 1007.92 19.4886C1008.21 19.1212 1008.42 18.7765 1008.56 18.4545C1008.71 18.1288 1008.78 17.7879 1008.78 17.4318C1008.78 17.0227 1008.68 16.6686 1008.48 16.3693C1008.29 16.0701 1008.03 15.839 1007.69 15.6761C1007.35 15.5133 1006.97 15.4318 1006.55 15.4318C1006.11 15.4318 1005.71 15.5246 1005.38 15.7102C1005.05 15.892 1004.8 16.1477 1004.61 16.4773C1004.44 16.8068 1004.35 17.1932 1004.35 17.6364H1003.01C1003.01 16.9545 1003.16 16.3561 1003.48 15.8409C1003.79 15.3258 1004.22 14.9242 1004.76 14.6364C1005.31 14.3485 1005.92 14.2045 1006.6 14.2045C1007.28 14.2045 1007.88 14.3485 1008.41 14.6364C1008.94 14.9242 1009.35 15.3125 1009.65 15.8011C1009.95 16.2898 1010.1 16.8333 1010.1 17.4318C1010.1 17.8598 1010.02 18.2784 1009.86 18.6875C1009.71 19.0928 1009.45 19.5455 1009.07 20.0455C1008.69 20.5417 1008.17 21.1477 1007.51 21.8636L1004.89 24.6591V24.75H1010.3V26H1002.96ZM1016.25 26.1591C1015.4 26.1591 1014.67 25.9261 1014.06 25.4602C1013.46 24.9905 1013 24.3106 1012.68 23.4205C1012.37 22.5265 1012.21 21.447 1012.21 20.1818C1012.21 18.9242 1012.37 17.8504 1012.68 16.9602C1013.01 16.0663 1013.47 15.3845 1014.07 14.9148C1014.68 14.4413 1015.4 14.2045 1016.25 14.2045C1017.1 14.2045 1017.83 14.4413 1018.43 14.9148C1019.03 15.3845 1019.5 16.0663 1019.81 16.9602C1020.14 17.8504 1020.3 18.9242 1020.3 20.1818C1020.3 21.447 1020.14 22.5265 1019.82 23.4205C1019.5 24.3106 1019.04 24.9905 1018.44 25.4602C1017.84 25.9261 1017.11 26.1591 1016.25 26.1591ZM1016.25 24.9091C1017.1 24.9091 1017.76 24.5 1018.23 23.6818C1018.7 22.8636 1018.93 21.697 1018.93 20.1818C1018.93 19.1742 1018.83 18.3163 1018.61 17.608C1018.4 16.8996 1018.09 16.3598 1017.69 15.9886C1017.29 15.6174 1016.81 15.4318 1016.25 15.4318C1015.41 15.4318 1014.75 15.8466 1014.28 16.6761C1013.81 17.5019 1013.57 18.6705 1013.57 20.1818C1013.57 21.1894 1013.68 22.0455 1013.89 22.75C1014.1 23.4545 1014.41 23.9905 1014.8 24.358C1015.2 24.7254 1015.69 24.9091 1016.25 24.9091ZM1022.26 26V24.9773L1026.11 20.7727C1026.56 20.2803 1026.93 19.8523 1027.22 19.4886C1027.51 19.1212 1027.73 18.7765 1027.87 18.4545C1028.01 18.1288 1028.08 17.7879 1028.08 17.4318C1028.08 17.0227 1027.98 16.6686 1027.79 16.3693C1027.59 16.0701 1027.33 15.839 1026.99 15.6761C1026.65 15.5133 1026.28 15.4318 1025.86 15.4318C1025.41 15.4318 1025.02 15.5246 1024.69 15.7102C1024.36 15.892 1024.1 16.1477 1023.92 16.4773C1023.74 16.8068 1023.65 17.1932 1023.65 17.6364H1022.31C1022.31 16.9545 1022.47 16.3561 1022.78 15.8409C1023.1 15.3258 1023.52 14.9242 1024.07 14.6364C1024.61 14.3485 1025.22 14.2045 1025.9 14.2045C1026.58 14.2045 1027.19 14.3485 1027.71 14.6364C1028.24 14.9242 1028.65 15.3125 1028.95 15.8011C1029.25 16.2898 1029.4 16.8333 1029.4 17.4318C1029.4 17.8598 1029.32 18.2784 1029.17 18.6875C1029.02 19.0928 1028.75 19.5455 1028.37 20.0455C1028 20.5417 1027.48 21.1477 1026.81 21.8636L1024.2 24.6591V24.75H1029.61V26H1022.26ZM1035.69 26.1591C1034.94 26.1591 1034.27 26.0303 1033.69 25.7727C1033.1 25.5152 1032.64 25.1572 1032.29 24.6989C1031.95 24.2367 1031.77 23.7008 1031.74 23.0909H1033.17C1033.2 23.4659 1033.33 23.7898 1033.56 24.0625C1033.78 24.3314 1034.08 24.5398 1034.45 24.6875C1034.82 24.8352 1035.22 24.9091 1035.67 24.9091C1036.17 24.9091 1036.61 24.822 1037 24.6477C1037.39 24.4735 1037.69 24.2311 1037.91 23.9205C1038.13 23.6098 1038.24 23.25 1038.24 22.8409C1038.24 22.4129 1038.13 22.036 1037.92 21.7102C1037.71 21.3807 1037.4 21.1231 1036.99 20.9375C1036.58 20.7519 1036.08 20.6591 1035.49 20.6591H1034.56V19.4091H1035.49C1035.95 19.4091 1036.35 19.3258 1036.7 19.1591C1037.06 18.9924 1037.33 18.7576 1037.53 18.4545C1037.73 18.1515 1037.83 17.7955 1037.83 17.3864C1037.83 16.9924 1037.74 16.6496 1037.57 16.358C1037.39 16.0663 1037.15 15.839 1036.83 15.6761C1036.51 15.5133 1036.14 15.4318 1035.71 15.4318C1035.31 15.4318 1034.93 15.5057 1034.58 15.6534C1034.23 15.7973 1033.94 16.0076 1033.71 16.2841C1033.49 16.5568 1033.37 16.8864 1033.35 17.2727H1031.99C1032.01 16.6629 1032.19 16.1288 1032.54 15.6705C1032.88 15.2083 1033.33 14.8485 1033.89 14.5909C1034.45 14.3333 1035.07 14.2045 1035.74 14.2045C1036.46 14.2045 1037.07 14.3504 1037.59 14.642C1038.1 14.9299 1038.5 15.3106 1038.78 15.7841C1039.05 16.2576 1039.19 16.7689 1039.19 17.3182C1039.19 17.9735 1039.02 18.5322 1038.67 18.9943C1038.33 19.4564 1037.87 19.7765 1037.28 19.9545V20.0455C1038.02 20.1667 1038.59 20.4792 1039 20.983C1039.42 21.483 1039.62 22.1023 1039.62 22.8409C1039.62 23.4735 1039.45 24.0417 1039.11 24.5455C1038.77 25.0455 1038.3 25.4394 1037.71 25.7273C1037.12 26.0152 1036.45 26.1591 1035.69 26.1591ZM1046.75 26H1045.27L1049.54 14.3636H1051L1055.27 26H1053.79L1050.31 16.2045H1050.22L1046.75 26ZM1047.29 21.4545H1053.25V22.7045H1047.29V21.4545ZM1058.05 14.3636V26H1056.71V14.3636H1058.05ZM1061.65 14.3636V26H1060.31V14.3636H1061.65ZM1068.41 26V14.3636H1072.34C1073.25 14.3636 1073.99 14.5189 1074.58 14.8295C1075.16 15.1364 1075.59 15.5587 1075.87 16.0966C1076.15 16.6345 1076.29 17.2462 1076.29 17.9318C1076.29 18.6174 1076.15 19.2254 1075.87 19.7557C1075.59 20.286 1075.16 20.7027 1074.58 21.0057C1074 21.3049 1073.26 21.4545 1072.36 21.4545H1069.18V20.1818H1072.32C1072.94 20.1818 1073.44 20.0909 1073.82 19.9091C1074.2 19.7273 1074.47 19.4697 1074.65 19.1364C1074.82 18.7992 1074.91 18.3977 1074.91 17.9318C1074.91 17.4659 1074.82 17.0587 1074.65 16.7102C1074.47 16.3617 1074.19 16.0928 1073.81 15.9034C1073.43 15.7102 1072.92 15.6136 1072.29 15.6136H1069.82V26H1068.41ZM1073.88 20.7727L1076.75 26H1075.11L1072.29 20.7727H1073.88ZM1078.27 26V17.2727H1079.61V26H1078.27ZM1078.95 15.8182C1078.69 15.8182 1078.46 15.7292 1078.27 15.5511C1078.09 15.3731 1077.99 15.1591 1077.99 14.9091C1077.99 14.6591 1078.09 14.4451 1078.27 14.267C1078.46 14.089 1078.69 14 1078.95 14C1079.21 14 1079.43 14.089 1079.62 14.267C1079.81 14.4451 1079.9 14.6591 1079.9 14.9091C1079.9 15.1591 1079.81 15.3731 1079.62 15.5511C1079.43 15.7292 1079.21 15.8182 1078.95 15.8182ZM1085.39 29.4545C1084.75 29.4545 1084.19 29.3712 1083.72 29.2045C1083.26 29.0417 1082.87 28.8258 1082.56 28.5568C1082.25 28.2917 1082.01 28.0076 1081.83 27.7045L1082.89 26.9545C1083.02 27.1136 1083.17 27.2955 1083.35 27.5C1083.54 27.7083 1083.79 27.8883 1084.12 28.0398C1084.44 28.1951 1084.87 28.2727 1085.39 28.2727C1086.1 28.2727 1086.68 28.1023 1087.14 27.7614C1087.6 27.4205 1087.83 26.8864 1087.83 26.1591V24.3864H1087.71C1087.61 24.5455 1087.47 24.7424 1087.29 24.9773C1087.11 25.2083 1086.86 25.4148 1086.52 25.5966C1086.19 25.7746 1085.74 25.8636 1085.17 25.8636C1084.46 25.8636 1083.83 25.697 1083.27 25.3636C1082.71 25.0303 1082.27 24.5455 1081.95 23.9091C1081.62 23.2727 1081.46 22.5 1081.46 21.5909C1081.46 20.697 1081.62 19.9186 1081.93 19.2557C1082.25 18.589 1082.69 18.0739 1083.25 17.7102C1083.81 17.3428 1084.46 17.1591 1085.19 17.1591C1085.76 17.1591 1086.21 17.2538 1086.54 17.4432C1086.88 17.6288 1087.14 17.8409 1087.32 18.0795C1087.5 18.3144 1087.64 18.5076 1087.74 18.6591H1087.87V17.2727H1089.17V26.25C1089.17 27 1089 27.6098 1088.66 28.0795C1088.32 28.553 1087.86 28.8996 1087.29 29.1193C1086.72 29.3428 1086.09 29.4545 1085.39 29.4545ZM1085.35 24.6591C1085.89 24.6591 1086.34 24.536 1086.71 24.2898C1087.08 24.0436 1087.37 23.6894 1087.56 23.2273C1087.75 22.7652 1087.85 22.2121 1087.85 21.5682C1087.85 20.9394 1087.75 20.3845 1087.57 19.9034C1087.38 19.4223 1087.1 19.0455 1086.72 18.7727C1086.35 18.5 1085.89 18.3636 1085.35 18.3636C1084.78 18.3636 1084.31 18.5076 1083.93 18.7955C1083.55 19.0833 1083.27 19.4697 1083.08 19.9545C1082.9 20.4394 1082.8 20.9773 1082.8 21.5682C1082.8 22.1742 1082.9 22.7102 1083.09 23.1761C1083.28 23.6383 1083.57 24.0019 1083.94 24.267C1084.32 24.5284 1084.79 24.6591 1085.35 24.6591ZM1092.77 20.75V26H1091.43V14.3636H1092.77V18.6364H1092.88C1093.09 18.1856 1093.4 17.8277 1093.8 17.5625C1094.22 17.2936 1094.77 17.1591 1095.45 17.1591C1096.05 17.1591 1096.57 17.2784 1097.02 17.517C1097.46 17.7519 1097.81 18.1136 1098.05 18.6023C1098.3 19.0871 1098.43 19.7045 1098.43 20.4545V26H1097.09V20.5455C1097.09 19.8523 1096.91 19.3163 1096.55 18.9375C1096.19 18.5549 1095.7 18.3636 1095.07 18.3636C1094.63 18.3636 1094.23 18.4564 1093.88 18.642C1093.54 18.8277 1093.27 19.0985 1093.07 19.4545C1092.87 19.8106 1092.77 20.2424 1092.77 20.75ZM1104.49 17.2727V18.4091H1099.96V17.2727H1104.49ZM1101.28 15.1818H1102.62V23.5C1102.62 23.8788 1102.68 24.1629 1102.79 24.3523C1102.9 24.5379 1103.05 24.6629 1103.22 24.7273C1103.4 24.7879 1103.58 24.8182 1103.78 24.8182C1103.93 24.8182 1104.05 24.8106 1104.15 24.7955C1104.24 24.7765 1104.32 24.7614 1104.37 24.75L1104.65 25.9545C1104.55 25.9886 1104.43 26.0227 1104.26 26.0568C1104.1 26.0947 1103.9 26.1136 1103.65 26.1136C1103.27 26.1136 1102.9 26.0322 1102.53 25.8693C1102.17 25.7064 1101.87 25.4583 1101.63 25.125C1101.4 24.7917 1101.28 24.3712 1101.28 23.8636V15.1818ZM1112.34 19.2273L1111.13 19.5682C1111.06 19.3674 1110.95 19.1723 1110.8 18.983C1110.65 18.7898 1110.46 18.6307 1110.21 18.5057C1109.96 18.3807 1109.64 18.3182 1109.25 18.3182C1108.71 18.3182 1108.27 18.4413 1107.91 18.6875C1107.56 18.9299 1107.38 19.2386 1107.38 19.6136C1107.38 19.947 1107.5 20.2102 1107.75 20.4034C1107.99 20.5966 1108.37 20.7576 1108.88 20.8864L1110.18 21.2045C1110.96 21.3939 1111.54 21.6837 1111.92 22.0739C1112.3 22.4602 1112.5 22.9583 1112.5 23.5682C1112.5 24.0682 1112.35 24.5152 1112.06 24.9091C1111.78 25.303 1111.38 25.6136 1110.87 25.8409C1110.36 26.0682 1109.77 26.1818 1109.09 26.1818C1108.2 26.1818 1107.46 25.9886 1106.88 25.6023C1106.29 25.2159 1105.92 24.6515 1105.77 23.9091L1107.04 23.5909C1107.16 24.0606 1107.39 24.4129 1107.73 24.6477C1108.07 24.8826 1108.52 25 1109.06 25C1109.69 25 1110.19 24.8674 1110.55 24.6023C1110.92 24.3333 1111.11 24.0114 1111.11 23.6364C1111.11 23.3333 1111 23.0795 1110.79 22.875C1110.58 22.6667 1110.25 22.5114 1109.81 22.4091L1108.36 22.0682C1107.56 21.8788 1106.97 21.5852 1106.6 21.1875C1106.23 20.786 1106.04 20.2841 1106.04 19.6818C1106.04 19.1894 1106.18 18.7538 1106.46 18.375C1106.74 17.9962 1107.12 17.6989 1107.6 17.483C1108.08 17.267 1108.63 17.1591 1109.25 17.1591C1110.11 17.1591 1110.79 17.3485 1111.28 17.7273C1111.78 18.1061 1112.13 18.6061 1112.34 19.2273ZM1118.81 26V14.3636H1122.74C1123.65 14.3636 1124.4 14.5189 1124.98 14.8295C1125.57 15.1364 1126 15.5587 1126.28 16.0966C1126.56 16.6345 1126.7 17.2462 1126.7 17.9318C1126.7 18.6174 1126.56 19.2254 1126.28 19.7557C1126 20.286 1125.57 20.7027 1124.99 21.0057C1124.41 21.3049 1123.67 21.4545 1122.77 21.4545H1119.59V20.1818H1122.72C1123.34 20.1818 1123.84 20.0909 1124.22 19.9091C1124.6 19.7273 1124.88 19.4697 1125.05 19.1364C1125.23 18.7992 1125.31 18.3977 1125.31 17.9318C1125.31 17.4659 1125.23 17.0587 1125.05 16.7102C1124.88 16.3617 1124.6 16.0928 1124.22 15.9034C1123.83 15.7102 1123.33 15.6136 1122.7 15.6136H1120.22V26H1118.81ZM1124.29 20.7727L1127.15 26H1125.52L1122.7 20.7727H1124.29ZM1132.24 26.1818C1131.4 26.1818 1130.67 25.9962 1130.06 25.625C1129.46 25.25 1128.99 24.7273 1128.66 24.0568C1128.33 23.3826 1128.17 22.5985 1128.17 21.7045C1128.17 20.8106 1128.33 20.0227 1128.66 19.3409C1128.99 18.6553 1129.45 18.1212 1130.03 17.7386C1130.62 17.3523 1131.31 17.1591 1132.1 17.1591C1132.56 17.1591 1133.01 17.2348 1133.45 17.3864C1133.89 17.5379 1134.3 17.7841 1134.66 18.125C1135.02 18.4621 1135.31 18.9091 1135.53 19.4659C1135.74 20.0227 1135.85 20.7083 1135.85 21.5227V22.0909H1129.12V20.9318H1134.49C1134.49 20.4394 1134.39 20 1134.19 19.6136C1134 19.2273 1133.72 18.9223 1133.36 18.6989C1133.01 18.4754 1132.59 18.3636 1132.1 18.3636C1131.57 18.3636 1131.11 18.4962 1130.72 18.7614C1130.33 19.0227 1130.03 19.3636 1129.82 19.7841C1129.62 20.2045 1129.51 20.6553 1129.51 21.1364V21.9091C1129.51 22.5682 1129.62 23.1269 1129.85 23.5852C1130.08 24.0398 1130.4 24.3864 1130.81 24.625C1131.22 24.8598 1131.7 24.9773 1132.24 24.9773C1132.59 24.9773 1132.91 24.928 1133.19 24.8295C1133.48 24.7273 1133.73 24.5758 1133.94 24.375C1134.15 24.1705 1134.31 23.9167 1134.42 23.6136L1135.72 23.9773C1135.58 24.4167 1135.35 24.803 1135.03 25.1364C1134.71 25.4659 1134.31 25.7235 1133.83 25.9091C1133.36 26.0909 1132.83 26.1818 1132.24 26.1818ZM1143.88 19.2273L1142.68 19.5682C1142.6 19.3674 1142.49 19.1723 1142.34 18.983C1142.2 18.7898 1142 18.6307 1141.75 18.5057C1141.5 18.3807 1141.18 18.3182 1140.79 18.3182C1140.26 18.3182 1139.81 18.4413 1139.46 18.6875C1139.1 18.9299 1138.93 19.2386 1138.93 19.6136C1138.93 19.947 1139.05 20.2102 1139.29 20.4034C1139.53 20.5966 1139.91 20.7576 1140.43 20.8864L1141.72 21.2045C1142.5 21.3939 1143.08 21.6837 1143.47 22.0739C1143.85 22.4602 1144.04 22.9583 1144.04 23.5682C1144.04 24.0682 1143.9 24.5152 1143.61 24.9091C1143.32 25.303 1142.93 25.6136 1142.42 25.8409C1141.9 26.0682 1141.31 26.1818 1140.63 26.1818C1139.74 26.1818 1139 25.9886 1138.42 25.6023C1137.84 25.2159 1137.47 24.6515 1137.31 23.9091L1138.59 23.5909C1138.71 24.0606 1138.94 24.4129 1139.27 24.6477C1139.61 24.8826 1140.06 25 1140.61 25C1141.23 25 1141.73 24.8674 1142.1 24.6023C1142.47 24.3333 1142.65 24.0114 1142.65 23.6364C1142.65 23.3333 1142.55 23.0795 1142.34 22.875C1142.12 22.6667 1141.8 22.5114 1141.36 22.4091L1139.9 22.0682C1139.11 21.8788 1138.52 21.5852 1138.14 21.1875C1137.77 20.786 1137.59 20.2841 1137.59 19.6818C1137.59 19.1894 1137.72 18.7538 1138 18.375C1138.28 17.9962 1138.66 17.6989 1139.14 17.483C1139.63 17.267 1140.18 17.1591 1140.79 17.1591C1141.65 17.1591 1142.33 17.3485 1142.82 17.7273C1143.32 18.1061 1143.67 18.6061 1143.88 19.2273ZM1149.53 26.1818C1148.69 26.1818 1147.96 25.9962 1147.35 25.625C1146.74 25.25 1146.28 24.7273 1145.95 24.0568C1145.62 23.3826 1145.46 22.5985 1145.46 21.7045C1145.46 20.8106 1145.62 20.0227 1145.95 19.3409C1146.28 18.6553 1146.73 18.1212 1147.32 17.7386C1147.91 17.3523 1148.6 17.1591 1149.39 17.1591C1149.84 17.1591 1150.29 17.2348 1150.74 17.3864C1151.18 17.5379 1151.58 17.7841 1151.95 18.125C1152.31 18.4621 1152.6 18.9091 1152.82 19.4659C1153.03 20.0227 1153.14 20.7083 1153.14 21.5227V22.0909H1146.41V20.9318H1151.78C1151.78 20.4394 1151.68 20 1151.48 19.6136C1151.29 19.2273 1151.01 18.9223 1150.65 18.6989C1150.3 18.4754 1149.87 18.3636 1149.39 18.3636C1148.86 18.3636 1148.39 18.4962 1148 18.7614C1147.62 19.0227 1147.32 19.3636 1147.11 19.7841C1146.9 20.2045 1146.8 20.6553 1146.8 21.1364V21.9091C1146.8 22.5682 1146.91 23.1269 1147.14 23.5852C1147.37 24.0398 1147.69 24.3864 1148.1 24.625C1148.51 24.8598 1148.98 24.9773 1149.53 24.9773C1149.88 24.9773 1150.2 24.928 1150.48 24.8295C1150.77 24.7273 1151.02 24.5758 1151.23 24.375C1151.43 24.1705 1151.59 23.9167 1151.71 23.6136L1153 23.9773C1152.87 24.4167 1152.64 24.803 1152.32 25.1364C1151.99 25.4659 1151.6 25.7235 1151.12 25.9091C1150.65 26.0909 1150.12 26.1818 1149.53 26.1818ZM1154.99 26V17.2727H1156.28V18.5909H1156.37C1156.53 18.1591 1156.82 17.8087 1157.24 17.5398C1157.65 17.2708 1158.12 17.1364 1158.65 17.1364C1158.75 17.1364 1158.87 17.1383 1159.02 17.142C1159.16 17.1458 1159.28 17.1515 1159.35 17.1591V18.5227C1159.31 18.5114 1159.2 18.4943 1159.04 18.4716C1158.88 18.4451 1158.71 18.4318 1158.53 18.4318C1158.11 18.4318 1157.73 18.5208 1157.4 18.6989C1157.07 18.8731 1156.81 19.1155 1156.61 19.4261C1156.42 19.733 1156.33 20.0833 1156.33 20.4773V26H1154.99ZM1168.15 17.2727L1164.92 26H1163.56L1160.33 17.2727H1161.79L1164.2 24.2273H1164.29L1166.7 17.2727H1168.15ZM1173.08 26.1818C1172.23 26.1818 1171.51 25.9962 1170.9 25.625C1170.29 25.25 1169.83 24.7273 1169.5 24.0568C1169.17 23.3826 1169.01 22.5985 1169.01 21.7045C1169.01 20.8106 1169.17 20.0227 1169.5 19.3409C1169.83 18.6553 1170.28 18.1212 1170.87 17.7386C1171.46 17.3523 1172.15 17.1591 1172.94 17.1591C1173.39 17.1591 1173.84 17.2348 1174.29 17.3864C1174.73 17.5379 1175.13 17.7841 1175.5 18.125C1175.86 18.4621 1176.15 18.9091 1176.37 19.4659C1176.58 20.0227 1176.69 20.7083 1176.69 21.5227V22.0909H1169.96V20.9318H1175.33C1175.33 20.4394 1175.23 20 1175.03 19.6136C1174.84 19.2273 1174.56 18.9223 1174.2 18.6989C1173.84 18.4754 1173.42 18.3636 1172.94 18.3636C1172.4 18.3636 1171.94 18.4962 1171.55 18.7614C1171.17 19.0227 1170.87 19.3636 1170.66 19.7841C1170.45 20.2045 1170.35 20.6553 1170.35 21.1364V21.9091C1170.35 22.5682 1170.46 23.1269 1170.69 23.5852C1170.92 24.0398 1171.24 24.3864 1171.65 24.625C1172.06 24.8598 1172.53 24.9773 1173.08 24.9773C1173.43 24.9773 1173.75 24.928 1174.03 24.8295C1174.32 24.7273 1174.57 24.5758 1174.77 24.375C1174.98 24.1705 1175.14 23.9167 1175.26 23.6136L1176.55 23.9773C1176.42 24.4167 1176.19 24.803 1175.87 25.1364C1175.54 25.4659 1175.15 25.7235 1174.67 25.9091C1174.2 26.0909 1173.67 26.1818 1173.08 26.1818ZM1181.83 26.1818C1181.1 26.1818 1180.46 25.9981 1179.91 25.6307C1179.35 25.2595 1178.91 24.7367 1178.6 24.0625C1178.28 23.3845 1178.13 22.5833 1178.13 21.6591C1178.13 20.7424 1178.28 19.947 1178.6 19.2727C1178.91 18.5985 1179.35 18.0777 1179.91 17.7102C1180.47 17.3428 1181.12 17.1591 1181.85 17.1591C1182.42 17.1591 1182.87 17.2538 1183.2 17.4432C1183.53 17.6288 1183.79 17.8409 1183.96 18.0795C1184.14 18.3144 1184.28 18.5076 1184.38 18.6591H1184.49V14.3636H1185.83V26H1184.54V24.6591H1184.38C1184.28 24.8182 1184.14 25.0189 1183.96 25.2614C1183.78 25.5 1183.52 25.714 1183.18 25.9034C1182.84 26.089 1182.39 26.1818 1181.83 26.1818ZM1182.01 24.9773C1182.55 24.9773 1183.01 24.8371 1183.38 24.5568C1183.75 24.2727 1184.03 23.8807 1184.22 23.3807C1184.42 22.8769 1184.51 22.2955 1184.51 21.6364C1184.51 20.9848 1184.42 20.4148 1184.23 19.9261C1184.04 19.4337 1183.76 19.0511 1183.39 18.7784C1183.02 18.5019 1182.56 18.3636 1182.01 18.3636C1181.45 18.3636 1180.97 18.5095 1180.59 18.8011C1180.22 19.089 1179.94 19.4811 1179.75 19.9773C1179.56 20.4697 1179.47 21.0227 1179.47 21.6364C1179.47 22.2576 1179.56 22.822 1179.75 23.3295C1179.95 23.8333 1180.23 24.2348 1180.6 24.5341C1180.98 24.8295 1181.45 24.9773 1182.01 24.9773ZM1197.59 19.5568V20.8068H1192.5V19.5568H1197.59ZM1203.61 15.6136V14.3636H1212.34V15.6136H1208.68V26H1207.27V15.6136H1203.61ZM1216.53 26.1818C1215.69 26.1818 1214.97 25.9962 1214.36 25.625C1213.75 25.25 1213.28 24.7273 1212.95 24.0568C1212.63 23.3826 1212.46 22.5985 1212.46 21.7045C1212.46 20.8106 1212.63 20.0227 1212.95 19.3409C1213.28 18.6553 1213.74 18.1212 1214.33 17.7386C1214.92 17.3523 1215.61 17.1591 1216.4 17.1591C1216.85 17.1591 1217.3 17.2348 1217.74 17.3864C1218.19 17.5379 1218.59 17.7841 1218.95 18.125C1219.32 18.4621 1219.61 18.9091 1219.82 19.4659C1220.04 20.0227 1220.15 20.7083 1220.15 21.5227V22.0909H1213.42V20.9318H1218.78C1218.78 20.4394 1218.68 20 1218.49 19.6136C1218.29 19.2273 1218.02 18.9223 1217.66 18.6989C1217.3 18.4754 1216.88 18.3636 1216.4 18.3636C1215.86 18.3636 1215.4 18.4962 1215.01 18.7614C1214.62 19.0227 1214.33 19.3636 1214.12 19.7841C1213.91 20.2045 1213.81 20.6553 1213.81 21.1364V21.9091C1213.81 22.5682 1213.92 23.1269 1214.15 23.5852C1214.38 24.0398 1214.7 24.3864 1215.11 24.625C1215.52 24.8598 1215.99 24.9773 1216.53 24.9773C1216.88 24.9773 1217.2 24.928 1217.49 24.8295C1217.78 24.7273 1218.02 24.5758 1218.23 24.375C1218.44 24.1705 1218.6 23.9167 1218.71 23.6136L1220.01 23.9773C1219.87 24.4167 1219.64 24.803 1219.32 25.1364C1219 25.4659 1218.6 25.7235 1218.13 25.9091C1217.66 26.0909 1217.12 26.1818 1216.53 26.1818ZM1221.99 26V17.2727H1223.29V18.6364H1223.4C1223.58 18.1705 1223.88 17.8087 1224.28 17.5511C1224.69 17.2898 1225.18 17.1591 1225.74 17.1591C1226.32 17.1591 1226.8 17.2898 1227.18 17.5511C1227.57 17.8087 1227.87 18.1705 1228.08 18.6364H1228.18C1228.4 18.1856 1228.73 17.8277 1229.18 17.5625C1229.63 17.2936 1230.16 17.1591 1230.79 17.1591C1231.57 17.1591 1232.21 17.4034 1232.7 17.892C1233.2 18.3769 1233.45 19.1326 1233.45 20.1591V26H1232.11V20.1591C1232.11 19.5152 1231.93 19.0549 1231.58 18.7784C1231.23 18.5019 1230.81 18.3636 1230.33 18.3636C1229.72 18.3636 1229.25 18.5492 1228.91 18.9205C1228.57 19.2879 1228.4 19.7538 1228.4 20.3182V26H1227.04V20.0227C1227.04 19.5265 1226.88 19.1269 1226.56 18.8239C1226.23 18.517 1225.82 18.3636 1225.31 18.3636C1224.96 18.3636 1224.64 18.4564 1224.33 18.642C1224.04 18.8277 1223.79 19.0852 1223.61 19.4148C1223.43 19.7405 1223.33 20.1174 1223.33 20.5455V26H1221.99ZM1235.71 29.2727V17.2727H1237V18.6591H1237.16C1237.26 18.5076 1237.4 18.3144 1237.57 18.0795C1237.75 17.8409 1238 17.6288 1238.33 17.4432C1238.67 17.2538 1239.12 17.1591 1239.69 17.1591C1240.42 17.1591 1241.07 17.3428 1241.63 17.7102C1242.19 18.0777 1242.63 18.5985 1242.94 19.2727C1243.26 19.947 1243.41 20.7424 1243.41 21.6591C1243.41 22.5833 1243.26 23.3845 1242.94 24.0625C1242.63 24.7367 1242.19 25.2595 1241.63 25.6307C1241.08 25.9981 1240.44 26.1818 1239.71 26.1818C1239.15 26.1818 1238.7 26.089 1238.36 25.9034C1238.02 25.714 1237.77 25.5 1237.58 25.2614C1237.4 25.0189 1237.26 24.8182 1237.16 24.6591H1237.05V29.2727H1235.71ZM1237.03 21.6364C1237.03 22.2955 1237.12 22.8769 1237.32 23.3807C1237.51 23.8807 1237.79 24.2727 1238.16 24.5568C1238.53 24.8371 1238.99 24.9773 1239.53 24.9773C1240.09 24.9773 1240.55 24.8295 1240.93 24.5341C1241.31 24.2348 1241.59 23.8333 1241.78 23.3295C1241.98 22.822 1242.07 22.2576 1242.07 21.6364C1242.07 21.0227 1241.98 20.4697 1241.79 19.9773C1241.6 19.4811 1241.32 19.089 1240.94 18.8011C1240.57 18.5095 1240.09 18.3636 1239.53 18.3636C1238.98 18.3636 1238.52 18.5019 1238.15 18.7784C1237.78 19.0511 1237.5 19.4337 1237.31 19.9261C1237.12 20.4148 1237.03 20.9848 1237.03 21.6364ZM1246.61 14.3636V26H1245.27V14.3636H1246.61ZM1251.44 26.2045C1250.89 26.2045 1250.38 26.1004 1249.93 25.892C1249.48 25.6799 1249.12 25.375 1248.86 24.9773C1248.59 24.5758 1248.46 24.0909 1248.46 23.5227C1248.46 23.0227 1248.56 22.6174 1248.76 22.3068C1248.95 21.9924 1249.22 21.7462 1249.55 21.5682C1249.88 21.3902 1250.24 21.2576 1250.64 21.1705C1251.04 21.0795 1251.44 21.0076 1251.85 20.9545C1252.38 20.8864 1252.81 20.8352 1253.14 20.8011C1253.47 20.7633 1253.71 20.7008 1253.87 20.6136C1254.02 20.5265 1254.1 20.375 1254.1 20.1591V20.1136C1254.1 19.553 1253.94 19.1174 1253.64 18.8068C1253.34 18.4962 1252.87 18.3409 1252.26 18.3409C1251.62 18.3409 1251.12 18.4811 1250.75 18.7614C1250.39 19.0417 1250.13 19.3409 1249.98 19.6591L1248.71 19.2045C1248.94 18.6742 1249.24 18.2614 1249.62 17.9659C1250 17.6667 1250.42 17.4583 1250.87 17.3409C1251.33 17.2197 1251.77 17.1591 1252.21 17.1591C1252.49 17.1591 1252.81 17.1932 1253.18 17.2614C1253.55 17.3258 1253.9 17.4602 1254.24 17.6648C1254.59 17.8693 1254.87 18.178 1255.1 18.5909C1255.33 19.0038 1255.44 19.5568 1255.44 20.25V26H1254.1V24.8182H1254.03C1253.94 25.0076 1253.79 25.2102 1253.58 25.4261C1253.36 25.642 1253.08 25.8258 1252.73 25.9773C1252.38 26.1288 1251.95 26.2045 1251.44 26.2045ZM1251.64 25C1252.17 25 1252.62 24.8958 1252.98 24.6875C1253.35 24.4792 1253.63 24.2102 1253.81 23.8807C1254 23.5511 1254.1 23.2045 1254.1 22.8409V21.6136C1254.04 21.6818 1253.92 21.7443 1253.72 21.8011C1253.53 21.8542 1253.31 21.9015 1253.06 21.9432C1252.82 21.9811 1252.58 22.0152 1252.34 22.0455C1252.11 22.072 1251.92 22.0947 1251.78 22.1136C1251.43 22.1591 1251.11 22.233 1250.8 22.3352C1250.5 22.4337 1250.26 22.5833 1250.08 22.7841C1249.89 22.9811 1249.8 23.25 1249.8 23.5909C1249.8 24.0568 1249.98 24.4091 1250.32 24.6477C1250.67 24.8826 1251.11 25 1251.64 25ZM1261.49 17.2727V18.4091H1256.97V17.2727H1261.49ZM1258.29 15.1818H1259.63V23.5C1259.63 23.8788 1259.68 24.1629 1259.79 24.3523C1259.9 24.5379 1260.05 24.6629 1260.22 24.7273C1260.4 24.7879 1260.59 24.8182 1260.79 24.8182C1260.93 24.8182 1261.05 24.8106 1261.15 24.7955C1261.24 24.7765 1261.32 24.7614 1261.38 24.75L1261.65 25.9545C1261.56 25.9886 1261.43 26.0227 1261.27 26.0568C1261.11 26.0947 1260.9 26.1136 1260.65 26.1136C1260.27 26.1136 1259.9 26.0322 1259.54 25.8693C1259.18 25.7064 1258.88 25.4583 1258.64 25.125C1258.4 24.7917 1258.29 24.3712 1258.29 23.8636V15.1818ZM1266.88 26.1818C1266.04 26.1818 1265.31 25.9962 1264.7 25.625C1264.1 25.25 1263.63 24.7273 1263.3 24.0568C1262.98 23.3826 1262.81 22.5985 1262.81 21.7045C1262.81 20.8106 1262.98 20.0227 1263.3 19.3409C1263.63 18.6553 1264.09 18.1212 1264.68 17.7386C1265.27 17.3523 1265.96 17.1591 1266.74 17.1591C1267.2 17.1591 1267.65 17.2348 1268.09 17.3864C1268.53 17.5379 1268.94 17.7841 1269.3 18.125C1269.66 18.4621 1269.95 18.9091 1270.17 19.4659C1270.39 20.0227 1270.49 20.7083 1270.49 21.5227V22.0909H1263.77V20.9318H1269.13C1269.13 20.4394 1269.03 20 1268.84 19.6136C1268.64 19.2273 1268.37 18.9223 1268.01 18.6989C1267.65 18.4754 1267.23 18.3636 1266.74 18.3636C1266.21 18.3636 1265.75 18.4962 1265.36 18.7614C1264.97 19.0227 1264.67 19.3636 1264.47 19.7841C1264.26 20.2045 1264.15 20.6553 1264.15 21.1364V21.9091C1264.15 22.5682 1264.27 23.1269 1264.49 23.5852C1264.73 24.0398 1265.05 24.3864 1265.45 24.625C1265.86 24.8598 1266.34 24.9773 1266.88 24.9773C1267.23 24.9773 1267.55 24.928 1267.84 24.8295C1268.12 24.7273 1268.37 24.5758 1268.58 24.375C1268.79 24.1705 1268.95 23.9167 1269.06 23.6136L1270.36 23.9773C1270.22 24.4167 1269.99 24.803 1269.67 25.1364C1269.35 25.4659 1268.95 25.7235 1268.48 25.9091C1268 26.0909 1267.47 26.1818 1266.88 26.1818ZM1275.89 26.1818C1275.07 26.1818 1274.36 25.9886 1273.77 25.6023C1273.18 25.2159 1272.73 24.6837 1272.41 24.0057C1272.09 23.3277 1271.93 22.553 1271.93 21.6818C1271.93 20.7955 1272.1 20.0133 1272.42 19.3352C1272.75 18.6534 1273.21 18.1212 1273.8 17.7386C1274.39 17.3523 1275.08 17.1591 1275.86 17.1591C1276.48 17.1591 1277.03 17.2727 1277.52 17.5C1278.02 17.7273 1278.42 18.0455 1278.73 18.4545C1279.05 18.8636 1279.24 19.3409 1279.32 19.8864H1277.98C1277.88 19.4886 1277.65 19.1364 1277.3 18.8295C1276.95 18.5189 1276.48 18.3636 1275.89 18.3636C1275.36 18.3636 1274.91 18.5 1274.51 18.7727C1274.12 19.0417 1273.82 19.4223 1273.6 19.9148C1273.38 20.4034 1273.27 20.9773 1273.27 21.6364C1273.27 22.3106 1273.38 22.8977 1273.59 23.3977C1273.81 23.8977 1274.11 24.286 1274.5 24.5625C1274.9 24.839 1275.36 24.9773 1275.89 24.9773C1276.24 24.9773 1276.55 24.9167 1276.84 24.7955C1277.12 24.6742 1277.36 24.5 1277.56 24.2727C1277.75 24.0455 1277.9 23.7727 1277.98 23.4545H1279.32C1279.24 23.9697 1279.06 24.4337 1278.76 24.8466C1278.46 25.2557 1278.07 25.5814 1277.58 25.8239C1277.1 26.0625 1276.53 26.1818 1275.89 26.1818ZM1284.63 26.1818C1283.85 26.1818 1283.15 25.9943 1282.56 25.6193C1281.97 25.2443 1281.51 24.7197 1281.17 24.0455C1280.84 23.3712 1280.68 22.5833 1280.68 21.6818C1280.68 20.7727 1280.84 19.9792 1281.17 19.3011C1281.51 18.6231 1281.97 18.0966 1282.56 17.7216C1283.15 17.3466 1283.85 17.1591 1284.63 17.1591C1285.42 17.1591 1286.11 17.3466 1286.7 17.7216C1287.3 18.0966 1287.76 18.6231 1288.09 19.3011C1288.42 19.9792 1288.59 20.7727 1288.59 21.6818C1288.59 22.5833 1288.42 23.3712 1288.09 24.0455C1287.76 24.7197 1287.3 25.2443 1286.7 25.6193C1286.11 25.9943 1285.42 26.1818 1284.63 26.1818ZM1284.63 24.9773C1285.23 24.9773 1285.72 24.8239 1286.11 24.517C1286.5 24.2102 1286.78 23.8068 1286.97 23.3068C1287.15 22.8068 1287.25 22.2652 1287.25 21.6818C1287.25 21.0985 1287.15 20.5549 1286.97 20.0511C1286.78 19.5473 1286.5 19.1402 1286.11 18.8295C1285.72 18.5189 1285.23 18.3636 1284.63 18.3636C1284.03 18.3636 1283.54 18.5189 1283.16 18.8295C1282.77 19.1402 1282.48 19.5473 1282.3 20.0511C1282.11 20.5549 1282.02 21.0985 1282.02 21.6818C1282.02 22.2652 1282.11 22.8068 1282.3 23.3068C1282.48 23.8068 1282.77 24.2102 1283.16 24.517C1283.54 24.8239 1284.03 24.9773 1284.63 24.9773ZM1293.99 26.1818C1293.2 26.1818 1292.51 25.9943 1291.91 25.6193C1291.32 25.2443 1290.86 24.7197 1290.53 24.0455C1290.2 23.3712 1290.03 22.5833 1290.03 21.6818C1290.03 20.7727 1290.2 19.9792 1290.53 19.3011C1290.86 18.6231 1291.32 18.0966 1291.91 17.7216C1292.51 17.3466 1293.2 17.1591 1293.99 17.1591C1294.78 17.1591 1295.47 17.3466 1296.06 17.7216C1296.65 18.0966 1297.11 18.6231 1297.44 19.3011C1297.78 19.9792 1297.94 20.7727 1297.94 21.6818C1297.94 22.5833 1297.78 23.3712 1297.44 24.0455C1297.11 24.7197 1296.65 25.2443 1296.06 25.6193C1295.47 25.9943 1294.78 26.1818 1293.99 26.1818ZM1293.99 24.9773C1294.59 24.9773 1295.08 24.8239 1295.47 24.517C1295.85 24.2102 1296.14 23.8068 1296.32 23.3068C1296.51 22.8068 1296.6 22.2652 1296.6 21.6818C1296.6 21.0985 1296.51 20.5549 1296.32 20.0511C1296.14 19.5473 1295.85 19.1402 1295.47 18.8295C1295.08 18.5189 1294.59 18.3636 1293.99 18.3636C1293.39 18.3636 1292.9 18.5189 1292.51 18.8295C1292.12 19.1402 1291.84 19.5473 1291.65 20.0511C1291.47 20.5549 1291.37 21.0985 1291.37 21.6818C1291.37 22.2652 1291.47 22.8068 1291.65 23.3068C1291.84 23.8068 1292.12 24.2102 1292.51 24.517C1292.9 24.8239 1293.39 24.9773 1293.99 24.9773ZM1301.05 22.8182L1301.02 21.1591H1301.3L1305.12 17.2727H1306.77L1302.71 21.3864H1302.59L1301.05 22.8182ZM1299.8 26V14.3636H1301.14V26H1299.8ZM1305.34 26L1301.93 21.6818L1302.89 20.75L1307.05 26H1305.34ZM1308.31 26V17.2727H1309.65V26H1308.31ZM1308.99 15.8182C1308.73 15.8182 1308.5 15.7292 1308.31 15.5511C1308.13 15.3731 1308.04 15.1591 1308.04 14.9091C1308.04 14.6591 1308.13 14.4451 1308.31 14.267C1308.5 14.089 1308.73 14 1308.99 14C1309.25 14 1309.48 14.089 1309.66 14.267C1309.85 14.4451 1309.94 14.6591 1309.94 14.9091C1309.94 15.1591 1309.85 15.3731 1309.66 15.5511C1309.48 15.7292 1309.25 15.8182 1308.99 15.8182ZM1315.57 26.1818C1314.73 26.1818 1314.01 25.9962 1313.4 25.625C1312.79 25.25 1312.32 24.7273 1311.99 24.0568C1311.67 23.3826 1311.5 22.5985 1311.5 21.7045C1311.5 20.8106 1311.67 20.0227 1311.99 19.3409C1312.32 18.6553 1312.78 18.1212 1313.37 17.7386C1313.96 17.3523 1314.65 17.1591 1315.44 17.1591C1315.89 17.1591 1316.34 17.2348 1316.78 17.3864C1317.23 17.5379 1317.63 17.7841 1317.99 18.125C1318.36 18.4621 1318.65 18.9091 1318.86 19.4659C1319.08 20.0227 1319.19 20.7083 1319.19 21.5227V22.0909H1312.46V20.9318H1317.82C1317.82 20.4394 1317.72 20 1317.53 19.6136C1317.33 19.2273 1317.06 18.9223 1316.7 18.6989C1316.34 18.4754 1315.92 18.3636 1315.44 18.3636C1314.9 18.3636 1314.44 18.4962 1314.05 18.7614C1313.66 19.0227 1313.37 19.3636 1313.16 19.7841C1312.95 20.2045 1312.85 20.6553 1312.85 21.1364V21.9091C1312.85 22.5682 1312.96 23.1269 1313.19 23.5852C1313.42 24.0398 1313.74 24.3864 1314.15 24.625C1314.56 24.8598 1315.03 24.9773 1315.57 24.9773C1315.92 24.9773 1316.24 24.928 1316.53 24.8295C1316.81 24.7273 1317.06 24.5758 1317.27 24.375C1317.48 24.1705 1317.64 23.9167 1317.75 23.6136L1319.05 23.9773C1318.91 24.4167 1318.68 24.803 1318.36 25.1364C1318.04 25.4659 1317.64 25.7235 1317.17 25.9091C1316.7 26.0909 1316.16 26.1818 1315.57 26.1818Z" fill="#9CA3AF"/>
<defs>
<clipPath id="clip0_2402_1574">
<rect width="40" height="24" fill="white" transform="translate(270 8)"/>
</clipPath>
<clipPath id="clip1_2402_1574">
<rect width="25.6667" height="22" fill="white" transform="translate(322 9)"/>
</clipPath>
<clipPath id="clip2_2402_1574">
<rect width="48" height="24" fill="white" transform="translate(392.667 8)"/>
</clipPath>
</defs>
</svg>
