<svg width="380" height="45" viewBox="0 0 380 45" fill="none" xmlns="http://www.w3.org/2000/svg">
<rect width="380" height="45" rx="5" fill="white"/>
<path fill-rule="evenodd" clip-rule="evenodd" d="M97.813 18.6572L102.736 17.024V17.024C102.833 16.992 102.937 16.992 103.034 17.024V17.024L107.957 18.6572C108.149 18.7209 108.27 18.8956 108.27 19.083V23.4418C108.27 24.9594 107.508 26.2828 106.341 27.432C105.178 28.578 103.769 29.386 102.885 29.8226C102.001 29.386 100.592 28.578 99.429 27.432C98.262 26.2828 97.5 24.9595 97.5 23.4418V19.083C97.5 18.8956 97.621 18.7209 97.813 18.6572ZM110.27 19.083C110.27 18.0285 109.592 17.0924 108.587 16.7589L103.664 15.1257C103.158 14.9581 102.612 14.9581 102.107 15.1257L97.183 16.7589C96.178 17.0924 95.5 18.0285 95.5 19.083V23.4418C95.5 27.9348 100.062 30.662 102.015 31.6236C102.567 31.8953 103.203 31.8953 103.755 31.6236C105.708 30.662 110.27 27.9348 110.27 23.4418V19.083ZM105.927 22.3859C106.247 22.0671 106.247 21.55 105.927 21.2311C105.607 20.9122 105.087 20.9122 104.767 21.2311L102.064 23.9201L101.004 22.8643C100.683 22.5454 100.164 22.5454 99.843 22.8643C99.523 23.1832 99.523 23.7003 99.843 24.0191L101.02 25.1904C101.597 25.7645 102.532 25.7645 103.109 25.1904L105.927 22.3859Z" fill="#88C44C"/>
<path d="M122.442 26.9528C121.645 26.9528 120.974 26.8272 120.428 26.576C119.882 26.3162 119.466 25.961 119.18 25.5106C118.903 25.0601 118.765 24.5447 118.765 23.9644H119.752C119.752 24.3282 119.839 24.6703 120.012 24.9908C120.194 25.3027 120.48 25.5582 120.87 25.7574C121.268 25.948 121.792 26.0433 122.442 26.0433C123.343 26.0433 124.01 25.8571 124.443 25.4846C124.884 25.1035 125.105 24.64 125.105 24.0943C125.105 23.6352 124.923 23.2541 124.56 22.9509C124.205 22.6391 123.667 22.4528 122.948 22.3922L121.857 22.2883C121.043 22.219 120.393 21.9678 119.908 21.5346C119.432 21.0929 119.193 20.5125 119.193 19.7936C119.193 19.2478 119.323 18.7671 119.583 18.3513C119.843 17.9269 120.211 17.5977 120.688 17.3638C121.173 17.1213 121.753 17 122.429 17C123.113 17 123.698 17.1256 124.183 17.3768C124.677 17.6194 125.053 17.9572 125.313 18.3903C125.573 18.8234 125.703 19.3258 125.703 19.8975H124.716C124.716 19.551 124.638 19.2262 124.482 18.923C124.326 18.6198 124.079 18.3773 123.741 18.1954C123.403 18.0048 122.966 17.9095 122.429 17.9095C121.909 17.9095 121.485 17.9962 121.155 18.1694C120.826 18.3426 120.579 18.5722 120.415 18.858C120.259 19.1439 120.181 19.4557 120.181 19.7936C120.181 20.2267 120.328 20.5905 120.623 20.885C120.926 21.1708 121.368 21.3354 121.948 21.3787L123.039 21.4827C124.001 21.5606 124.75 21.8335 125.287 22.3012C125.824 22.7603 126.093 23.358 126.093 24.0943C126.093 24.6487 125.941 25.1424 125.638 25.5755C125.344 26.0086 124.923 26.3465 124.378 26.589C123.832 26.8316 123.187 26.9528 122.442 26.9528Z" fill="#02142E" fill-opacity="0.75"/>
<path d="M131.112 26.9528C130.514 26.9528 129.999 26.8532 129.565 26.654C129.141 26.4461 128.79 26.1732 128.513 25.8354C128.236 25.4889 128.028 25.1035 127.889 24.679C127.759 24.2459 127.694 23.8085 127.694 23.3667V23.1848C127.694 22.743 127.764 22.3099 127.902 21.8855C128.041 21.461 128.245 21.0799 128.513 20.7421C128.79 20.4042 129.137 20.1357 129.553 19.9365C129.977 19.7286 130.471 19.6246 131.034 19.6246C131.753 19.6246 132.35 19.7849 132.827 20.1054C133.312 20.4172 133.676 20.8287 133.918 21.3398C134.161 21.8422 134.282 22.3749 134.282 22.9379V23.4447H128.63C128.647 23.9384 128.747 24.3888 128.929 24.7959C129.111 25.1944 129.384 25.5106 129.747 25.7445C130.111 25.9783 130.566 26.0953 131.112 26.0953C131.709 26.0953 132.194 25.961 132.567 25.6925C132.939 25.424 133.169 25.0991 133.256 24.718H134.165C134.026 25.4023 133.684 25.948 133.139 26.3551C132.602 26.7536 131.926 26.9528 131.112 26.9528ZM131.034 20.4822C130.332 20.4822 129.782 20.6901 129.384 21.1059C128.994 21.5217 128.756 22.05 128.669 22.691H133.334C133.273 22.0327 133.048 21.5 132.658 21.0929C132.268 20.6858 131.727 20.4822 131.034 20.4822Z" fill="#02142E" fill-opacity="0.75"/>
<path d="M139.055 26.9528C138.475 26.9528 137.968 26.8489 137.535 26.641C137.111 26.4331 136.756 26.1559 136.47 25.8094C136.184 25.4629 135.967 25.0775 135.82 24.653C135.682 24.2286 135.612 23.7998 135.612 23.3667V23.1848C135.612 22.743 135.682 22.3142 135.82 21.8985C135.967 21.474 136.184 21.0929 136.47 20.7551C136.756 20.4086 137.111 20.1357 137.535 19.9365C137.96 19.7286 138.458 19.6246 139.029 19.6246C139.601 19.6246 140.108 19.7286 140.55 19.9365C141 20.1444 141.36 20.4389 141.628 20.82C141.905 21.2012 142.074 21.6516 142.135 22.1713H141.199C141.121 21.6862 140.896 21.2878 140.524 20.9759C140.16 20.6641 139.662 20.5082 139.029 20.5082C138.484 20.5082 138.029 20.6338 137.665 20.885C137.31 21.1275 137.041 21.461 136.86 21.8855C136.678 22.3012 136.587 22.7647 136.587 23.2757C136.587 23.7868 136.678 24.2546 136.86 24.679C137.041 25.1035 137.314 25.4456 137.678 25.7055C138.042 25.9567 138.501 26.0823 139.055 26.0823C139.679 26.0823 140.19 25.9177 140.589 25.5885C140.996 25.2507 141.225 24.8479 141.277 24.3802H142.213C142.169 24.8999 142.005 25.3547 141.719 25.7445C141.433 26.1256 141.056 26.4244 140.589 26.641C140.13 26.8489 139.618 26.9528 139.055 26.9528Z" fill="#02142E" fill-opacity="0.75"/>
<path d="M146.377 26.9268C145.546 26.9268 144.913 26.6626 144.48 26.1342C144.056 25.5972 143.844 24.8523 143.844 23.8994V19.8455H144.805V24.0943C144.805 24.692 144.961 25.1684 145.273 25.5236C145.593 25.8701 146.035 26.0433 146.598 26.0433C147.187 26.0433 147.655 25.8571 148.001 25.4846C148.357 25.1121 148.534 24.614 148.534 23.9904V19.8455H149.509V26.7319H148.729V25.1598C148.582 25.7228 148.313 26.1602 147.923 26.4721C147.542 26.7752 147.04 26.9268 146.416 26.9268H146.377Z" fill="#02142E" fill-opacity="0.75"/>
<path d="M152.057 26.7319V19.8585H152.836V21.7815C153.079 20.4475 153.967 19.7806 155.5 19.7806H155.721V20.6641H155.318C154.573 20.6641 154.006 20.859 153.616 21.2488C153.226 21.6386 153.031 22.2016 153.031 22.9379V26.7319H152.057Z" fill="#02142E" fill-opacity="0.75"/>
<path d="M160.08 26.9528C159.482 26.9528 158.967 26.8532 158.534 26.654C158.109 26.4461 157.759 26.1732 157.481 25.8354C157.204 25.4889 156.996 25.1035 156.858 24.679C156.728 24.2459 156.663 23.8085 156.663 23.3667V23.1848C156.663 22.743 156.732 22.3099 156.871 21.8855C157.009 21.461 157.213 21.0799 157.481 20.7421C157.759 20.4042 158.105 20.1357 158.521 19.9365C158.945 19.7286 159.439 19.6246 160.002 19.6246C160.721 19.6246 161.319 19.7849 161.795 20.1054C162.28 20.4172 162.644 20.8287 162.887 21.3398C163.129 21.8422 163.25 22.3749 163.25 22.9379V23.4447H157.598C157.616 23.9384 157.715 24.3888 157.897 24.7959C158.079 25.1944 158.352 25.5106 158.716 25.7445C159.079 25.9783 159.534 26.0953 160.08 26.0953C160.678 26.0953 161.163 25.961 161.535 25.6925C161.908 25.424 162.137 25.0991 162.224 24.718H163.133C162.995 25.4023 162.653 25.948 162.107 26.3551C161.57 26.7536 160.894 26.9528 160.08 26.9528ZM160.002 20.4822C159.3 20.4822 158.75 20.6901 158.352 21.1059C157.962 21.5217 157.724 22.05 157.637 22.691H162.302C162.241 22.0327 162.016 21.5 161.626 21.0929C161.236 20.6858 160.695 20.4822 160.002 20.4822Z" fill="#02142E" fill-opacity="0.75"/>
<path d="M168.38 26.7319V17.2079H171.147C171.91 17.2079 172.538 17.3335 173.031 17.5847C173.534 17.8359 173.906 18.1824 174.149 18.6242C174.4 19.0659 174.525 19.5727 174.525 20.1444V20.3263C174.525 20.898 174.4 21.4047 174.149 21.8465C173.906 22.2883 173.534 22.6347 173.031 22.8859C172.538 23.1371 171.91 23.2627 171.147 23.2627H169.367V26.7319H168.38ZM171.316 18.0785H169.367V22.3922H171.316C171.827 22.3922 172.243 22.2969 172.564 22.1064C172.884 21.9158 173.122 21.6559 173.278 21.3268C173.434 20.9976 173.512 20.6338 173.512 20.2353C173.512 19.629 173.334 19.1179 172.979 18.7021C172.633 18.2863 172.078 18.0785 171.316 18.0785Z" fill="#02142E" fill-opacity="0.75"/>
<path d="M178.125 26.9138C177.389 26.9138 176.795 26.7233 176.345 26.3421C175.894 25.961 175.669 25.4153 175.669 24.705C175.669 24.012 175.903 23.4793 176.371 23.1068C176.847 22.7344 177.514 22.5481 178.372 22.5481H180.295V22.2233C180.295 21.7122 180.161 21.3224 179.892 21.0539C179.623 20.7767 179.208 20.6381 178.645 20.6381C178.255 20.6381 177.865 20.6468 177.475 20.6641C177.085 20.6814 176.752 20.7031 176.475 20.7291V19.8715C176.752 19.8455 177.051 19.8239 177.371 19.8066C177.692 19.7892 177.999 19.7806 178.294 19.7806C179.342 19.7806 180.091 19.9798 180.542 20.3783C181.001 20.768 181.23 21.4134 181.23 22.3142V26.7319H180.451V25.3287C180.295 25.8571 180.013 26.2555 179.606 26.524C179.208 26.7839 178.714 26.9138 178.125 26.9138ZM178.307 26.1342C178.627 26.1342 178.935 26.0779 179.229 25.9653C179.524 25.8441 179.771 25.6448 179.97 25.3676C180.169 25.0818 180.277 24.692 180.295 24.1983V23.2887H178.307C177.761 23.2887 177.341 23.423 177.046 23.6915C176.761 23.9514 176.618 24.2935 176.618 24.718C176.618 25.1511 176.769 25.4976 177.072 25.7574C177.376 26.0086 177.787 26.1342 178.307 26.1342Z" fill="#02142E" fill-opacity="0.75"/>
<path d="M183.041 29.4085V28.538H183.925C184.375 28.538 184.73 28.4514 184.99 28.2781C185.259 28.1049 185.471 27.7757 185.627 27.2906L185.848 26.563H185.159L182.664 19.8585H183.665L185.783 25.7445H186.107L187.939 19.8585H188.888L186.471 27.5635C186.263 28.2218 185.939 28.6939 185.497 28.9798C185.064 29.2656 184.522 29.4085 183.873 29.4085H183.041Z" fill="#02142E" fill-opacity="0.75"/>
<path d="M190.592 26.7319V19.8455H191.372V21.4307C191.519 20.8763 191.779 20.4432 192.152 20.1314C192.524 19.8109 193.018 19.6506 193.633 19.6506H193.672C194.278 19.6506 194.768 19.8066 195.14 20.1184C195.513 20.4302 195.772 20.8677 195.92 21.4307C196.076 20.8763 196.34 20.4432 196.712 20.1314C197.093 19.8109 197.587 19.6506 198.193 19.6506H198.232C199.047 19.6506 199.653 19.9278 200.051 20.4822C200.459 21.0366 200.662 21.7902 200.662 22.743V26.7319H199.688V22.5221C199.688 21.9158 199.54 21.435 199.246 21.0799C198.951 20.7247 198.527 20.5472 197.973 20.5472C197.401 20.5472 196.946 20.7334 196.608 21.1059C196.279 21.4783 196.115 21.9721 196.115 22.5871V26.7319H195.14V22.5221C195.14 21.9158 194.993 21.435 194.698 21.0799C194.404 20.7247 193.979 20.5472 193.425 20.5472C192.853 20.5472 192.398 20.7334 192.061 21.1059C191.731 21.4783 191.567 21.9721 191.567 22.5871V26.7319H190.592Z" fill="#02142E" fill-opacity="0.75"/>
<path d="M205.962 26.9528C205.365 26.9528 204.849 26.8532 204.416 26.654C203.992 26.4461 203.641 26.1732 203.364 25.8354C203.086 25.4889 202.879 25.1035 202.74 24.679C202.61 24.2459 202.545 23.8085 202.545 23.3667V23.1848C202.545 22.743 202.614 22.3099 202.753 21.8855C202.892 21.461 203.095 21.0799 203.364 20.7421C203.641 20.4042 203.987 20.1357 204.403 19.9365C204.828 19.7286 205.321 19.6246 205.884 19.6246C206.603 19.6246 207.201 19.7849 207.677 20.1054C208.162 20.4172 208.526 20.8287 208.769 21.3398C209.011 21.8422 209.133 22.3749 209.133 22.9379V23.4447H203.481C203.498 23.9384 203.598 24.3888 203.779 24.7959C203.961 25.1944 204.234 25.5106 204.598 25.7445C204.962 25.9783 205.417 26.0953 205.962 26.0953C206.56 26.0953 207.045 25.961 207.418 25.6925C207.79 25.424 208.02 25.0991 208.106 24.718H209.016C208.877 25.4023 208.535 25.948 207.989 26.3551C207.452 26.7536 206.777 26.9528 205.962 26.9528ZM205.884 20.4822C205.183 20.4822 204.633 20.6901 204.234 21.1059C203.844 21.5217 203.606 22.05 203.52 22.691H208.184C208.123 22.0327 207.898 21.5 207.508 21.0929C207.119 20.6858 206.577 20.4822 205.884 20.4822Z" fill="#02142E" fill-opacity="0.75"/>
<path d="M211.009 26.7319V19.8585H211.788V21.4567C211.944 20.885 212.221 20.4432 212.62 20.1314C213.027 19.8109 213.56 19.6506 214.218 19.6506H214.257C215.123 19.6506 215.768 19.9235 216.193 20.4692C216.617 21.0063 216.829 21.7642 216.829 22.743V26.7319H215.868V22.5351C215.868 21.9374 215.703 21.4567 215.374 21.0929C215.045 20.7291 214.586 20.5472 213.997 20.5472C213.391 20.5472 212.901 20.7377 212.529 21.1189C212.165 21.4913 211.983 21.9851 211.983 22.6001V26.7319H211.009Z" fill="#02142E" fill-opacity="0.75"/>
<path d="M221.751 26.8099C221.283 26.8099 220.872 26.7406 220.517 26.602C220.17 26.4634 219.901 26.2295 219.711 25.9004C219.52 25.5712 219.425 25.1208 219.425 24.5491V20.5991H218.191V19.8585H219.425V17.6887H220.361V19.8585H222.842V20.5991H220.361V24.692C220.361 25.0818 220.469 25.385 220.685 25.6015C220.902 25.8181 221.209 25.9264 221.608 25.9264H222.842V26.8099H221.751Z" fill="#02142E" fill-opacity="0.75"/>
<path d="M237.63 7H236.5V38.0707H237.63V7Z" fill="#CED3F6"/>
<path d="M81.6299 7H80.5V38.0707H81.6299V7Z" fill="#CED3F6"/>
<path fill-rule="evenodd" clip-rule="evenodd" d="M22.0682 18.2365C21.0689 17.4141 19.672 17.0407 18.0281 17.1564C17.2773 17.2092 15.5218 17.6037 14.6642 17.7998C13.7487 18.009 13.5007 18.5123 13.3837 19.122L13 21.1199C13 21.1199 14.7533 20.5156 15.8337 20.2507L15.0002 21.372C14.8129 21.6246 14.6712 22.0533 14.6712 22.3694V33.2392L16.1492 32.6551C16.9923 32.3469 17.3744 31.5885 17.3744 30.8448V28.2929C17.9476 28.5195 18.6662 28.617 19.4203 28.564C20.8022 28.4667 22.0086 27.8023 22.818 26.6931C23.6434 25.5615 24.0169 24.059 23.8983 22.348C23.7711 20.5145 23.1555 19.1311 22.0682 18.2365ZM53.1665 28.2626H52.0421C51.5119 28.2626 51.0176 27.9085 50.8142 27.4253C50.1707 28.1121 49.2627 28.4593 48.1061 28.4593C46.8042 28.4593 45.7233 27.9453 44.9805 26.9727C44.2523 26.0195 43.8669 24.6366 43.8669 22.9735C43.8669 21.2376 44.2464 19.7865 44.9644 18.7772C45.7142 17.7229 46.8144 17.1656 48.1448 17.1656C49.0845 17.1656 49.9818 17.5057 50.6167 18.0717V13H51.5167C52.4264 13 53.1665 13.7457 53.1665 14.6623V28.2626ZM43.1215 28.2626H41.9971C41.4669 28.2626 40.9726 27.9085 40.7692 27.4253C40.1252 28.1121 39.2177 28.4593 38.0606 28.4593C36.7592 28.4593 35.6783 27.9453 34.935 26.9727C34.2068 26.0195 33.8219 24.6366 33.8219 22.9735C33.8219 21.2376 34.2014 19.7865 34.9195 18.7773C35.6692 17.7229 36.7688 17.1656 38.0998 17.1656C39.0395 17.1656 39.9368 17.5057 40.5717 18.0717V13H41.4712C42.3814 13 43.1215 13.7457 43.1215 14.6623V28.2626ZM24.9309 20.544C24.9309 20.544 27.6985 19.3813 29.0418 19.3813C29.4003 19.3813 30.4554 19.3814 30.5606 21.0409C29.9343 21.1013 28.994 21.2464 28.0344 21.4978C25.7412 22.0878 24.4264 23.4551 24.4264 25.249C24.4264 27.0271 25.8561 28.42 27.6808 28.42C29.0611 28.42 30.0303 28.1242 30.7463 27.4718C31.0194 27.9324 31.5545 28.2628 32.0799 28.2628H33.1237V20.5557C33.1237 18.5913 31.4622 17.1668 29.1196 17.1668C29.1196 17.1668 28.877 17.1668 28.8749 17.1688C28.8749 17.1688 28.0597 17.1657 26.9085 17.4758C26.9085 17.4758 25.3205 17.8851 25.1664 18.9269C25.0124 19.9688 24.9309 20.544 24.9309 20.544ZM62.4026 26.1763C61.5337 26.1763 60.5431 25.7372 60.2425 24.7814C61.0432 24.703 62.5218 24.5361 63.8296 23.9731C65.6103 23.2072 66.5125 21.9743 66.5125 20.3087C66.5125 18.2684 65.0855 17.0983 62.5969 17.0983C61.1055 17.0983 59.7692 17.6877 58.8343 18.758C57.9332 19.7888 57.4373 21.2187 57.4373 22.7844C57.4373 26.2433 59.3248 28.3919 62.3635 28.3919C63.4395 28.3919 64.8397 28.0266 64.895 28.0119C65.6082 27.8336 66.0322 27.4038 66.1921 26.6979L66.6676 24.5978C66.6676 24.5978 64.9722 26.1763 62.4026 26.1763ZM56.7128 21.0293C56.7117 17.8964 56.7112 14.684 56.7112 14.679C56.7112 13.7984 56.0752 13.0009 55.0577 13.0009L54.1604 13.0004C54.1604 13.0004 54.162 16.6587 54.1625 20.2365C54.1636 23.3694 54.1647 26.5818 54.1647 26.5868C54.1647 27.4674 54.8001 28.2649 55.8176 28.2649L56.7144 28.2654C56.7144 28.2654 56.7133 24.6071 56.7128 21.0293ZM50.7482 22.6552C50.7482 25.0698 50.058 26.2435 48.638 26.2435C46.7113 26.2435 46.4886 24.3077 46.4886 22.8517C46.4886 21.8319 46.6866 19.4599 48.521 19.4599C50.4589 19.4599 50.7482 21.4619 50.7482 22.6552ZM40.5991 22.6552C40.5991 25.0698 39.9089 26.2435 38.4883 26.2435C36.5617 26.2435 36.339 24.3077 36.339 22.8517C36.339 21.8319 36.537 19.4599 38.3719 19.4599C40.3098 19.4599 40.5991 21.4619 40.5991 22.6552ZM30.5692 24.6987C30.5692 25.4585 29.4657 26.2043 28.3419 26.2043C27.6791 26.2043 26.9702 25.7888 26.9702 25.1703C26.9702 24.5515 27.1843 24.1236 28.2813 23.7672C29.1244 23.4831 29.8983 23.3356 30.5692 23.2376V24.6987ZM19.1535 25.9966C18.414 26.0488 17.8016 25.875 17.3744 25.4939V19.8966C17.887 19.7882 18.2632 19.721 18.4231 19.7096C20.0626 19.5941 21.0738 20.5713 21.1999 22.3901C21.2825 23.5818 20.9611 25.8691 19.1535 25.9966ZM63.9628 20.3373C63.9628 21.8239 61.8794 22.3773 59.9962 22.5737C60.0987 20.5893 61.1248 19.2795 62.613 19.2795C63.1347 19.2795 63.9628 19.5667 63.9628 20.3373Z" fill="#02142E"/>
<path d="M355.547 16.6865H348.203V29.6172H355.547V16.6865Z" fill="#F26122"/>
<path d="M348.999 23.1521C348.985 20.6579 350.15 18.2959 352.157 16.7445C348.722 14.1163 343.788 14.4979 340.823 17.6211C337.858 20.7444 337.858 25.5602 340.823 28.6835C343.788 31.8064 348.722 32.1884 352.157 29.5598C350.15 28.0087 348.985 25.6467 348.999 23.1521Z" fill="#EA1D25"/>
<path d="M365.716 23.1518C365.713 26.2728 363.882 29.1192 360.997 30.4833C358.113 31.8474 354.681 31.4906 352.157 29.5642C355.792 26.7793 356.421 21.6563 353.564 18.1163C353.154 17.6036 352.682 17.1415 352.157 16.74C354.681 14.8134 358.113 14.4564 360.997 15.8207C363.882 17.1849 365.713 20.0313 365.716 23.1518Z" fill="#F69E1E"/>
<path fill-rule="evenodd" clip-rule="evenodd" d="M284.625 25.6485C284.635 23.1276 282.551 22.0392 280.933 21.1935C279.909 20.6587 279.072 20.2213 279.072 19.5806C279.072 19.0345 279.602 18.4563 280.73 18.307C282.071 18.1747 283.424 18.409 284.641 18.9854L285.338 15.6784C284.151 15.2343 282.893 15.0047 281.625 15C277.713 15 274.994 17.0834 274.994 20.0597C274.994 22.2593 276.967 23.4829 278.459 24.2104C279.951 24.938 280.531 25.4501 280.514 26.1115C280.514 27.1367 279.288 27.5996 278.144 27.6166C276.733 27.6346 275.341 27.2935 274.099 26.6245L273.386 29.9315C274.791 30.4786 276.288 30.7536 277.796 30.7413C281.956 30.7413 284.692 28.6909 284.708 25.5162L284.625 25.6485ZM273.867 15.2655L270.552 30.5599H266.574L269.889 15.2655H273.867ZM290.543 25.1855L292.631 19.4484L293.842 25.1855H290.543ZM298.649 30.6099H294.969L294.488 28.3281H289.499L288.686 30.6099H284.509L290.46 16.439C290.734 15.7644 291.387 15.3213 292.118 15.3146H295.433L298.649 30.6099ZM261.849 30.5098L268.281 15.2154H263.971L259.844 25.6154L258.186 16.7697C258.039 15.8702 257.259 15.2117 256.346 15.2154H249.6L249.5 15.6614C250.853 15.926 252.168 16.3587 253.412 16.9511C253.942 17.1996 254.301 17.7089 254.357 18.2909L257.523 30.5098H261.849Z" fill="#02142E"/>
<path d="M324.156 19.1558L324.107 19.4587C323.433 22.8946 321.123 24.089 318.18 24.089H316.684C316.324 24.0885 316.017 24.3484 315.961 24.7023L315.196 29.5453L314.975 30.9197C314.958 31.03 314.99 31.1417 315.062 31.2263C315.135 31.3109 315.241 31.3605 315.353 31.3614H318.016C318.332 31.3614 318.6 31.1319 318.649 30.8215V30.6906L319.15 27.5249V27.3529C319.195 27.0439 319.461 26.8139 319.775 26.8129H320.211C322.784 26.8129 324.806 25.7742 325.389 22.7226C325.705 21.6797 325.511 20.5498 324.863 19.6714C324.658 19.4615 324.419 19.2876 324.156 19.1558Z" fill="#189BD7"/>
<path d="M323.449 18.8776L323.137 18.7958L322.791 18.7304C322.356 18.6654 321.916 18.6355 321.476 18.6401H317.465C317.371 18.6378 317.278 18.6574 317.193 18.6976C317.003 18.7865 316.87 18.9646 316.84 19.1721L316.018 24.5466V24.7023C316.074 24.3484 316.382 24.088 316.741 24.0885H318.237C321.18 24.0885 323.49 22.8941 324.164 19.4582L324.213 19.1558C324.037 19.0646 323.852 18.9879 323.663 18.9267L323.449 18.8776Z" fill="#242E65"/>
<path d="M316.84 19.1722C316.87 18.9651 317.003 18.7865 317.194 18.6977C317.278 18.6575 317.371 18.6379 317.465 18.6402H321.476C321.917 18.6355 322.356 18.6655 322.792 18.7304L323.137 18.7959L323.449 18.8777L323.606 18.9268C323.795 18.988 323.979 19.0647 324.156 19.1558C324.424 18.1339 324.179 17.0462 323.499 16.2353C322.677 15.3681 321.328 15 319.569 15H314.456C314.096 14.9996 313.79 15.2598 313.733 15.6136L311.604 29.0382C311.585 29.1649 311.622 29.2934 311.706 29.3906C311.789 29.4879 311.911 29.5444 312.039 29.5454H315.196L316.018 24.5472L316.84 19.1722Z" fill="#253D80"/>
</svg>
