<svg width="1369" height="274" viewBox="0 0 1369 274" fill="none" xmlns="http://www.w3.org/2000/svg">
<path d="M361.902 181.424C358.224 181.424 355.377 180.475 353.36 178.576C351.462 176.56 350.512 173.712 350.512 170.034V102.767C350.512 99.0893 351.462 96.3014 353.36 94.4032C355.258 92.505 357.927 91.5559 361.368 91.5559C364.808 91.5559 367.478 92.505 369.376 94.4032C371.274 96.3014 372.223 99.0893 372.223 102.767V113.978H370.444C372.104 106.86 375.367 101.462 380.231 97.7843C385.095 94.1066 391.561 91.9118 399.628 91.2C402.12 90.9627 404.077 91.6152 405.501 93.1575C407.043 94.5811 407.933 96.8352 408.17 99.9198C408.407 102.886 407.696 105.318 406.035 107.216C404.492 108.996 402.12 110.063 398.916 110.419L395.001 110.775C387.765 111.487 382.307 113.741 378.629 117.537C374.952 121.215 373.113 126.435 373.113 133.198V170.034C373.113 173.712 372.164 176.56 370.266 178.576C368.367 180.475 365.579 181.424 361.902 181.424ZM461.697 181.78C451.851 181.78 443.368 179.941 436.25 176.263C429.131 172.585 423.615 167.365 419.7 160.603C415.903 153.84 414.005 145.832 414.005 136.579C414.005 127.562 415.844 119.673 419.522 112.911C423.318 106.148 428.479 100.869 435.004 97.0725C441.648 93.1575 449.181 91.2 457.604 91.2C463.774 91.2 469.29 92.2084 474.154 94.2252C479.137 96.242 483.349 99.1487 486.789 102.945C490.348 106.741 493.018 111.368 494.797 116.826C496.695 122.164 497.645 128.215 497.645 134.977C497.645 137.113 496.873 138.774 495.331 139.96C493.907 141.028 491.831 141.562 489.103 141.562H431.979V128.749H481.984L479.137 131.418C479.137 125.961 478.307 121.393 476.646 117.715C475.103 114.038 472.79 111.25 469.705 109.351C466.739 107.335 463.002 106.326 458.494 106.326C453.511 106.326 449.24 107.513 445.681 109.885C442.241 112.139 439.572 115.402 437.673 119.673C435.894 123.825 435.004 128.808 435.004 134.621V135.867C435.004 145.595 437.258 152.891 441.766 157.756C446.393 162.501 453.156 164.874 462.053 164.874C465.138 164.874 468.578 164.518 472.375 163.806C476.29 162.976 479.968 161.611 483.408 159.713C485.899 158.289 488.094 157.696 489.992 157.933C491.891 158.052 493.374 158.705 494.441 159.891C495.628 161.077 496.34 162.56 496.577 164.34C496.814 166.001 496.458 167.721 495.509 169.501C494.679 171.28 493.196 172.822 491.06 174.127C486.908 176.737 482.103 178.695 476.646 180C471.307 181.186 466.324 181.78 461.697 181.78ZM549.106 181.424C546.14 181.424 543.53 180.653 541.276 179.11C539.14 177.568 537.361 175.195 535.937 171.992L507.642 106.326C506.574 103.716 506.159 101.284 506.396 99.03C506.752 96.7759 507.82 94.9963 509.6 93.6913C511.498 92.2677 514.048 91.5559 517.252 91.5559C519.98 91.5559 522.175 92.2084 523.836 93.5134C525.497 94.6998 526.98 97.0132 528.285 100.454L552.309 160.425H546.97L571.706 100.276C573.011 96.9539 574.494 94.6998 576.155 93.5134C577.935 92.2084 580.307 91.5559 583.273 91.5559C585.883 91.5559 587.96 92.2677 589.502 93.6913C591.044 94.9963 591.993 96.7759 592.349 99.03C592.705 101.165 592.29 103.538 591.103 106.148L562.275 171.992C560.97 175.195 559.19 177.568 556.936 179.11C554.8 180.653 552.19 181.424 549.106 181.424ZM634.628 181.78C628.34 181.78 622.704 180.593 617.722 178.22C612.858 175.729 609.002 172.407 606.155 168.255C603.426 164.103 602.062 159.416 602.062 154.196C602.062 147.79 603.723 142.748 607.044 139.07C610.366 135.274 615.764 132.545 623.238 130.884C630.713 129.223 640.737 128.393 653.313 128.393H662.211V141.206H653.491C646.135 141.206 640.263 141.562 635.873 142.273C631.484 142.985 628.34 144.231 626.442 146.01C624.662 147.671 623.772 150.044 623.772 153.129C623.772 157.044 625.137 160.247 627.865 162.738C630.594 165.23 634.39 166.475 639.254 166.475C643.169 166.475 646.61 165.586 649.576 163.806C652.66 161.908 655.092 159.357 656.872 156.154C658.652 152.951 659.541 149.273 659.541 145.121V124.656C659.541 118.724 658.236 114.453 655.626 111.843C653.016 109.233 648.627 107.928 642.458 107.928C639.017 107.928 635.28 108.343 631.246 109.174C627.331 110.004 623.179 111.428 618.789 113.444C616.535 114.512 614.519 114.809 612.739 114.334C611.078 113.86 609.773 112.911 608.824 111.487C607.875 109.945 607.4 108.284 607.4 106.504C607.4 104.725 607.875 103.004 608.824 101.343C609.773 99.5639 611.375 98.2589 613.629 97.4284C619.086 95.1743 624.306 93.5727 629.289 92.6236C634.39 91.6745 639.017 91.2 643.169 91.2C651.711 91.2 658.711 92.505 664.168 95.115C669.744 97.725 673.896 101.699 676.625 107.038C679.354 112.258 680.718 119.02 680.718 127.325V170.034C680.718 173.712 679.828 176.56 678.049 178.576C676.269 180.475 673.719 181.424 670.397 181.424C667.075 181.424 664.465 180.475 662.567 178.576C660.787 176.56 659.897 173.712 659.897 170.034V161.493H661.321C660.49 165.645 658.83 169.263 656.338 172.348C653.965 175.314 650.94 177.627 647.262 179.288C643.585 180.949 639.373 181.78 634.628 181.78ZM743.87 213.812C737.464 213.812 731.235 213.218 725.185 212.032C719.253 210.846 713.855 209.007 708.991 206.515C706.737 205.329 705.195 203.905 704.364 202.244C703.652 200.584 703.415 198.863 703.652 197.084C704.008 195.423 704.72 193.94 705.788 192.635C706.974 191.33 708.398 190.44 710.059 189.966C711.72 189.491 713.44 189.728 715.219 190.677C720.439 193.287 725.363 194.948 729.99 195.66C734.735 196.491 738.769 196.906 742.091 196.906C750.039 196.906 755.971 194.948 759.886 191.033C763.92 187.237 765.937 181.542 765.937 173.949V157.933H767.538C765.759 163.984 762.022 168.848 756.327 172.526C750.751 176.085 744.404 177.865 737.286 177.865C729.456 177.865 722.634 176.085 716.821 172.526C711.008 168.848 706.5 163.747 703.296 157.222C700.093 150.697 698.492 143.104 698.492 134.443C698.492 127.918 699.381 122.046 701.161 116.826C703.059 111.487 705.669 106.919 708.991 103.123C712.431 99.3266 716.524 96.42 721.27 94.4032C726.134 92.2677 731.473 91.2 737.286 91.2C744.641 91.2 751.048 93.0388 756.505 96.7166C762.081 100.276 765.7 105.021 767.36 110.953L765.581 115.402V102.767C765.581 99.0893 766.53 96.3014 768.428 94.4032C770.445 92.505 773.174 91.5559 776.614 91.5559C780.173 91.5559 782.902 92.505 784.8 94.4032C786.698 96.3014 787.647 99.0893 787.647 102.767V171.28C787.647 185.398 783.91 196.016 776.436 203.134C768.962 210.253 758.107 213.812 743.87 213.812ZM743.336 160.959C747.963 160.959 751.938 159.891 755.259 157.756C758.581 155.62 761.132 152.595 762.912 148.68C764.81 144.646 765.759 139.901 765.759 134.443C765.759 126.257 763.742 119.851 759.708 115.224C755.675 110.479 750.217 108.106 743.336 108.106C738.71 108.106 734.735 109.174 731.413 111.309C728.092 113.444 725.482 116.47 723.583 120.385C721.804 124.3 720.914 128.986 720.914 134.443C720.914 142.629 722.931 149.095 726.964 153.84C730.998 158.586 736.455 160.959 743.336 160.959ZM822.085 181.424C818.407 181.424 815.56 180.475 813.543 178.576C811.645 176.56 810.696 173.712 810.696 170.034V102.767C810.696 99.0893 811.645 96.3014 813.543 94.4032C815.441 92.505 818.11 91.5559 821.551 91.5559C824.991 91.5559 827.661 92.505 829.559 94.4032C831.457 96.3014 832.406 99.0893 832.406 102.767V113.978H830.627C832.288 106.86 835.55 101.462 840.414 97.7843C845.278 94.1066 851.744 91.9118 859.811 91.2C862.303 90.9627 864.26 91.6152 865.684 93.1575C867.226 94.5811 868.116 96.8352 868.353 99.9198C868.591 102.886 867.879 105.318 866.218 107.216C864.676 108.996 862.303 110.063 859.1 110.419L855.185 110.775C847.948 111.487 842.49 113.741 838.813 117.537C835.135 121.215 833.296 126.435 833.296 133.198V170.034C833.296 173.712 832.347 176.56 830.449 178.576C828.55 180.475 825.762 181.424 822.085 181.424ZM918.677 181.78C909.661 181.78 901.831 179.941 895.187 176.263C888.543 172.585 883.383 167.365 879.705 160.603C876.027 153.722 874.188 145.654 874.188 136.401C874.188 129.401 875.197 123.173 877.214 117.715C879.349 112.139 882.374 107.394 886.289 103.479C890.204 99.4453 894.891 96.42 900.348 94.4032C905.805 92.2677 911.915 91.2 918.677 91.2C927.694 91.2 935.524 93.0388 942.167 96.7166C948.811 100.394 953.972 105.614 957.65 112.377C961.327 119.139 963.166 127.147 963.166 136.401C963.166 143.4 962.099 149.688 959.963 155.264C957.946 160.84 954.98 165.645 951.065 169.679C947.15 173.594 942.464 176.619 937.007 178.754C931.549 180.771 925.44 181.78 918.677 181.78ZM918.677 164.874C923.067 164.874 926.923 163.806 930.244 161.671C933.566 159.535 936.117 156.391 937.897 152.239C939.795 147.968 940.744 142.689 940.744 136.401C940.744 126.91 938.727 119.851 934.693 115.224C930.66 110.479 925.321 108.106 918.677 108.106C914.288 108.106 910.432 109.174 907.11 111.309C903.788 113.326 901.178 116.47 899.28 120.741C897.501 124.893 896.611 130.113 896.611 136.401C896.611 145.773 898.628 152.891 902.661 157.756C906.695 162.501 912.034 164.874 918.677 164.874ZM1013.02 181.78C1005.79 181.78 999.797 180.475 995.051 177.865C990.306 175.136 986.746 171.102 984.374 165.764C982.12 160.425 980.993 153.781 980.993 145.832V102.767C980.993 98.9707 981.942 96.1827 983.84 94.4032C985.738 92.505 988.467 91.5559 992.026 91.5559C995.585 91.5559 998.314 92.505 1000.21 94.4032C1002.23 96.1827 1003.24 98.9707 1003.24 102.767V146.188C1003.24 152.358 1004.48 156.925 1006.97 159.891C1009.47 162.857 1013.44 164.34 1018.9 164.34C1024.83 164.34 1029.69 162.323 1033.49 158.289C1037.29 154.137 1039.18 148.68 1039.18 141.917V102.767C1039.18 98.9707 1040.13 96.1827 1042.03 94.4032C1043.93 92.505 1046.66 91.5559 1050.22 91.5559C1053.78 91.5559 1056.51 92.505 1058.4 94.4032C1060.42 96.1827 1061.43 98.9707 1061.43 102.767V170.034C1061.43 177.627 1057.81 181.424 1050.57 181.424C1047.13 181.424 1044.46 180.475 1042.57 178.576C1040.67 176.56 1039.72 173.712 1039.72 170.034V156.51L1042.21 161.848C1039.72 168.255 1035.92 173.178 1030.82 176.619C1025.84 180.059 1019.91 181.78 1013.02 181.78ZM1095.61 213.456C1092.06 213.456 1089.33 212.507 1087.43 210.608C1085.53 208.71 1084.58 205.922 1084.58 202.244V102.767C1084.58 99.0893 1085.53 96.3014 1087.43 94.4032C1089.33 92.505 1092 91.5559 1095.44 91.5559C1099 91.5559 1101.72 92.505 1103.62 94.4032C1105.52 96.3014 1106.47 99.0893 1106.47 102.767V116.648L1104.51 111.309C1106.29 105.258 1109.91 100.394 1115.37 96.7166C1120.94 93.0388 1127.41 91.2 1134.76 91.2C1142.36 91.2 1149 93.0388 1154.7 96.7166C1160.51 100.394 1165.02 105.614 1168.22 112.377C1171.42 119.02 1173.03 127.028 1173.03 136.401C1173.03 145.654 1171.42 153.722 1168.22 160.603C1165.02 167.365 1160.57 172.585 1154.87 176.263C1149.18 179.941 1142.48 181.78 1134.76 181.78C1127.53 181.78 1121.18 180 1115.72 176.441C1110.27 172.763 1106.59 168.018 1104.69 162.204H1106.83V202.244C1106.83 205.922 1105.82 208.71 1103.8 210.608C1101.9 212.507 1099.17 213.456 1095.61 213.456ZM1128.54 164.874C1132.93 164.874 1136.78 163.806 1140.1 161.671C1143.43 159.535 1145.98 156.391 1147.76 152.239C1149.65 147.968 1150.6 142.689 1150.6 136.401C1150.6 126.91 1148.59 119.851 1144.55 115.224C1140.52 110.479 1135.18 108.106 1128.54 108.106C1124.15 108.106 1120.29 109.174 1116.97 111.309C1113.65 113.326 1111.04 116.47 1109.14 120.741C1107.36 124.893 1106.47 130.113 1106.47 136.401C1106.47 145.773 1108.49 152.891 1112.52 157.756C1116.55 162.501 1121.89 164.874 1128.54 164.874ZM1198.66 180.89C1194.63 180.89 1191.36 179.644 1188.87 177.153C1186.5 174.661 1185.31 171.458 1185.31 167.543C1185.31 163.747 1186.5 160.662 1188.87 158.289C1191.36 155.798 1194.63 154.552 1198.66 154.552C1202.81 154.552 1206.02 155.798 1208.27 158.289C1210.64 160.662 1211.83 163.747 1211.83 167.543C1211.83 171.458 1210.64 174.661 1208.27 177.153C1206.02 179.644 1202.81 180.89 1198.66 180.89ZM1243.16 181.246C1239.6 181.246 1236.87 180.178 1234.97 178.042C1233.07 175.907 1232.12 172.941 1232.12 169.145V103.835C1232.12 99.9198 1233.07 96.9539 1234.97 94.937C1236.87 92.8016 1239.6 91.7338 1243.16 91.7338C1246.72 91.7338 1249.45 92.8016 1251.34 94.937C1253.36 96.9539 1254.37 99.9198 1254.37 103.835V169.145C1254.37 172.941 1253.42 175.907 1251.52 178.042C1249.62 180.178 1246.84 181.246 1243.16 181.246ZM1243.16 75.1839C1239.01 75.1839 1235.74 74.1755 1233.37 72.1587C1231.12 70.0232 1229.99 67.1166 1229.99 63.4388C1229.99 59.6424 1231.12 56.7358 1233.37 54.719C1235.74 52.7021 1239.01 51.6937 1243.16 51.6937C1247.43 51.6937 1250.69 52.7021 1252.95 54.719C1255.2 56.7358 1256.33 59.6424 1256.33 63.4388C1256.33 67.1166 1255.2 70.0232 1252.95 72.1587C1250.69 74.1755 1247.43 75.1839 1243.16 75.1839ZM1317.17 181.78C1308.15 181.78 1300.32 179.941 1293.68 176.263C1287.03 172.585 1281.87 167.365 1278.19 160.603C1274.52 153.722 1272.68 145.654 1272.68 136.401C1272.68 129.401 1273.69 123.173 1275.7 117.715C1277.84 112.139 1280.86 107.394 1284.78 103.479C1288.69 99.4453 1293.38 96.42 1298.84 94.4032C1304.29 92.2677 1310.4 91.2 1317.17 91.2C1326.18 91.2 1334.01 93.0388 1340.66 96.7166C1347.3 100.394 1352.46 105.614 1356.14 112.377C1359.82 119.139 1361.66 127.147 1361.66 136.401C1361.66 143.4 1360.59 149.688 1358.45 155.264C1356.44 160.84 1353.47 165.645 1349.55 169.679C1345.64 173.594 1340.95 176.619 1335.5 178.754C1330.04 180.771 1323.93 181.78 1317.17 181.78ZM1317.17 164.874C1321.56 164.874 1325.41 163.806 1328.73 161.671C1332.06 159.535 1334.61 156.391 1336.39 152.239C1338.28 147.968 1339.23 142.689 1339.23 136.401C1339.23 126.91 1337.22 119.851 1333.18 115.224C1329.15 110.479 1323.81 108.106 1317.17 108.106C1312.78 108.106 1308.92 109.174 1305.6 111.309C1302.28 113.326 1299.67 116.47 1297.77 120.741C1295.99 124.893 1295.1 130.113 1295.1 136.401C1295.1 145.773 1297.12 152.891 1301.15 157.756C1305.18 162.501 1310.52 164.874 1317.17 164.874Z" fill="#1D194A"/>
<path d="M228.59 273.85H42.52C19.03 273.85 0 254.81 0 231.33V45.25C0 21.76 19.04 2.72998 42.52 2.72998H228.59C252.08 2.72998 271.11 21.77 271.11 45.25V231.32C271.12 254.81 252.08 273.85 228.59 273.85Z" fill="#1D194A"/>
<path d="M233.6 178.13H131.04C123.43 178.13 117.27 171.96 117.27 164.36C117.27 156.75 123.44 150.59 131.04 150.59H233.6C241.21 150.59 247.37 156.76 247.37 164.36C247.38 171.96 241.21 178.13 233.6 178.13Z" fill="#E8AAD2"/>
<path d="M145.12 163.92C145.16 163.56 145.21 163.2 145.26 162.84C145.09 164.1 144.92 165.36 144.75 166.62C145.77 159.14 147.73 151.81 150.65 144.84C150.17 145.97 149.69 147.11 149.22 148.24C151.74 142.28 154.94 136.63 158.89 131.5C158.15 132.46 157.41 133.42 156.66 134.38C159.81 130.33 163.41 126.66 167.47 123.52C166.51 124.26 165.55 125 164.59 125.75C168.09 123.08 171.88 120.85 175.93 119.14C174.8 119.62 173.66 120.1 172.53 120.57C177.2 118.64 182.15 117.46 187.15 116.77C185.89 116.94 184.63 117.11 183.37 117.28C188.28 116.64 193.24 116.57 198.16 117.2C196.9 117.03 195.64 116.86 194.38 116.69C198.73 117.28 202.97 118.41 207.01 120.11C205.88 119.63 204.74 119.15 203.61 118.68C207.25 120.24 210.67 122.23 213.8 124.64C212.84 123.9 211.88 123.16 210.92 122.42C213.75 124.62 216.31 127.14 218.51 129.96C217.77 129 217.03 128.04 216.28 127.08C217.9 129.18 219.31 131.44 220.35 133.89C219.87 132.76 219.39 131.62 218.92 130.49C219.07 130.85 219.21 131.22 219.35 131.59C220.63 135.13 222.55 138.14 225.89 140.09C228.94 141.87 233.44 142.63 236.85 141.52C240.29 140.41 243.62 138.27 245.35 134.98C247.06 131.75 248.08 127.59 246.78 124.02C243.75 115.66 238.42 108.15 231.44 102.61C227.2 99.2397 222.94 96.2497 217.95 94.0997C214.72 92.7097 211.5 91.3597 208.1 90.4597C204.51 89.5097 200.8 89.0197 197.11 88.6097C190.3 87.8497 183.45 88.5597 176.73 89.7597C170.11 90.9497 163.74 93.2097 157.77 96.3197C146.43 102.23 137.18 111.93 130.42 122.67C126.57 128.8 123.59 135.55 121.23 142.38C118.81 149.39 117.54 156.57 116.64 163.92C116.23 167.28 118.53 171.7 120.81 173.98C123.28 176.45 127.33 178.31 130.87 178.15C134.55 177.99 138.37 176.78 140.93 173.98C141.67 173.02 142.41 172.06 143.16 171.1C144.47 168.88 145.12 166.49 145.12 163.92Z" fill="#7CCD8C"/>
<path d="M50.4695 165.18C50.4295 163.15 50.5495 161.13 50.8095 159.12C50.6395 160.38 50.4695 161.64 50.2995 162.9C50.7895 159.38 51.7395 155.96 53.1095 152.69C52.6295 153.82 52.1495 154.96 51.6795 156.09C53.1595 152.61 55.0795 149.36 57.3695 146.36C56.6295 147.32 55.8895 148.28 55.1395 149.24C57.6895 145.94 60.6495 143 63.9495 140.45C62.9895 141.19 62.0295 141.93 61.0695 142.67C64.4395 140.09 68.1095 137.95 72.0195 136.28C70.8895 136.76 69.7495 137.24 68.6195 137.71C72.6195 136.03 76.7995 134.88 81.0895 134.27C79.8295 134.44 78.5695 134.61 77.3095 134.78C81.7295 134.19 86.1795 134.21 90.5895 134.8C89.3295 134.63 88.0695 134.46 86.8095 134.29C91.2195 134.91 95.5195 136.09 99.6195 137.82C98.4895 137.34 97.3495 136.86 96.2195 136.39C100.08 138.05 103.71 140.17 107.03 142.73C106.07 141.99 105.11 141.25 104.15 140.5C107.2 142.89 109.95 145.62 112.33 148.68C111.59 147.72 110.85 146.76 110.1 145.8C112.29 148.66 114.12 151.76 115.53 155.07C115.05 153.94 114.57 152.8 114.1 151.67C115.45 154.91 116.38 158.28 116.85 161.76C116.68 160.5 116.51 159.24 116.34 157.98C116.58 159.87 116.68 161.77 116.66 163.67C116.61 167.29 118.28 171.19 120.83 173.73C123.3 176.2 127.35 178.06 130.89 177.9C134.57 177.74 138.39 176.53 140.95 173.73C143.53 170.92 145.06 167.54 145.12 163.67C145.2 157.84 144.33 151.74 142.37 146.23C141.23 143.04 139.9 139.87 138.26 136.9C136.61 133.91 134.55 131.25 132.45 128.56C125.2 119.27 114.69 112.77 103.62 109.03C97.7395 107.04 91.3795 106.07 85.1895 105.9C79.1095 105.73 72.8195 106.55 66.9595 108.19C61.1695 109.82 55.4195 112.3 50.3295 115.54C45.4395 118.65 40.7495 122.4 36.9195 126.77C34.4395 129.6 32.1095 132.62 30.1295 135.82C28.1495 139.04 26.6595 142.52 25.2795 146.03C22.9195 152.02 21.8795 158.75 21.9995 165.17C22.0695 168.86 23.5395 172.61 26.1695 175.23C28.6395 177.7 32.6895 179.56 36.2295 179.4C39.9095 179.24 43.7295 178.03 46.2895 175.23C48.8395 172.49 50.5395 169.01 50.4695 165.18Z" fill="#DD6D40"/>
<path d="M129.64 125.43C128.07 124.11 116.05 114.4 99.4398 117.53C82.9998 120.63 75.3598 133.81 74.3398 135.63C76.2198 135.1 91.1599 131.17 104.04 140.76C112.81 147.29 115.74 156.68 116.51 159.66" fill="#EDC05C"/>
<path d="M50.27 165.58C50.27 173.33 43.99 179.61 36.24 179.61C28.49 179.61 22.75 173.33 22.75 165.58C22.75 157.83 28.49 151.55 36.24 151.55C43.98 151.55 50.27 157.83 50.27 165.58Z" fill="#E8AAD2"/>
<path d="M145.6 161.81C146.5 156.73 149.84 141.67 163.23 129.03C175.29 117.64 186.47 116.74 192.2 116.7C188.9 114.7 177.55 104.32 160.15 107.27C142.04 110.34 131.47 121.92 129.17 124.83C132.2 127.36 137.31 133.42 141.44 140.71C145.63 149.65 145.79 157.76 145.6 161.81Z" fill="#4F6F73"/>
<path d="M129.17 124.83C132.99 128.12 139.39 134.51 143.23 145.03C146.28 153.37 145.58 161.32 145.27 163.46C144.75 167.05 144.15 170.66 141.17 173.8C137.79 177.36 132.89 178.07 132.62 178.11C132.23 178.17 131.55 178.27 130.65 178.26C125.58 178.25 122.04 175.12 121.4 174.56C121.19 174.37 121.02 174.22 120.91 174.1C120.71 173.91 119.02 172.25 117.86 169.88C116.91 167.92 113.63 161.97 121.21 142.64C122.81 138.53 125.46 131.47 129.17 124.83Z" fill="white"/>
<path d="M233.079 142.65C240.977 142.65 247.379 136.247 247.379 128.35C247.379 120.452 240.977 114.05 233.079 114.05C225.182 114.05 218.779 120.452 218.779 128.35C218.779 136.247 225.182 142.65 233.079 142.65Z" fill="#EDC15C"/>
<path d="M234.759 177.949C242.27 177.949 248.359 171.861 248.359 164.349C248.359 156.838 242.27 150.75 234.759 150.75C227.248 150.75 221.159 156.838 221.159 164.349C221.159 171.861 227.248 177.949 234.759 177.949Z" fill="#DC6D3F"/>
</svg>
