<svg width="199" height="42" viewBox="0 0 199 42" fill="none" xmlns="http://www.w3.org/2000/svg">
<path d="M5.2478 36.7349H36.7348" stroke="#36B344" stroke-width="2.99876" stroke-linecap="round" stroke-linejoin="round"/>
<path d="M8.74634 36.7349V8.74648C8.74634 7.81861 9.11493 6.92873 9.77104 6.27263C10.4271 5.61652 11.317 5.24792 12.2449 5.24792H29.7377C30.6656 5.24792 31.5554 5.61652 32.2115 6.27263C32.8676 6.92873 33.2362 7.81861 33.2362 8.74648V36.7349" stroke="#36B344" stroke-width="2.99876" stroke-linecap="round" stroke-linejoin="round"/>
<path d="M15.7437 36.7349V29.7378C15.7437 28.8099 16.1122 27.9201 16.7684 27.264C17.4245 26.6079 18.3143 26.2393 19.2422 26.2393H22.7408C23.6686 26.2393 24.5585 26.6079 25.2146 27.264C25.8707 27.9201 26.2393 28.8099 26.2393 29.7378V36.7349" stroke="#36B344" stroke-width="2.99876" stroke-linecap="round" stroke-linejoin="round"/>
<path d="M17.4927 15.7435H24.4898" stroke="#36B344" stroke-width="2.99876" stroke-linecap="round" stroke-linejoin="round"/>
<path d="M20.9915 12.245V19.2421" stroke="#36B344" stroke-width="2.99876" stroke-linecap="round" stroke-linejoin="round"/>
<path d="M62.7834 11.4513C63.2474 11.4513 63.6154 11.5953 63.8874 11.8833C64.1594 12.1553 64.2954 12.5233 64.2954 12.9873V27.0753C64.2954 27.5393 64.1514 27.9153 63.8634 28.2033C63.5914 28.4913 63.2314 28.6353 62.7834 28.6353C62.3194 28.6353 61.9514 28.4913 61.6794 28.2033C61.4074 27.9153 61.2714 27.5393 61.2714 27.0753V21.1473H52.6074V27.0753C52.6074 27.5393 52.4634 27.9153 52.1754 28.2033C51.9034 28.4913 51.5354 28.6353 51.0714 28.6353C50.6234 28.6353 50.2554 28.4913 49.9674 28.2033C49.6954 27.9153 49.5594 27.5393 49.5594 27.0753V12.9873C49.5594 12.5233 49.6954 12.1553 49.9674 11.8833C50.2394 11.5953 50.6074 11.4513 51.0714 11.4513C51.5354 11.4513 51.9034 11.5953 52.1754 11.8833C52.4634 12.1553 52.6074 12.5233 52.6074 12.9873V18.6513H61.2714V12.9873C61.2714 12.5233 61.4074 12.1553 61.6794 11.8833C61.9514 11.5953 62.3194 11.4513 62.7834 11.4513ZM72.2784 16.4673C73.9104 16.4673 75.1184 16.8753 75.9024 17.6913C76.7024 18.4913 77.1024 19.7153 77.1024 21.3633V27.2193C77.1024 27.6513 76.9744 27.9953 76.7184 28.2513C76.4624 28.4913 76.1104 28.6113 75.6624 28.6113C75.2464 28.6113 74.9024 28.4833 74.6304 28.2273C74.3744 27.9713 74.2464 27.6353 74.2464 27.2193V26.6913C73.9744 27.3153 73.5424 27.8033 72.9504 28.1553C72.3744 28.5073 71.7024 28.6833 70.9344 28.6833C70.1504 28.6833 69.4384 28.5233 68.7984 28.2033C68.1584 27.8833 67.6544 27.4433 67.2864 26.8833C66.9184 26.3233 66.7344 25.6993 66.7344 25.0113C66.7344 24.1473 66.9504 23.4673 67.3824 22.9713C67.8304 22.4753 68.5504 22.1153 69.5424 21.8913C70.5344 21.6673 71.9024 21.5553 73.6464 21.5553H74.2464V21.0033C74.2464 20.2193 74.0784 19.6513 73.7424 19.2993C73.4064 18.9313 72.8624 18.7473 72.1104 18.7473C71.6464 18.7473 71.1744 18.8193 70.6944 18.9633C70.2144 19.0913 69.6464 19.2833 68.9904 19.5393C68.5744 19.7473 68.2704 19.8513 68.0784 19.8513C67.7904 19.8513 67.5504 19.7473 67.3584 19.5393C67.1824 19.3313 67.0944 19.0593 67.0944 18.7233C67.0944 18.4513 67.1584 18.2193 67.2864 18.0273C67.4304 17.8193 67.6624 17.6273 67.9824 17.4513C68.5424 17.1473 69.2064 16.9073 69.9744 16.7313C70.7584 16.5553 71.5264 16.4673 72.2784 16.4673ZM71.5344 26.5233C72.3344 26.5233 72.9824 26.2593 73.4784 25.7313C73.9904 25.1873 74.2464 24.4913 74.2464 23.6433V23.1393H73.8144C72.7424 23.1393 71.9104 23.1873 71.3184 23.2833C70.7264 23.3793 70.3024 23.5473 70.0464 23.7873C69.7904 24.0273 69.6624 24.3553 69.6624 24.7713C69.6624 25.2833 69.8384 25.7073 70.1904 26.0433C70.5584 26.3633 71.0064 26.5233 71.5344 26.5233ZM83.9193 28.6833C82.1753 28.6833 80.7673 28.3393 79.6953 27.6513C79.1833 27.3473 78.9273 26.9153 78.9273 26.3553C78.9273 26.0353 79.0153 25.7793 79.1913 25.5873C79.3673 25.3793 79.5833 25.2753 79.8393 25.2753C80.1113 25.2753 80.4873 25.4033 80.9673 25.6593C81.4793 25.8993 81.9433 26.0833 82.3593 26.2113C82.7913 26.3393 83.3353 26.4033 83.9913 26.4033C84.6633 26.4033 85.1833 26.2913 85.5513 26.0673C85.9353 25.8433 86.1273 25.5313 86.1273 25.1313C86.1273 24.8593 86.0473 24.6433 85.8873 24.4833C85.7433 24.3233 85.4713 24.1793 85.0713 24.0513C84.6873 23.9073 84.0953 23.7473 83.2953 23.5713C81.8713 23.2833 80.8473 22.8753 80.2233 22.3473C79.6153 21.8193 79.3113 21.0913 79.3113 20.1633C79.3113 19.4593 79.5193 18.8273 79.9353 18.2673C80.3513 17.6913 80.9193 17.2513 81.6393 16.9473C82.3753 16.6273 83.2073 16.4673 84.1353 16.4673C84.8073 16.4673 85.4553 16.5553 86.0793 16.7313C86.7033 16.8913 87.2633 17.1313 87.7593 17.4513C88.2713 17.7713 88.5273 18.1953 88.5273 18.7233C88.5273 19.0433 88.4393 19.3153 88.2633 19.5393C88.0873 19.7473 87.8713 19.8513 87.6153 19.8513C87.4393 19.8513 87.2633 19.8193 87.0873 19.7553C86.9273 19.6753 86.7193 19.5633 86.4633 19.4193C85.9993 19.1793 85.5993 19.0033 85.2633 18.8913C84.9273 18.7633 84.5113 18.6993 84.0153 18.6993C83.4233 18.6993 82.9513 18.8193 82.5993 19.0593C82.2633 19.2993 82.0953 19.6273 82.0953 20.0433C82.0953 20.4433 82.2713 20.7473 82.6233 20.9553C82.9753 21.1633 83.6553 21.3713 84.6633 21.5793C85.7353 21.8033 86.5753 22.0593 87.1833 22.3473C87.7913 22.6353 88.2233 22.9953 88.4793 23.4273C88.7513 23.8593 88.8873 24.4113 88.8873 25.0833C88.8873 26.1713 88.4313 27.0433 87.5193 27.6993C86.6233 28.3553 85.4233 28.6833 83.9193 28.6833ZM97.7037 16.4673C100.456 16.4673 101.832 18.0753 101.832 21.2913V27.1953C101.832 27.6433 101.696 27.9953 101.424 28.2513C101.168 28.5073 100.808 28.6353 100.344 28.6353C99.8797 28.6353 99.5117 28.5073 99.2397 28.2513C98.9677 27.9953 98.8317 27.6433 98.8317 27.1953V21.2913C98.8317 20.4433 98.6557 19.8273 98.3037 19.4433C97.9677 19.0433 97.4317 18.8433 96.6957 18.8433C95.8317 18.8433 95.1357 19.1153 94.6077 19.6593C94.0957 20.2033 93.8397 20.9313 93.8397 21.8433V27.1953C93.8397 27.6433 93.7037 27.9953 93.4317 28.2513C93.1597 28.5073 92.7917 28.6353 92.3277 28.6353C91.8637 28.6353 91.4957 28.5073 91.2237 28.2513C90.9677 27.9953 90.8397 27.6433 90.8397 27.1953V12.8433C90.8397 12.4273 90.9757 12.0913 91.2477 11.8353C91.5357 11.5793 91.9037 11.4513 92.3517 11.4513C92.7997 11.4513 93.1597 11.5713 93.4317 11.8113C93.7037 12.0513 93.8397 12.3793 93.8397 12.7953V18.3873C94.2397 17.7633 94.7677 17.2913 95.4237 16.9713C96.0957 16.6353 96.8557 16.4673 97.7037 16.4673ZM111.143 16.4673C112.151 16.4673 113.047 16.7233 113.831 17.2353C114.631 17.7473 115.247 18.4753 115.679 19.4193C116.127 20.3473 116.351 21.4193 116.351 22.6353C116.351 23.8513 116.127 24.9153 115.679 25.8273C115.247 26.7393 114.639 27.4433 113.855 27.9393C113.071 28.4353 112.167 28.6833 111.143 28.6833C110.311 28.6833 109.567 28.5073 108.911 28.1553C108.255 27.8033 107.751 27.3153 107.399 26.6913V31.5873C107.399 32.0033 107.263 32.3313 106.991 32.5713C106.719 32.8113 106.359 32.9313 105.911 32.9313C105.463 32.9313 105.095 32.8033 104.807 32.5473C104.535 32.2913 104.399 31.9553 104.399 31.5393V17.9313C104.399 17.4993 104.527 17.1553 104.783 16.8993C105.055 16.6433 105.415 16.5153 105.863 16.5153C106.311 16.5153 106.671 16.6433 106.943 16.8993C107.215 17.1553 107.351 17.4993 107.351 17.9313V18.5313C107.703 17.8753 108.207 17.3713 108.863 17.0193C109.535 16.6513 110.295 16.4673 111.143 16.4673ZM110.351 26.3553C111.295 26.3553 112.031 26.0353 112.559 25.3953C113.087 24.7393 113.351 23.8193 113.351 22.6353C113.351 21.4193 113.087 20.4753 112.559 19.8033C112.031 19.1313 111.295 18.7953 110.351 18.7953C109.391 18.7953 108.647 19.1233 108.119 19.7793C107.607 20.4353 107.351 21.3713 107.351 22.5873C107.351 23.7873 107.607 24.7153 108.119 25.3713C108.647 26.0273 109.391 26.3553 110.351 26.3553ZM123.421 16.4673C125.053 16.4673 126.261 16.8753 127.045 17.6913C127.845 18.4913 128.245 19.7153 128.245 21.3633V27.2193C128.245 27.6513 128.117 27.9953 127.861 28.2513C127.605 28.4913 127.253 28.6113 126.805 28.6113C126.389 28.6113 126.045 28.4833 125.773 28.2273C125.517 27.9713 125.389 27.6353 125.389 27.2193V26.6913C125.117 27.3153 124.685 27.8033 124.093 28.1553C123.517 28.5073 122.845 28.6833 122.077 28.6833C121.293 28.6833 120.581 28.5233 119.941 28.2033C119.301 27.8833 118.797 27.4433 118.429 26.8833C118.061 26.3233 117.877 25.6993 117.877 25.0113C117.877 24.1473 118.093 23.4673 118.525 22.9713C118.973 22.4753 119.693 22.1153 120.685 21.8913C121.677 21.6673 123.045 21.5553 124.789 21.5553H125.389V21.0033C125.389 20.2193 125.221 19.6513 124.885 19.2993C124.549 18.9313 124.005 18.7473 123.253 18.7473C122.789 18.7473 122.317 18.8193 121.837 18.9633C121.357 19.0913 120.789 19.2833 120.133 19.5393C119.717 19.7473 119.413 19.8513 119.221 19.8513C118.933 19.8513 118.693 19.7473 118.501 19.5393C118.325 19.3313 118.237 19.0593 118.237 18.7233C118.237 18.4513 118.301 18.2193 118.429 18.0273C118.573 17.8193 118.805 17.6273 119.125 17.4513C119.685 17.1473 120.349 16.9073 121.117 16.7313C121.901 16.5553 122.669 16.4673 123.421 16.4673ZM122.677 26.5233C123.477 26.5233 124.125 26.2593 124.621 25.7313C125.133 25.1873 125.389 24.4913 125.389 23.6433V23.1393H124.957C123.885 23.1393 123.053 23.1873 122.461 23.2833C121.869 23.3793 121.445 23.5473 121.189 23.7873C120.933 24.0273 120.805 24.3553 120.805 24.7713C120.805 25.2833 120.981 25.7073 121.333 26.0433C121.701 26.3633 122.149 26.5233 122.677 26.5233ZM136.91 26.4033C137.71 26.4513 138.11 26.8113 138.11 27.4833C138.11 27.8673 137.95 28.1633 137.63 28.3713C137.326 28.5633 136.886 28.6433 136.31 28.6113L135.662 28.5633C132.974 28.3713 131.63 26.9313 131.63 24.2433V19.0113H130.43C129.998 19.0113 129.662 18.9153 129.422 18.7233C129.198 18.5313 129.086 18.2513 129.086 17.8833C129.086 17.5153 129.198 17.2353 129.422 17.0433C129.662 16.8513 129.998 16.7553 130.43 16.7553H131.63V14.5473C131.63 14.1153 131.766 13.7713 132.038 13.5153C132.31 13.2593 132.678 13.1313 133.142 13.1313C133.59 13.1313 133.95 13.2593 134.222 13.5153C134.494 13.7713 134.63 14.1153 134.63 14.5473V16.7553H136.67C137.102 16.7553 137.43 16.8513 137.654 17.0433C137.894 17.2353 138.014 17.5153 138.014 17.8833C138.014 18.2513 137.894 18.5313 137.654 18.7233C137.43 18.9153 137.102 19.0113 136.67 19.0113H134.63V24.4593C134.63 25.6433 135.174 26.2753 136.262 26.3553L136.91 26.4033ZM144.281 16.4673C145.913 16.4673 147.121 16.8753 147.905 17.6913C148.705 18.4913 149.105 19.7153 149.105 21.3633V27.2193C149.105 27.6513 148.977 27.9953 148.721 28.2513C148.465 28.4913 148.113 28.6113 147.665 28.6113C147.249 28.6113 146.905 28.4833 146.633 28.2273C146.377 27.9713 146.249 27.6353 146.249 27.2193V26.6913C145.977 27.3153 145.545 27.8033 144.953 28.1553C144.377 28.5073 143.705 28.6833 142.937 28.6833C142.153 28.6833 141.441 28.5233 140.801 28.2033C140.161 27.8833 139.657 27.4433 139.289 26.8833C138.921 26.3233 138.737 25.6993 138.737 25.0113C138.737 24.1473 138.953 23.4673 139.385 22.9713C139.833 22.4753 140.553 22.1153 141.545 21.8913C142.537 21.6673 143.905 21.5553 145.649 21.5553H146.249V21.0033C146.249 20.2193 146.081 19.6513 145.745 19.2993C145.409 18.9313 144.865 18.7473 144.113 18.7473C143.649 18.7473 143.177 18.8193 142.697 18.9633C142.217 19.0913 141.649 19.2833 140.993 19.5393C140.577 19.7473 140.273 19.8513 140.081 19.8513C139.793 19.8513 139.553 19.7473 139.361 19.5393C139.185 19.3313 139.097 19.0593 139.097 18.7233C139.097 18.4513 139.161 18.2193 139.289 18.0273C139.433 17.8193 139.665 17.6273 139.985 17.4513C140.545 17.1473 141.209 16.9073 141.977 16.7313C142.761 16.5553 143.529 16.4673 144.281 16.4673ZM143.537 26.5233C144.337 26.5233 144.985 26.2593 145.481 25.7313C145.993 25.1873 146.249 24.4913 146.249 23.6433V23.1393H145.817C144.745 23.1393 143.913 23.1873 143.321 23.2833C142.729 23.3793 142.305 23.5473 142.049 23.7873C141.793 24.0273 141.665 24.3553 141.665 24.7713C141.665 25.2833 141.841 25.7073 142.193 26.0433C142.561 26.3633 143.009 26.5233 143.537 26.5233ZM153.162 28.6353C152.73 28.6353 152.37 28.5153 152.082 28.2753C151.81 28.0193 151.674 27.6593 151.674 27.1953V12.8673C151.674 12.4033 151.81 12.0513 152.082 11.8113C152.37 11.5713 152.73 11.4513 153.162 11.4513C153.594 11.4513 153.954 11.5713 154.242 11.8113C154.53 12.0513 154.674 12.4033 154.674 12.8673V27.1953C154.674 27.6593 154.53 28.0193 154.242 28.2753C153.954 28.5153 153.594 28.6353 153.162 28.6353ZM170.067 16.4673C171.075 16.4673 171.971 16.7233 172.755 17.2353C173.555 17.7473 174.171 18.4753 174.603 19.4193C175.051 20.3473 175.275 21.4193 175.275 22.6353C175.275 23.8513 175.051 24.9153 174.603 25.8273C174.171 26.7393 173.563 27.4433 172.779 27.9393C171.995 28.4353 171.091 28.6833 170.067 28.6833C169.235 28.6833 168.491 28.5073 167.835 28.1553C167.179 27.8033 166.675 27.3153 166.323 26.6913V31.5873C166.323 32.0033 166.187 32.3313 165.915 32.5713C165.643 32.8113 165.283 32.9313 164.835 32.9313C164.387 32.9313 164.019 32.8033 163.731 32.5473C163.459 32.2913 163.323 31.9553 163.323 31.5393V17.9313C163.323 17.4993 163.451 17.1553 163.707 16.8993C163.979 16.6433 164.339 16.5153 164.787 16.5153C165.235 16.5153 165.595 16.6433 165.867 16.8993C166.139 17.1553 166.275 17.4993 166.275 17.9313V18.5313C166.627 17.8753 167.131 17.3713 167.787 17.0193C168.459 16.6513 169.219 16.4673 170.067 16.4673ZM169.275 26.3553C170.219 26.3553 170.955 26.0353 171.483 25.3953C172.011 24.7393 172.275 23.8193 172.275 22.6353C172.275 21.4193 172.011 20.4753 171.483 19.8033C170.955 19.1313 170.219 18.7953 169.275 18.7953C168.315 18.7953 167.571 19.1233 167.043 19.7793C166.531 20.4353 166.275 21.3713 166.275 22.5873C166.275 23.7873 166.531 24.7153 167.043 25.3713C167.571 26.0273 168.315 26.3553 169.275 26.3553ZM183.81 16.5153C184.226 16.4833 184.554 16.5713 184.794 16.7793C185.034 16.9873 185.154 17.2993 185.154 17.7153C185.154 18.1473 185.05 18.4673 184.842 18.6753C184.634 18.8833 184.258 19.0193 183.714 19.0833L182.994 19.1553C182.05 19.2513 181.354 19.5713 180.906 20.1153C180.474 20.6593 180.258 21.3393 180.258 22.1553V27.1953C180.258 27.6593 180.114 28.0193 179.826 28.2753C179.538 28.5153 179.178 28.6353 178.746 28.6353C178.314 28.6353 177.954 28.5153 177.666 28.2753C177.394 28.0193 177.258 27.6593 177.258 27.1953V17.9073C177.258 17.4593 177.394 17.1153 177.666 16.8753C177.954 16.6353 178.306 16.5153 178.722 16.5153C179.138 16.5153 179.474 16.6353 179.73 16.8753C179.986 17.0993 180.114 17.4273 180.114 17.8593V18.8193C180.418 18.1153 180.866 17.5713 181.458 17.1873C182.066 16.8033 182.738 16.5873 183.474 16.5393L183.81 16.5153ZM191.083 28.6833C189.883 28.6833 188.827 28.4353 187.915 27.9393C187.019 27.4433 186.323 26.7313 185.827 25.8033C185.331 24.8753 185.083 23.7953 185.083 22.5633C185.083 21.3313 185.331 20.2593 185.827 19.3473C186.323 18.4193 187.019 17.7073 187.915 17.2113C188.827 16.7153 189.883 16.4673 191.083 16.4673C192.283 16.4673 193.331 16.7153 194.227 17.2113C195.139 17.7073 195.835 18.4193 196.315 19.3473C196.811 20.2593 197.059 21.3313 197.059 22.5633C197.059 23.7953 196.811 24.8753 196.315 25.8033C195.835 26.7313 195.139 27.4433 194.227 27.9393C193.331 28.4353 192.283 28.6833 191.083 28.6833ZM191.059 26.3553C192.035 26.3553 192.779 26.0353 193.291 25.3953C193.803 24.7553 194.059 23.8113 194.059 22.5633C194.059 21.3313 193.803 20.3953 193.291 19.7553C192.779 19.0993 192.043 18.7713 191.083 18.7713C190.123 18.7713 189.379 19.0993 188.851 19.7553C188.339 20.3953 188.083 21.3313 188.083 22.5633C188.083 23.8113 188.339 24.7553 188.851 25.3953C189.363 26.0353 190.099 26.3553 191.059 26.3553Z" fill="white"/>
</svg>
