<svg width="1000" height="169" viewBox="0 0 1000 169" fill="none" xmlns="http://www.w3.org/2000/svg">
<g clip-path="url(#clip0_1_4)">
<path d="M83.992 168.731V135.917C118.782 135.917 145.619 101.616 132.206 65.3181C129.765 58.581 125.873 52.4626 120.807 47.3957C115.74 42.3289 109.621 38.4375 102.884 35.9968C95.0649 33.0566 86.6508 32.0497 78.3585 33.062C70.0663 34.0743 62.1415 37.0757 55.2591 41.8106C48.3767 46.5455 42.7407 52.8737 38.831 60.2562C34.9213 67.6386 32.8537 75.8567 32.8044 84.2104H0C0 29.5197 53.1836 -13.7337 111.327 4.17044C123.822 8.09524 135.184 14.9818 144.444 24.2437C153.704 33.5055 160.589 44.8682 164.511 57.3641C182.405 115.538 139.162 168.731 83.992 168.731Z" fill="#0080FF"/>
<path d="M84.4913 135.917H51.6869V103.602H84.4913M51.6869 161.276H26.8366V135.917H51.6869V161.276ZM26.8366 135.917H5.98828V115.039H26.8366M299.701 48.911C290.26 42.4439 277.835 38.9309 263.912 38.9309H233.603V135.877H263.922C277.841 135.877 289.771 132.397 299.711 125.438C305.14 121.488 309.427 116.172 312.136 110.029C315.13 103.562 316.607 95.6076 316.607 87.1545C316.607 78.7014 315.12 70.7473 312.136 64.7792C309.142 57.3641 305.17 52.394 299.701 48.911V48.911ZM251.497 55.378H260.938C271.377 55.378 280.32 57.3741 287.276 61.8451C294.731 66.3162 298.254 74.8192 298.254 87.2044C298.254 99.5896 294.262 108.582 287.276 113.552C280.819 117.544 272.366 120.019 261.427 120.019H251.497V55.378ZM337.974 37.4838C336.593 37.4469 335.219 37.6936 333.937 38.2085C332.654 38.7235 331.491 39.4958 330.519 40.4778C329.387 41.3531 328.48 42.4863 327.874 43.7831C327.268 45.0799 326.981 46.5027 327.036 47.9329C327.036 50.7016 328.136 53.3568 330.094 55.3145C332.051 57.2722 334.707 58.3721 337.475 58.3721C340.244 58.3721 342.899 57.2722 344.857 55.3145C346.815 53.3568 347.914 50.7016 347.914 47.9329C347.951 46.5517 347.704 45.1777 347.189 43.8956C346.674 42.6134 345.902 41.4503 344.92 40.4778C343.433 38.4818 340.928 37.4838 337.934 37.4838M328.952 67.3142H346.348V135.428H329.022V67.3142M408.543 73.3022C403.553 68.8311 397.565 65.8471 391.148 65.8471C386.767 65.7506 382.417 66.5911 378.388 68.3123C374.359 70.0334 370.743 72.5956 367.785 75.8272C361.577 82.4029 358.188 91.1466 358.344 100.188C358.344 109.64 361.338 118.083 367.326 124.55C373.314 131.017 381.238 134.001 390.689 134.001C396.771 134.096 402.713 132.173 407.585 128.532V130.019C407.585 135.488 406.098 139.999 403.114 142.993C400.13 145.987 396.128 147.464 390.689 147.464C382.705 147.464 377.765 144.47 371.807 136.027L359.831 147.464L360.33 147.963C362.815 151.446 366.787 154.949 371.757 158.402C376.727 161.855 383.184 163.392 390.639 163.392C401.078 163.392 409.032 160.398 414.99 153.941C420.948 147.484 424.431 139.52 424.431 129.081V67.3142H407.555V73.3022H408.553M404.082 113.572C401.088 117.055 397.096 118.562 392.106 118.562C387.116 118.562 383.124 117.075 380.13 113.572C377.136 110.069 375.659 105.588 375.659 100.149C375.659 94.7094 377.246 90.1784 380.24 86.6954C383.234 83.2124 387.226 81.7054 392.216 81.7054C397.206 81.7054 401.198 83.1924 404.192 86.6954C407.186 90.1984 408.663 94.6794 408.663 100.119C408.663 105.558 407.176 110.099 404.192 113.542M440.469 67.3042H457.864V135.418H440.359V67.3142M448.813 37.4838C447.432 37.4496 446.06 37.6962 444.778 38.2087C443.496 38.7212 442.331 39.4889 441.355 40.4652C440.379 41.4414 439.611 42.6059 439.098 43.8879C438.586 45.1699 438.339 46.5427 438.373 47.923C438.373 50.6916 439.473 53.3468 441.431 55.3045C443.389 57.2622 446.044 58.3621 448.813 58.3621C451.581 58.3621 454.236 57.2622 456.194 55.3045C458.152 53.3468 459.252 50.6916 459.252 47.923C459.286 46.5419 459.039 45.1682 458.526 43.8855C458.013 42.6028 457.244 41.4379 456.267 40.4615C455.29 39.4851 454.124 38.7176 452.841 38.2057C451.558 37.6938 450.184 37.4482 448.803 37.4838M495.01 48.911H478.134V67.3142H468.154V82.7234H478.134V111.067C478.134 120.049 480.13 126.476 483.603 129.959C487.076 133.442 493.583 135.428 501.996 135.428C504.823 135.51 507.652 135.343 510.449 134.929H511.447V119.51L505.459 120.009C501.467 120.009 498.473 119.51 497.475 118.013C495.988 116.526 495.479 113.542 495.479 109.031V83.2224H511.387V67.8032H495.529L495.01 48.911ZM591.427 38.9309H608.823V135.877H591.447V38.9908M782.306 111.576C779.764 114.515 776.932 117.19 773.853 119.56C771.145 121.201 768.036 122.061 764.87 122.045C762.539 122.024 760.237 121.524 758.108 120.574C755.979 119.625 754.068 118.247 752.495 116.526C749.012 112.534 747.505 108.073 747.505 102.105C747.505 96.1365 748.992 91.6655 752.495 87.6834C754.005 85.876 755.912 84.4419 758.067 83.4932C760.222 82.5445 762.568 82.1068 764.92 82.2144C770.389 82.2144 776.347 85.6974 781.318 91.6655L792.745 80.6874C785.29 71.2363 775.848 66.7653 764.411 66.7653C754.97 66.7653 747.016 70.2483 740.06 77.2044C733.55 84.0305 729.969 93.1319 730.08 102.564C730.08 112.544 733.563 121.456 740.06 127.923C743.151 131.284 746.92 133.953 751.117 135.752C755.314 137.551 759.845 138.441 764.411 138.362C776.837 138.362 786.777 132.893 793.733 122.953L782.306 111.516M852.385 77.2144C849.77 73.7691 846.341 71.0259 842.405 69.2303C837.895 67.1412 832.964 66.1168 827.994 66.2363C818.553 66.2363 810.599 69.7194 804.631 76.6755C798.983 83.906 795.998 92.8614 796.178 102.035C796.178 112.474 799.172 120.927 805.619 127.394C812.066 133.861 820.03 137.374 830.469 137.374C841.896 137.374 851.348 132.903 858.803 123.452L859.302 122.953L847.874 111.975C846.876 113.462 845.389 114.46 843.882 115.967C842.472 117.453 840.774 118.638 838.892 119.45C836.307 120.866 833.386 121.556 830.439 121.446C826.111 121.509 821.889 120.101 818.463 117.454C815.469 114.969 813.992 111.466 813.473 107.015H859.202V100.548C859.313 96.1387 858.637 91.7452 857.206 87.5737C856.479 83.7191 854.759 80.1209 852.216 77.1345M815.11 93.1625C815.87 90.1536 817.413 87.3992 819.581 85.1784C820.755 84.0076 822.16 83.0935 823.706 82.4939C825.252 81.8944 826.906 81.6225 828.563 81.6954C832.555 81.6954 836.018 82.6934 838.004 85.1784C840 87.1745 840.998 90.1685 841.487 93.1625H815.11M918.493 72.7733C913.503 68.3022 906.068 66.3062 897.126 66.3062C891.657 66.4611 886.267 67.6462 881.238 69.7992C876.767 72.2842 872.256 75.7872 869.811 80.7772L880.789 91.2164C885.26 83.7613 890.23 81.2363 897.186 81.2363C900.438 81.1501 903.618 82.2099 906.168 84.2303C907.3 85.1056 908.207 86.2388 908.813 87.5356C909.419 88.8324 909.706 90.2552 909.651 91.6854V95.1685C905.649 93.8182 901.45 93.1436 897.226 93.1725C888.776 93.1725 881.817 95.1685 876.347 99.1605C870.878 103.152 868.363 109.141 868.363 116.067C868.363 122.534 870.359 127.504 874.821 131.476C879.282 135.448 884.801 136.945 891.218 136.945C897.635 136.945 903.643 134.46 909.611 129.959V135.428H926.507V91.6755C926.507 83.6914 924.022 77.2543 918.523 72.7832M888.204 109.57C890.2 108.083 892.675 107.574 896.188 107.574C900.599 107.722 904.96 108.561 909.112 110.059V116.526C904.998 120.145 899.68 122.096 894.202 121.995C891.208 121.995 888.733 121.496 887.216 119.999C885.699 118.502 884.731 117.005 884.731 115.009C884.906 113.907 885.306 112.854 885.905 111.913C886.504 110.972 887.29 110.165 888.214 109.54M992.545 73.7713C987.555 68.3022 981.118 65.7872 972.665 65.7872C965.705 65.7872 960.24 67.7832 956.268 71.7752V67.7832H939.361V135.897H956.757V98.1325C956.757 93.1425 957.755 88.6814 960.24 85.7074C961.456 84.2554 962.987 83.0986 964.716 82.3241C966.444 81.5496 968.326 81.1777 970.22 81.2363C971.925 81.1533 973.625 81.4711 975.185 82.1644C976.745 82.8577 978.121 83.9071 979.202 85.2283C981.536 88.4063 982.76 92.264 982.685 96.2064V135.977H1000V96.1465C999.501 86.6987 997.016 79.2403 992.545 73.7713M570.08 72.7733C565.09 68.3022 557.655 66.3062 548.713 66.3062C543.238 66.4555 537.841 67.6372 532.805 69.7892C528.334 72.2743 523.823 75.7772 521.377 80.7673L532.355 91.2064C536.827 83.7513 541.797 81.2263 548.753 81.2263C552.005 81.1401 555.184 82.1999 557.735 84.2204C558.867 85.0956 559.774 86.2288 560.38 87.5256C560.986 88.8224 561.273 90.2452 561.218 91.6755V95.1585C557.216 93.8082 553.016 93.1336 548.793 93.1625C540.343 93.1625 533.383 95.1585 527.914 99.1505C522.445 103.143 519.93 109.131 519.93 116.057C519.93 122.524 521.926 127.494 526.387 131.466C530.849 135.438 536.367 136.935 542.785 136.935C549.202 136.935 555.21 134.45 561.178 129.949V135.418H578.074V91.6755C578.074 83.6914 575.08 77.2543 570.09 72.7832M539.272 109.57C541.268 108.083 543.743 107.574 547.256 107.574C551.667 107.722 556.028 108.561 560.18 110.059V116.526C556.066 120.145 550.748 122.096 545.27 121.995C542.276 121.995 539.801 121.496 538.284 119.999C536.767 118.502 535.799 117.005 535.799 115.009C536.541 112.951 537.731 111.083 539.282 109.54M671.018 137.384C661.183 137.388 651.569 134.475 643.389 129.014C635.21 123.553 628.834 115.789 625.068 106.705C621.302 97.6196 620.314 87.6219 622.231 77.9757C624.147 68.3296 628.881 59.4683 635.833 52.5128C642.786 45.5572 651.645 40.8198 661.291 38.8997C670.936 36.9796 680.934 37.9631 690.021 41.7258C699.107 45.4884 706.874 51.8612 712.338 60.0381C717.802 68.2151 720.719 77.8288 720.719 87.6635C720.671 100.832 715.421 113.448 706.111 122.762C696.801 132.076 684.187 137.331 671.018 137.384M671.018 54.8591C664.626 54.8492 658.374 56.7356 653.053 60.2795C647.733 63.8235 643.583 68.8659 641.129 74.7687C638.675 80.6715 638.027 87.1696 639.266 93.4409C640.506 99.7122 643.578 105.475 648.093 110C652.609 114.525 658.365 117.61 664.633 118.863C670.902 120.116 677.401 119.482 683.309 117.04C689.218 114.599 694.269 110.46 697.824 105.148C701.38 99.8349 703.28 93.5871 703.284 87.1944C703.293 82.949 702.464 78.7435 700.843 74.8193C699.223 70.8951 696.844 67.3295 693.843 64.327C690.841 61.3245 687.276 58.9443 683.353 57.323C679.429 55.7017 675.224 54.8711 670.978 54.879" fill="#0080FF"/>
</g>
<defs>
<clipPath id="clip0_1_4">
<rect width="1000" height="168.8" fill="white"/>
</clipPath>
</defs>
</svg>
