<svg width="1000" height="513" viewBox="0 0 1000 513" fill="none" xmlns="http://www.w3.org/2000/svg">
<g clip-path="url(#clip0_1_32)">
<path fill-rule="evenodd" clip-rule="evenodd" d="M0 467.31H32.8459V337.933L83.4943 450.761C89.5071 464.292 97.5373 469.058 113.581 469.058C129.63 469.058 137.655 464.292 143.668 450.761L194.316 337.933V467.31H226.909V338.18C226.909 325.648 221.891 319.619 211.613 316.359C186.792 308.588 169.989 315.359 162.47 332.161L112.828 443.236L64.6915 332.161C57.4199 315.359 40.3704 308.588 15.5491 316.359C5.0182 319.619 0.00562175 325.643 0.00562175 338.18V467.31H0V467.31ZM254.237 361.995H286.83V433.205C286.582 437.212 288.083 446.243 306.138 446.495C315.163 446.737 376.59 446.495 377.09 446.495V361.742H409.936C410.183 361.742 409.936 477.324 409.936 477.83C410.183 506.41 374.583 512.423 358.287 512.929H254.99V490.867C254.99 490.867 358.04 491.12 358.287 490.867C379.349 488.861 376.842 478.335 376.842 474.823V466.293H307.391C275.046 465.798 254.484 451.75 254.237 435.453C254.237 433.953 254.99 362.754 254.237 361.995V361.995ZM958.526 280.007C938.476 279.507 923.174 281.26 909.884 287.026C906.13 288.532 900.359 288.532 899.612 293.297C901.618 295.292 902.112 298.557 903.618 301.322C906.878 306.34 912.149 313.1 916.908 316.612C921.927 320.63 927.192 324.637 932.705 328.149C942.736 334.162 953.767 337.421 963.039 343.451C968.81 346.952 974.323 351.476 979.841 355.482C982.342 357.488 984.353 360.5 987.613 361.748V361.253C985.859 358.994 985.354 355.735 983.848 353.218L976.329 345.699C969.063 336.174 959.779 327.643 949.996 320.63C942.224 315.112 924.675 307.34 921.415 298.315C921.162 298.062 920.91 298.062 920.91 297.81C926.428 297.051 932.952 295.056 937.965 293.792C946.495 291.544 954.261 292.038 963.033 289.785C967.051 288.526 971.058 287.526 975.076 286.273V284.014C970.563 279.501 967.557 273.236 962.544 269.223C949.76 258.192 935.711 247.408 921.421 238.383C913.396 233.118 903.618 229.859 895.099 225.599C892.334 224.346 887.316 223.593 885.321 221.087C880.798 215.568 878.55 208.297 875.038 201.778C867.682 187.478 860.826 172.926 854.482 158.149C850.222 148.371 847.204 138.593 841.95 129.562C815.87 86.9384 788.037 61.1169 744.666 35.7899C735.394 30.5245 724.362 28.2711 712.573 25.5119C706.307 25.0061 700.041 24.7589 693.77 24.2531C690.005 22.7471 685.998 17.9874 682.233 15.7284C667.943 6.70348 631.085 -13.1052 620.548 12.9692C613.777 29.2657 630.579 45.3149 636.592 53.5924C640.863 59.358 646.117 65.8822 649.134 72.3952C651.129 76.6548 651.382 80.92 653.141 85.4324C657.401 96.7163 660.913 109.001 666.178 119.279C668.932 124.544 671.938 130.062 675.45 134.828C677.457 137.587 681.222 138.84 681.716 143.352C678.204 148.365 677.962 155.89 675.956 162.155C667.179 190.489 670.438 225.341 683.475 246.397C687.493 252.663 696.765 266.453 709.808 261.193C721.092 256.428 718.58 242.385 721.839 229.6C722.598 226.841 722.092 224.835 723.593 222.829V223.329C726.852 230.348 730.364 237.119 733.876 243.885C741.395 256.175 754.938 269.212 766.475 277.731C772.235 282.244 777 290.021 784.772 292.522V292.016H784.024C782.518 289.768 780.259 288.762 778.506 287.003C773.994 282.491 768.981 276.972 765.216 271.96C754.944 257.917 745.666 242.373 737.141 226.324C733.123 218.552 729.611 210.028 726.363 202.256C725.099 199.249 725.099 194.737 722.345 192.978C718.58 198.744 713.326 203.509 710.303 210.28C705.79 221.064 705.043 234.349 703.542 247.892C702.531 248.392 702.784 248.139 702.278 248.645C694.265 246.639 691.5 238.361 688.493 231.342C681.227 213.54 679.716 184.959 686.234 164.397C687.988 159.132 695.771 142.583 692.511 137.57C690.994 132.805 686.234 129.798 683.481 126.039C679.969 121.526 676.709 115.508 674.209 110.242C668.196 96.1993 665.431 80.6559 658.907 66.6184C655.647 59.8469 650.641 53.0754 646.375 47.3098C641.61 40.5384 636.345 35.7787 632.591 27.7541C631.338 24.9949 629.584 20.4824 631.338 17.4704C632.085 15.4642 632.844 14.7112 634.839 13.9582C638.098 11.4519 647.381 14.9641 650.882 16.2116C659.913 20.2239 667.684 23.7361 675.456 29.0016C679.221 31.5079 682.986 36.2676 687.499 37.5263H692.517C700.541 39.2796 709.561 38.0265 717.08 40.2855C730.37 44.2922 742.401 50.5635 753.19 57.5879C786.284 78.3968 813.117 107.983 831.667 143.336C834.673 149.101 835.926 154.367 838.438 160.385C843.709 172.675 850.469 185.206 855.735 196.99C860.753 209.027 866.018 221.064 873.284 230.837C877.302 236.102 892.34 238.861 899.112 241.615C903.877 243.621 911.643 245.874 916.167 248.639C924.939 253.652 933.211 259.923 941.488 265.689C945.489 268.476 958.021 274.742 958.526 280.007V280.007Z" fill="#00678C"/>
<path fill-rule="evenodd" clip-rule="evenodd" d="M435.263 467.31H529.282C540.313 467.31 551.091 465.051 559.616 461.033C573.654 454.526 580.678 445.743 580.678 434.211V410.143C580.678 400.871 572.653 391.846 557.368 386.075C549.091 382.816 539.06 381.31 529.282 381.31H489.671C476.38 381.31 470.115 377.292 468.609 368.525C468.356 367.525 468.356 366.519 468.356 365.519V350.723C468.356 349.722 468.356 348.969 468.609 347.969C470.115 341.198 473.621 339.192 485.158 338.191C486.158 338.191 487.411 337.938 488.417 337.938H581.937V316.129H489.923C476.633 316.129 469.862 317.129 463.596 318.883C444.04 325.148 435.516 334.679 435.516 351.481V370.537C435.516 385.333 452.312 397.865 480.145 400.871C483.405 400.871 486.411 401.124 489.671 401.124H523.522C524.775 401.124 526.023 401.124 527.023 401.377C537.56 402.377 541.819 404.13 545.079 407.884C546.832 409.89 547.591 411.649 547.591 413.908V432.964C547.591 435.223 546.084 438.235 542.825 440.736C540.06 443.247 535.295 444.754 529.029 445.248C527.776 445.248 526.782 445.501 525.517 445.501H435.263V467.31ZM784.772 429.188C784.772 451.755 801.321 464.287 835.173 466.799C838.18 467.052 841.439 467.304 844.445 467.304H929.693V445.484H843.94C824.631 445.484 817.365 440.719 817.365 429.188V316.118H784.766V429.188H784.772ZM601.493 430.441V352.723C601.493 332.915 615.277 320.883 642.858 317.118C645.622 316.612 648.882 316.612 651.635 316.612H713.809C716.816 316.612 719.58 316.612 722.84 317.118C750.167 320.883 764.205 332.915 764.205 352.723V430.441C764.205 446.496 758.192 455.015 744.649 460.533L776.995 489.619H738.889L712.809 466.299L686.476 467.805H651.63C645.617 467.805 639.345 467.057 632.321 465.051C611.523 459.527 601.493 448.496 601.493 430.441V430.441ZM636.845 428.446C636.845 429.699 637.098 430.694 637.35 431.958C639.357 440.977 647.876 445.995 660.66 445.995H690.505L663.178 421.421H701.283L725.099 442.736C729.37 440.477 732.376 436.965 733.376 432.452C733.629 431.199 733.629 430.205 733.629 429.193V354.482C733.629 353.724 733.629 352.729 733.376 351.717C731.37 343.198 722.851 338.439 710.308 338.439H660.666C646.123 338.439 636.85 344.704 636.85 354.482V428.446H636.845V428.446ZM944.742 467.31H949.507V449.255H956.026V445.49H938.223V449.255H944.742V467.31ZM981.347 467.31H985.607V445.49H979.088L973.328 460.539L967.568 445.49H960.797V467.31H965.309V450.761L971.575 467.31H974.834L981.1 450.761H981.353V467.31H981.347Z" fill="#CE8B2C"/>
<path fill-rule="evenodd" clip-rule="evenodd" d="M19.8088 264.463L1.50049 179.716H10.7783L21.3092 235.377C22.5623 241.143 23.5682 246.908 24.3212 252.674L27.5805 236.877L40.8706 179.71H51.6487L61.6795 222.587C64.1858 233.118 65.9391 243.143 67.1922 252.674C67.9453 247.161 69.1984 240.89 70.7044 234.124L81.4826 179.716H91.0132L71.7103 264.463H62.9327L48.1422 200.025L45.8832 189.994C45.383 193.754 44.63 197.018 43.877 200.025L29.0809 264.463H19.8088ZM96.7844 223.346C96.7844 208.803 100.044 197.771 106.309 189.994C112.581 182.222 120.6 178.463 130.13 178.463C136.143 178.463 141.915 179.969 146.927 183.476C151.94 186.982 155.952 192 158.964 198.519C161.723 205.285 163.229 213.056 163.229 222.334C163.229 234.871 160.47 244.902 154.699 252.921C148.433 261.699 140.161 265.958 130.13 265.958C119.847 265.958 111.575 261.446 105.309 252.668C99.538 244.408 96.7844 234.63 96.7844 223.346V223.346ZM106.309 223.346C106.309 233.877 108.563 241.901 113.081 247.667C117.846 253.432 123.359 256.444 129.878 256.444C136.649 256.444 142.415 253.432 146.927 247.667C151.44 241.901 153.699 233.376 153.699 222.093C153.699 214.574 152.698 208.302 150.186 202.542C148.433 198.03 145.674 194.518 142.162 192.011C138.697 189.392 134.468 187.982 130.125 187.999C123.1 187.999 117.335 190.753 113.075 196.524C108.563 202.284 106.309 211.309 106.309 223.346V223.346ZM174.755 264.463V179.716H205.594C211.86 179.716 216.626 180.469 219.638 182.222C222.897 183.728 225.403 186.235 227.156 189.994C229.163 193.754 230.168 198.019 230.168 202.778C230.168 209.303 228.662 214.315 225.156 218.328C221.891 222.34 217.131 224.846 210.613 226.099C213.372 227.605 215.125 229.111 216.631 230.612C219.39 233.871 221.649 237.383 223.903 241.39L235.934 264.458H224.403L215.125 246.903C211.366 240.131 208.859 235.371 206.853 233.112C205.1 230.606 203.341 228.847 201.588 228.094C199.834 227.341 197.575 226.841 194.569 226.841H184.038V264.452H174.755V264.463V264.463ZM184.033 217.074H203.588C207.848 217.074 211.107 216.574 213.366 215.568C215.62 214.568 217.373 212.809 218.879 210.803C220.132 208.544 220.632 205.785 220.632 202.778C220.632 198.519 219.379 195.26 216.873 192.753C214.366 190.247 210.854 188.994 205.842 188.994H184.027V217.074H184.033ZM244.459 264.463V179.716H253.737V221.84L288.088 179.716H300.62L271.286 214.068L301.873 264.463H289.589L265.021 221.84L253.737 235.13V264.463H244.459V264.463ZM306.138 237.136L314.916 236.383C315.416 240.895 316.422 244.655 318.175 247.161C319.681 249.92 322.188 251.926 325.194 253.427C328.206 255.18 331.713 255.933 335.478 255.933C340.99 255.933 345.003 254.427 348.015 251.926C351.021 249.167 352.527 245.655 352.527 241.396C352.527 238.889 352.027 236.883 351.021 234.877C350.021 233.124 348.262 231.618 346.003 230.364C343.749 229.111 338.984 227.358 331.713 225.352C325.194 223.346 320.429 221.34 317.669 219.333C314.878 217.545 312.625 215.031 311.151 212.062C309.645 209.05 308.892 205.543 308.892 201.784C308.892 194.759 311.151 189.247 315.41 184.982C319.923 180.469 325.941 178.463 333.46 178.463C338.473 178.463 342.985 179.463 346.998 181.469C350.757 183.475 353.769 186.482 356.022 190.247C358.214 194.42 359.334 199.071 359.282 203.784L350.504 204.537C350.251 199.025 348.498 195.012 345.739 192.253C342.727 189.494 338.967 188.241 333.707 188.241C328.436 188.241 324.43 189.494 321.918 191.753C320.557 192.825 319.465 194.198 318.725 195.764C317.986 197.33 317.621 199.046 317.658 200.778C317.658 204.29 318.664 206.796 320.67 208.802C322.671 210.556 327.189 212.562 334.208 214.568C341.226 216.321 345.992 218.08 348.751 219.333C353.016 221.587 356.27 224.346 358.276 227.858C360.535 231.37 361.535 235.63 361.535 240.395C361.565 245.057 360.353 249.642 358.023 253.68C355.764 257.692 352.757 260.704 348.745 262.705C344.986 264.958 340.22 265.964 334.702 265.964C326.177 265.964 319.159 263.458 314.146 258.192C309.133 252.927 306.386 245.908 306.138 237.136V237.136ZM415.954 264.463L397.652 179.716H406.929L417.46 235.377C418.713 241.143 419.714 246.908 420.472 252.674L423.732 236.877L437.016 179.71H447.8L457.825 222.587C460.181 232.514 462.023 242.557 463.343 252.674C464.096 247.161 465.349 240.89 466.603 234.124L477.634 179.716H487.159L467.856 264.463H459.078L444.282 200.025L442.029 189.994C441.528 193.754 440.775 197.018 440.022 200.025L425.232 264.463H415.954ZM497.189 264.463V179.716H506.467V264.463H497.189ZM540.313 264.463V189.747H517.498V179.716H572.406V189.747H549.349V264.463H540.313ZM581.442 264.463V179.716H590.714V214.568H626.814V179.716H636.097V264.463H626.814V224.599H590.714V264.463H581.442Z" fill="#00678C"/>
</g>
<defs>
<clipPath id="clip0_1_32">
<rect width="1000" height="512.998" fill="white"/>
</clipPath>
</defs>
</svg>
