<svg width="1000" height="243" viewBox="0 0 1000 243" fill="none" xmlns="http://www.w3.org/2000/svg">
<path d="M203.254 238.051H336.502C340.734 238.052 344.892 236.971 348.557 234.918C352.222 232.865 355.265 229.913 357.38 226.357C359.496 222.802 360.608 218.768 360.607 214.663C360.605 210.558 359.489 206.526 357.37 202.971L267.885 52.628C265.77 49.0732 262.727 46.1211 259.062 44.0686C255.398 42.0162 251.241 40.9356 247.01 40.9356C242.778 40.9356 238.621 42.0162 234.957 44.0686C231.293 46.1211 228.25 49.0732 226.135 52.628L203.254 91.0955L158.518 15.8734C156.401 12.3189 153.357 9.36728 149.692 7.31517C146.026 5.26308 141.868 4.18277 137.636 4.18277C133.405 4.18277 129.247 5.26308 125.581 7.31517C121.916 9.36728 118.872 12.3189 116.755 15.8734L5.40156 202.971C3.28315 206.526 2.16688 210.558 2.16504 214.663C2.1632 218.768 3.27584 222.802 5.39107 226.357C7.5063 229.913 10.5495 232.865 14.2146 234.918C17.8798 236.971 22.0376 238.052 26.2698 238.051H109.912C143.052 238.051 167.491 223.931 184.308 196.384L225.135 127.8L247.003 91.0955L312.634 201.347H225.135L203.254 238.051ZM108.548 201.309L50.1768 201.296L137.675 54.3033L181.334 127.8L152.102 176.924C140.935 194.797 128.248 201.309 108.548 201.309Z" fill="#00DC82"/>
<path d="M459.47 235.849V148.314C459.47 123.264 456.861 98.2151 456.861 98.2151C456.861 98.2151 466.773 121.062 479.292 142.533L532.76 235.849H574.752V43.1611H535.368V130.696C535.368 155.746 537.977 181.07 537.977 181.07C537.977 181.07 528.065 157.948 515.807 136.477L462.077 43.1611H420.346V235.849H459.47Z" fill="black"/>
<path d="M698.831 97.1136V173.088C698.831 190.705 687.616 203.918 671.706 203.918C656.839 203.918 646.406 191.806 646.406 175.014V97.1136H610.152V183.548C610.152 215.204 629.453 238.052 658.926 238.052C676.923 238.052 691.528 229.793 698.831 216.58V235.849H735.346V97.1136H698.831Z" fill="black"/>
<path d="M841.53 163.729L885.614 97.1136H845.705L821.712 133.724L797.712 97.1136H758.068L802.152 163.454L754.68 235.849H793.546L821.97 193.183L850.137 235.849H888.743L841.53 163.729Z" fill="black"/>
<path d="M926.371 97.1137H901.068V129.045H926.371V185.475C926.371 217.681 945.932 235.849 976.19 235.849H997.834V203.642H981.144C969.409 203.642 962.621 197.311 962.621 183.824V129.045H997.834V97.1137H962.621V56.0987H926.371V97.1137Z" fill="black"/>
</svg>
