<svg width="1000" height="124" viewBox="0 0 1000 124" fill="none" xmlns="http://www.w3.org/2000/svg">
<g clip-path="url(#clip0_1_7)">
<path d="M310.283 51.9157H292.287V86.5969C292.287 95.8444 298.39 95.6946 310.283 95.1206V109.135C286.197 112.031 276.613 105.379 276.613 86.5969V51.9157H263.259V36.8776H276.613V17.4716L292.287 12.8541V36.8776H310.283V51.9157ZM378.897 36.8776H394.571V109.135H378.897V98.7272C373.381 106.39 364.807 111.02 353.488 111.02C333.757 111.02 317.359 94.3968 317.359 73.0065C317.359 51.4789 333.757 35.0057 353.488 35.0057C364.807 35.0057 373.381 39.6232 378.897 47.136V36.8776ZM355.959 96.1314C369.025 96.1314 378.897 86.4472 378.897 73.0065C378.897 59.5658 369.025 49.8815 355.959 49.8815C342.893 49.8815 333.033 59.5658 333.033 73.0065C333.033 86.4472 342.893 96.1314 355.959 96.1314ZM420.691 26.0452C415.175 26.0452 410.67 21.4152 410.67 16.0739C410.682 14.7635 410.945 13.4656 411.444 12.2551C411.948 11.0447 412.686 9.94558 413.615 9.02052C414.545 8.09547 415.647 7.36261 416.86 6.86385C418.07 6.36466 419.381 6.10259 420.691 6.10259C422.002 6.10259 423.299 6.36466 424.522 6.86385C425.733 7.36304 426.831 8.09935 427.767 9.02285C428.691 9.95883 429.427 11.057 429.939 12.2551C430.438 13.4656 430.7 14.7635 430.7 16.0739C430.7 21.4152 426.207 26.0452 420.691 26.0452V26.0452ZM412.854 109.135V36.8776H428.529V109.135H412.854ZM446.674 109.135V3.64408H462.349V109.135H446.674ZM564.083 36.8776H580.632L557.844 109.135H542.456L527.368 60.4394L512.13 109.135H496.743L473.955 36.8776H490.503L504.58 86.7342L519.818 36.8776H534.769L549.857 86.7342L564.083 36.8776ZM600.075 26.0452C594.559 26.0452 590.066 21.4152 590.066 16.0739C590.066 14.7635 590.328 13.4656 590.828 12.2551C591.339 11.057 592.075 9.95883 592.999 9.02285C593.935 8.09935 595.033 7.36304 596.244 6.86385C597.467 6.36466 598.765 6.10259 600.075 6.10259C602.727 6.10321 605.271 7.15305 607.151 9.02285C608.087 9.95883 608.823 11.057 609.322 12.2551C609.834 13.4656 610.096 14.7635 610.096 16.0739C610.096 21.4152 605.591 26.0452 600.075 26.0452V26.0452ZM592.238 109.135V36.8776H607.912V109.135H592.238ZM692.101 64.7699V109.135H676.426V66.3673C676.426 55.3726 670.037 49.5945 660.165 49.5945C649.857 49.5945 641.732 55.6721 641.732 70.4107V109.135H626.058V36.8776H641.732V46.1251C646.525 38.6123 654.362 35.0057 664.233 35.0057C680.482 35.0057 692.101 45.9878 692.101 64.7699V64.7699ZM766.405 7.97455H782.08V109.135H766.405V98.7272C760.889 106.39 752.328 111.02 741.009 111.02C721.266 111.02 704.867 94.3968 704.867 73.0065C704.867 51.4789 721.266 35.0057 741.009 35.0057C752.328 35.0057 760.889 39.6232 766.405 47.136V7.97455ZM743.48 96.1314C756.534 96.1314 766.405 86.4472 766.405 73.0065C766.405 59.5658 756.534 49.8815 743.48 49.8815C730.413 49.8815 720.542 59.5658 720.542 73.0065C720.542 86.4472 730.413 96.1314 743.48 96.1314ZM796.306 73.0065C796.306 51.4789 812.705 35.0057 834.619 35.0057C848.846 35.0057 861.176 42.3687 866.979 53.6504L853.489 61.4502C850.294 54.6613 843.18 50.3183 834.47 50.3183C821.703 50.3183 811.981 60.0026 811.981 73.0065C811.981 86.0104 821.703 95.6946 834.47 95.6946C843.18 95.6946 850.294 91.2144 853.776 84.5752L867.279 92.2253C861.176 103.644 848.846 111.02 834.619 111.02C812.705 111.02 796.306 94.3968 796.306 73.0065V73.0065ZM932.149 88.7559C932.149 103.207 919.519 111.02 903.844 111.02C889.33 111.02 878.885 104.505 874.242 94.1097L887.733 86.2974C890.067 92.8118 895.87 96.7055 903.844 96.7055C910.821 96.7055 916.187 94.3968 916.187 88.6186C916.187 75.752 877.15 82.9778 877.15 57.1073C877.15 43.5293 888.906 35.0057 903.707 35.0057C915.6 35.0057 925.472 40.4968 930.551 50.0313L917.347 57.4068C914.739 51.766 909.66 49.1702 903.707 49.1702C898.041 49.1702 893.112 51.6162 893.112 56.8203C893.112 69.9739 932.149 62.0243 932.149 88.7559V88.7559ZM999.065 88.7559C999.065 103.207 986.435 111.02 970.761 111.02C956.247 111.02 945.789 104.505 941.146 94.1097L954.649 86.2974C956.971 92.8118 962.774 96.7055 970.761 96.7055C977.725 96.7055 983.091 94.3968 983.091 88.6186C983.091 75.752 944.054 82.9778 944.054 57.1073C944.054 43.5293 955.81 35.0057 970.611 35.0057C982.517 35.0057 992.388 40.4968 997.467 50.0313L984.251 57.4068C981.643 51.766 976.564 49.1702 970.611 49.1702C964.958 49.1702 960.016 51.6162 960.016 56.8203C960.016 69.9739 999.065 62.0243 999.065 88.7559Z" fill="black"/>
<path d="M104.055 0C76.5623 0 59.3652 13.6903 52.4889 41.0708C62.8096 27.3805 74.8401 22.2389 88.5928 25.6583C96.43 27.6177 102.033 33.2835 108.248 39.5608C118.357 49.7692 130.063 61.6 155.621 61.6C183.114 61.6 200.299 47.9097 207.175 20.5292C196.867 34.2194 184.837 39.3486 171.084 35.9292C163.247 33.9823 157.631 28.3041 151.428 22.0392C141.32 11.8183 129.614 0 104.055 0V0ZM52.4889 61.6C24.996 61.6 7.8114 75.2903 0.935059 102.671C11.2433 88.9805 23.2738 83.8514 37.0265 87.2708C44.8762 89.2177 50.4796 94.8959 56.6821 101.161C66.7907 111.382 78.4966 123.2 104.055 123.2C131.56 123.2 148.745 109.51 155.621 82.1292C145.301 95.8194 133.27 100.961 119.53 97.5416C111.68 95.5823 106.077 89.9165 99.862 83.6392C89.7534 73.4308 78.0474 61.6 52.4889 61.6V61.6Z" fill="#06B6D4"/>
</g>
<defs>
<clipPath id="clip0_1_7">
<rect width="1000" height="123.2" fill="white"/>
</clipPath>
</defs>
</svg>
