<svg width="873" height="307" viewBox="0 0 873 307" fill="none" xmlns="http://www.w3.org/2000/svg">
<g clip-path="url(#clip0_1_41)">
<path fill-rule="evenodd" clip-rule="evenodd" d="M287.356 -0.396484H358.04L179.56 307.169L-0.0952148 -0.396484H72.1965L179.56 184.764L287.356 -0.396484Z" fill="#41B883"/>
<path fill-rule="evenodd" clip-rule="evenodd" d="M220.556 -0.459229H287.782L179.466 185.087L72.0186 -0.459229H138.194L179.466 70.9731L220.556 -0.459229Z" fill="#35495E"/>
<path fill-rule="evenodd" clip-rule="evenodd" d="M400.217 60.2598C400.217 57.9909 401.477 56.1001 403.996 54.5873C406.515 53.0747 409.149 52.3184 411.896 52.3184C415.713 52.3184 418.08 53.7553 418.996 56.6295L459.301 191.405L499.377 56.6295C500.445 53.7555 502.735 52.3184 506.247 52.3184C509.147 52.3184 511.857 53.1503 514.376 54.8142C516.895 56.4781 518.155 58.3689 518.155 60.4867C518.155 60.638 518.117 60.8649 518.04 61.1674C517.964 61.4699 517.926 61.7725 517.926 62.075L471.438 212.961C469.759 217.348 465.713 219.541 459.301 219.541C452.889 219.541 448.996 217.348 447.622 212.961L400.677 62.075C400.372 61.1674 400.219 60.5624 400.219 60.2598H400.217ZM519.959 176.429V117.437C519.959 115.622 520.914 114.034 522.822 112.673C524.73 111.311 526.982 110.631 529.578 110.631C532.02 110.631 534.196 111.349 536.104 112.786C538.013 114.223 538.967 115.774 538.967 117.437V176.429C538.967 183.236 541.562 189.362 546.753 194.807C551.944 200.253 558.127 202.975 565.302 202.975C572.326 202.975 578.432 200.291 583.623 194.921C588.814 189.551 591.409 183.387 591.409 176.429V117.207C591.409 115.543 592.363 114.03 594.272 112.669C596.18 111.308 598.432 110.627 601.027 110.627C603.775 110.627 606.027 111.27 607.783 112.556C609.539 113.842 610.417 115.392 610.417 117.207V176.429C610.417 188.076 605.951 198.248 597.02 206.946C588.089 215.644 577.516 219.993 565.303 219.993C552.937 219.993 542.288 215.644 533.357 206.946C524.426 198.248 519.96 188.076 519.96 176.429H519.959ZM625.958 175.975V152.151C625.958 140.504 630.424 130.445 639.355 121.974C648.286 113.503 659.011 109.268 671.53 109.268C683.438 109.268 693.743 113.238 702.446 121.18C711.148 129.121 715.499 139.067 715.499 151.017C715.499 155.403 714.965 158.92 713.896 161.568C712.827 164.215 711.186 166.105 708.972 167.24C706.759 168.374 704.698 169.093 702.789 169.396C700.881 169.698 698.323 169.849 695.117 169.849H644.964V176.656C644.964 184.976 647.98 191.631 654.01 196.623C660.041 201.615 667.865 204.111 677.483 204.111C682.521 204.111 686.91 203.354 690.651 201.842C694.391 200.329 697.406 198.854 699.697 197.417C701.987 195.98 703.819 195.262 705.193 195.262C707.33 195.262 709.162 196.207 710.689 198.098C712.216 199.989 712.979 201.918 712.979 203.884C712.979 207.363 709.506 210.918 702.559 214.548C695.613 218.178 687.025 219.993 676.796 219.993C661.834 219.993 649.621 215.947 640.156 207.854C630.69 199.762 625.957 189.136 625.957 175.976L625.958 175.975ZM644.965 157.143H687.331C691.3 157.143 693.972 156.651 695.346 155.668C696.721 154.685 697.407 152.756 697.407 149.882C697.407 143.076 694.888 137.101 689.85 131.958C684.812 126.814 678.629 124.243 671.301 124.243C664.125 124.243 657.942 126.625 652.751 131.39C647.561 136.155 644.965 142.016 644.965 148.974L644.965 157.143ZM725.089 207.74C725.089 204.412 726.234 201.576 728.524 199.231C730.814 196.887 733.639 195.715 736.997 195.715C740.203 195.715 742.951 196.887 745.241 199.231C747.531 201.576 748.677 204.412 748.677 207.74C748.677 210.916 747.531 213.677 745.241 216.022C742.951 218.366 740.203 219.538 736.997 219.538C733.639 219.538 730.814 218.366 728.524 216.022C726.234 213.677 725.089 210.917 725.089 207.74ZM742.007 261.968C742.007 259.548 742.77 257.544 744.297 255.956C745.824 254.368 747.656 253.573 749.793 253.573C755.747 253.573 759.64 251.38 761.473 246.994C763.305 242.607 764.221 236.027 764.221 227.254V117.209C764.221 115.242 765.099 113.654 766.854 112.444C768.61 111.234 770.862 110.629 773.61 110.629C776.358 110.629 778.648 111.234 780.48 112.444C782.312 113.654 783.228 115.242 783.228 117.209V227.254C783.228 240.414 780.633 250.851 775.442 258.565C770.251 266.28 762.389 270.137 751.855 270.137C745.29 270.137 742.007 267.414 742.007 261.969L742.007 261.968ZM761.701 70.2413C761.701 67.3673 762.846 64.8716 765.136 62.7537C767.426 60.636 770.251 59.5772 773.61 59.5772C776.816 59.5772 779.564 60.636 781.854 62.7537C784.144 64.8714 785.289 67.3673 785.289 70.2413C785.289 73.1152 784.144 75.649 781.854 77.8423C779.564 80.0356 776.816 81.1323 773.61 81.1323C770.403 81.1323 767.617 80.0357 765.251 77.8423C762.884 75.649 761.701 73.1152 761.701 70.2413H761.701ZM797.397 202.747C797.397 200.78 798.046 198.852 799.344 196.961C800.642 195.07 802.206 194.125 804.038 194.125C805.26 194.125 807.015 195.032 809.305 196.848C811.595 198.663 814.878 200.44 819.152 202.18C823.427 203.919 828.465 204.789 834.267 204.789C841.9 204.789 847.434 203.428 850.869 200.705C854.304 197.982 856.022 194.579 856.022 190.495C856.022 185.503 854.114 181.532 850.297 178.582C846.48 175.633 841.824 173.402 836.327 171.889C830.831 170.376 825.335 168.712 819.839 166.897C814.343 165.082 809.686 162.057 805.87 157.821C802.053 153.586 800.144 147.989 800.144 141.031C800.144 132.409 803.236 124.959 809.419 118.682C815.602 112.405 825.029 109.266 837.701 109.266C845.793 109.266 853.197 110.514 859.914 113.01C866.632 115.506 869.991 118.342 869.991 121.518C869.991 123.333 869.266 125.375 867.815 127.644C866.365 129.913 864.571 131.048 862.433 131.048C861.822 131.048 858.884 129.951 853.617 127.758C848.35 125.564 843.121 124.468 837.93 124.468C830.907 124.468 825.678 126.094 822.243 129.346C818.808 132.598 817.09 136.266 817.09 140.35C817.09 144.586 818.999 147.914 822.816 150.334C826.632 152.754 831.327 154.645 836.899 156.006C842.472 157.368 848.006 159.031 853.502 160.998C858.998 162.965 863.655 166.33 867.472 171.095C871.288 175.86 873.197 182.023 873.197 189.587C873.197 198.965 869.838 206.377 863.121 211.822C856.403 217.268 847.014 219.991 834.953 219.991C824.572 219.991 815.717 218.138 808.389 214.432C801.061 210.726 797.397 206.831 797.397 202.746L797.397 202.747Z" fill="#010101"/>
</g>
<defs>
<clipPath id="clip0_1_41">
<rect width="873" height="307" fill="white"/>
</clipPath>
</defs>
</svg>
