<svg xmlns="http://www.w3.org/2000/svg" width="390" height="37" viewBox="0 0 390 37" fill="none">
<path d="M379.831 9.32715H372.487V22.2578H379.831V9.32715Z" fill="#F26122"/>
<path d="M373.283 15.7927C373.269 13.2985 374.434 10.9365 376.441 9.3851C373.006 6.75688 368.072 7.13854 365.107 10.2617C362.142 13.385 362.142 18.2008 365.107 21.3241C368.072 24.447 373.006 24.829 376.441 22.2004C374.434 20.6493 373.269 18.2873 373.283 15.7927Z" fill="#EA1D25"/>
<path d="M390 15.7924C389.997 18.9134 388.166 21.7598 385.281 23.1239C382.397 24.488 378.965 24.1312 376.441 22.2048C380.076 19.4199 380.705 14.2969 377.848 10.7569C377.438 10.2442 376.966 9.78212 376.441 9.38067C378.965 7.45401 382.397 7.09706 385.281 8.46129C388.166 9.82553 389.997 12.6719 390 15.7924Z" fill="#F69E1E"/>
<path fill-rule="evenodd" clip-rule="evenodd" d="M301.026 18.8514C301.036 16.3305 298.952 15.2421 297.334 14.3964C296.31 13.8616 295.473 13.4242 295.473 12.7835C295.473 12.2374 296.003 11.6592 297.131 11.5099C298.472 11.3776 299.825 11.6119 301.042 12.1883L301.739 8.88129C300.552 8.43721 299.294 8.20761 298.026 8.20288C294.114 8.20288 291.395 10.2863 291.395 13.2626C291.395 15.4622 293.368 16.6858 294.86 17.4133C296.352 18.1409 296.932 18.653 296.915 19.3144C296.915 20.3396 295.689 20.8025 294.545 20.8195C293.134 20.8375 291.742 20.4964 290.5 19.8274L289.787 23.1344C291.192 23.6815 292.689 23.9565 294.197 23.9442C298.357 23.9442 301.093 21.8938 301.109 18.7191L301.026 18.8514ZM290.268 8.46839L286.953 23.7628H282.975L286.29 8.46839H290.268ZM306.944 18.3884L309.032 12.6513L310.243 18.3884H306.944ZM315.05 23.8128H311.37L310.889 21.531H305.9L305.087 23.8128H300.91L306.861 9.6419C307.135 8.96727 307.788 8.52413 308.519 8.51752H311.834L315.05 23.8128ZM278.25 23.7127L284.682 8.41831H280.372L276.245 18.8183L274.587 9.9726C274.44 9.07309 273.66 8.41453 272.747 8.41831H266.001L265.901 8.86428C267.254 9.12884 268.569 9.56159 269.813 10.154C270.343 10.4025 270.702 10.9118 270.758 11.4938L273.924 23.7127H278.25Z" fill="white"/>
<path d="M344.554 11.7964L344.505 12.0993C343.831 15.5352 341.521 16.7296 338.578 16.7296H337.082C336.722 16.7291 336.415 16.989 336.359 17.3429L335.594 22.1859L335.373 23.5603C335.356 23.6706 335.388 23.7823 335.46 23.8669C335.533 23.9515 335.639 24.0011 335.751 24.002H338.414C338.73 24.002 338.998 23.7725 339.047 23.4621V23.3312L339.548 20.1655V19.9935C339.593 19.6845 339.859 19.4545 340.173 19.4535H340.609C343.182 19.4535 345.204 18.4148 345.787 15.3632C346.103 14.3203 345.909 13.1904 345.261 12.312C345.056 12.1021 344.817 11.9282 344.554 11.7964Z" fill="#189BD7"/>
<path d="M343.847 11.5182L343.535 11.4364L343.189 11.371C342.754 11.306 342.314 11.2761 341.874 11.2807H337.863C337.769 11.2784 337.676 11.298 337.591 11.3382C337.401 11.4271 337.268 11.6052 337.238 11.8127L336.416 17.1872V17.3429C336.472 16.989 336.78 16.7286 337.139 16.7291H338.635C341.578 16.7291 343.888 15.5347 344.562 12.0988L344.611 11.7964C344.435 11.7052 344.25 11.6285 344.061 11.5673L343.847 11.5182Z" fill="#242E65"/>
<path d="M337.238 11.8128C337.268 11.6057 337.401 11.4271 337.592 11.3383C337.676 11.2981 337.769 11.2785 337.863 11.2808H341.874C342.315 11.2761 342.754 11.3061 343.19 11.371L343.535 11.4365L343.847 11.5183L344.004 11.5674C344.193 11.6286 344.377 11.7053 344.554 11.7964C344.822 10.7745 344.577 9.68679 343.897 8.87591C343.075 8.00876 341.726 7.64063 339.967 7.64063H334.854C334.494 7.6402 334.188 7.9004 334.131 8.25418L332.002 21.6788C331.983 21.8055 332.02 21.934 332.104 22.0312C332.187 22.1285 332.309 22.185 332.437 22.186H335.594L336.416 17.1878L337.238 11.8128Z" fill="#253D80"/>
<path fill-rule="evenodd" clip-rule="evenodd" d="M111.343 11.2981L111.343 11.2981L116.266 9.66487L116.266 9.66486C116.363 9.63287 116.467 9.63287 116.564 9.66486L116.564 9.66487L121.487 11.2981L121.487 11.2981C121.679 11.3618 121.8 11.5365 121.8 11.7239V16.0827C121.8 17.6003 121.038 18.9237 119.871 20.0729C118.708 21.2189 117.299 22.0269 116.415 22.4635C115.531 22.0269 114.122 21.2189 112.959 20.0729C111.792 18.9237 111.03 17.6004 111.03 16.0827V11.7239C111.03 11.5365 111.151 11.3618 111.343 11.2981ZM123.8 11.7239C123.8 10.6694 123.122 9.73326 122.117 9.3998L117.194 7.76659C116.688 7.59896 116.142 7.59896 115.637 7.76659L110.713 9.3998C109.708 9.73326 109.03 10.6694 109.03 11.7239V16.0827C109.03 20.5757 113.592 23.3029 115.545 24.2645C116.097 24.5362 116.733 24.5362 117.285 24.2645C119.238 23.3029 123.8 20.5757 123.8 16.0827V11.7239ZM119.457 15.0268C119.777 14.708 119.777 14.1909 119.457 13.872C119.137 13.5531 118.617 13.5531 118.297 13.872L115.594 16.561L114.534 15.5052C114.213 15.1863 113.694 15.1863 113.373 15.5052C113.053 15.8241 113.053 16.3412 113.373 16.66L114.55 17.8313C115.127 18.4054 116.062 18.4054 116.639 17.8313L119.457 15.0268Z" fill="#88C44C"/>
<path d="M135.972 22.5563C135.175 22.5563 134.504 22.4307 133.958 22.1795C133.412 21.9197 132.996 21.5645 132.71 21.1141C132.433 20.6636 132.295 20.1482 132.295 19.5679H133.282C133.282 19.9317 133.369 20.2738 133.542 20.5943C133.724 20.9062 134.01 21.1617 134.4 21.3609C134.798 21.5515 135.322 21.6468 135.972 21.6468C136.873 21.6468 137.54 21.4606 137.973 21.0881C138.414 20.707 138.635 20.2435 138.635 19.6978C138.635 19.2387 138.453 18.8576 138.09 18.5544C137.735 18.2426 137.197 18.0563 136.478 17.9957L135.387 17.8918C134.573 17.8225 133.923 17.5713 133.438 17.1381C132.962 16.6964 132.723 16.116 132.723 15.3971C132.723 14.8513 132.853 14.3706 133.113 13.9548C133.373 13.5304 133.741 13.2012 134.218 12.9673C134.703 12.7248 135.283 12.6035 135.959 12.6035C136.643 12.6035 137.228 12.7291 137.713 12.9803C138.207 13.2229 138.583 13.5607 138.843 13.9938C139.103 14.4269 139.233 14.9293 139.233 15.501H138.246C138.246 15.1545 138.168 14.8297 138.012 14.5265C137.856 14.2233 137.609 13.9808 137.271 13.7989C136.933 13.6083 136.496 13.513 135.959 13.513C135.439 13.513 135.015 13.5997 134.685 13.7729C134.356 13.9461 134.109 14.1757 133.945 14.4615C133.789 14.7474 133.711 15.0592 133.711 15.3971C133.711 15.8302 133.858 16.194 134.153 16.4885C134.456 16.7743 134.898 16.9389 135.478 16.9822L136.569 17.0862C137.531 17.1641 138.28 17.437 138.817 17.9047C139.354 18.3638 139.623 18.9615 139.623 19.6978C139.623 20.2522 139.471 20.7459 139.168 21.179C138.874 21.6121 138.453 21.95 137.908 22.1925C137.362 22.4351 136.717 22.5563 135.972 22.5563Z" fill="#CED3F6"/>
<path d="M144.642 22.5563C144.044 22.5563 143.529 22.4567 143.095 22.2575C142.671 22.0496 142.32 21.7767 142.043 21.4389C141.766 21.0924 141.558 20.707 141.419 20.2825C141.289 19.8494 141.224 19.412 141.224 18.9702V18.7883C141.224 18.3465 141.294 17.9134 141.432 17.489C141.571 17.0645 141.775 16.6834 142.043 16.3456C142.32 16.0077 142.667 15.7392 143.083 15.54C143.507 15.3321 144.001 15.2281 144.564 15.2281C145.283 15.2281 145.88 15.3884 146.357 15.7089C146.842 16.0207 147.206 16.4322 147.448 16.9433C147.691 17.4457 147.812 17.9784 147.812 18.5414V19.0482H142.16C142.177 19.5419 142.277 19.9923 142.459 20.3994C142.641 20.7979 142.914 21.1141 143.277 21.348C143.641 21.5818 144.096 21.6988 144.642 21.6988C145.239 21.6988 145.724 21.5645 146.097 21.296C146.469 21.0275 146.699 20.7026 146.786 20.3215H147.695C147.556 21.0058 147.214 21.5515 146.669 21.9586C146.132 22.3571 145.456 22.5563 144.642 22.5563ZM144.564 16.0857C143.862 16.0857 143.312 16.2936 142.914 16.7094C142.524 17.1252 142.286 17.6535 142.199 18.2945H146.864C146.803 17.6362 146.578 17.1035 146.188 16.6964C145.798 16.2893 145.257 16.0857 144.564 16.0857Z" fill="#CED3F6"/>
<path d="M152.585 22.5563C152.005 22.5563 151.498 22.4524 151.065 22.2445C150.641 22.0366 150.286 21.7594 150 21.4129C149.714 21.0664 149.497 20.681 149.35 20.2565C149.212 19.8321 149.142 19.4033 149.142 18.9702V18.7883C149.142 18.3465 149.212 17.9177 149.35 17.502C149.497 17.0775 149.714 16.6964 150 16.3586C150.286 16.0121 150.641 15.7392 151.065 15.54C151.49 15.3321 151.988 15.2281 152.559 15.2281C153.131 15.2281 153.638 15.3321 154.08 15.54C154.53 15.7479 154.89 16.0424 155.158 16.4235C155.435 16.8047 155.604 17.2551 155.665 17.7748H154.729C154.651 17.2897 154.426 16.8913 154.054 16.5794C153.69 16.2676 153.192 16.1117 152.559 16.1117C152.014 16.1117 151.559 16.2373 151.195 16.4885C150.84 16.731 150.571 17.0645 150.39 17.489C150.208 17.9047 150.117 18.3682 150.117 18.8792C150.117 19.3903 150.208 19.8581 150.39 20.2825C150.571 20.707 150.844 21.0491 151.208 21.309C151.572 21.5602 152.031 21.6858 152.585 21.6858C153.209 21.6858 153.72 21.5212 154.119 21.192C154.526 20.8542 154.755 20.4514 154.807 19.9837H155.743C155.699 20.5034 155.535 20.9582 155.249 21.348C154.963 21.7291 154.586 22.0279 154.119 22.2445C153.66 22.4524 153.148 22.5563 152.585 22.5563Z" fill="#CED3F6"/>
<path d="M159.907 22.5303C159.076 22.5303 158.443 22.2661 158.01 21.7377C157.586 21.2007 157.374 20.4558 157.374 19.5029V15.449H158.335V19.6978C158.335 20.2955 158.491 20.7719 158.803 21.1271C159.123 21.4736 159.565 21.6468 160.128 21.6468C160.717 21.6468 161.185 21.4606 161.531 21.0881C161.887 20.7156 162.064 20.2175 162.064 19.5939V15.449H163.039V22.3354H162.259V20.7633C162.112 21.3263 161.843 21.7637 161.453 22.0756C161.072 22.3787 160.57 22.5303 159.946 22.5303H159.907Z" fill="#CED3F6"/>
<path d="M165.587 22.3354V15.462H166.366V17.385C166.609 16.051 167.497 15.3841 169.03 15.3841H169.251V16.2676H168.848C168.103 16.2676 167.536 16.4625 167.146 16.8523C166.756 17.2421 166.561 17.8051 166.561 18.5414V22.3354H165.587Z" fill="#CED3F6"/>
<path d="M173.61 22.5563C173.012 22.5563 172.497 22.4567 172.064 22.2575C171.639 22.0496 171.289 21.7767 171.011 21.4389C170.734 21.0924 170.526 20.707 170.388 20.2825C170.258 19.8494 170.193 19.412 170.193 18.9702V18.7883C170.193 18.3465 170.262 17.9134 170.401 17.489C170.539 17.0645 170.743 16.6834 171.011 16.3456C171.289 16.0077 171.635 15.7392 172.051 15.54C172.475 15.3321 172.969 15.2281 173.532 15.2281C174.251 15.2281 174.849 15.3884 175.325 15.7089C175.81 16.0207 176.174 16.4322 176.417 16.9433C176.659 17.4457 176.78 17.9784 176.78 18.5414V19.0482H171.128C171.146 19.5419 171.245 19.9923 171.427 20.3994C171.609 20.7979 171.882 21.1141 172.246 21.348C172.609 21.5818 173.064 21.6988 173.61 21.6988C174.208 21.6988 174.693 21.5645 175.065 21.296C175.438 21.0275 175.667 20.7026 175.754 20.3215H176.663C176.525 21.0058 176.183 21.5515 175.637 21.9586C175.1 22.3571 174.424 22.5563 173.61 22.5563ZM173.532 16.0857C172.83 16.0857 172.28 16.2936 171.882 16.7094C171.492 17.1252 171.254 17.6535 171.167 18.2945H175.832C175.771 17.6362 175.546 17.1035 175.156 16.6964C174.766 16.2893 174.225 16.0857 173.532 16.0857Z" fill="#CED3F6"/>
<path d="M181.91 22.3354V12.8114H184.677C185.44 12.8114 186.068 12.937 186.561 13.1882C187.064 13.4394 187.436 13.7859 187.679 14.2277C187.93 14.6694 188.055 15.1762 188.055 15.7479V15.9298C188.055 16.5015 187.93 17.0082 187.679 17.45C187.436 17.8918 187.064 18.2382 186.561 18.4894C186.068 18.7406 185.44 18.8662 184.677 18.8662H182.897V22.3354H181.91ZM184.846 13.682H182.897V17.9957H184.846C185.357 17.9957 185.773 17.9004 186.094 17.7099C186.414 17.5193 186.652 17.2594 186.808 16.9303C186.964 16.6011 187.042 16.2373 187.042 15.8388C187.042 15.2325 186.864 14.7214 186.509 14.3056C186.163 13.8898 185.608 13.682 184.846 13.682Z" fill="#CED3F6"/>
<path d="M191.655 22.5173C190.919 22.5173 190.325 22.3268 189.875 21.9456C189.424 21.5645 189.199 21.0188 189.199 20.3085C189.199 19.6155 189.433 19.0828 189.901 18.7103C190.377 18.3379 191.044 18.1516 191.902 18.1516H193.825V17.8268C193.825 17.3157 193.691 16.9259 193.422 16.6574C193.153 16.3802 192.738 16.2416 192.175 16.2416C191.785 16.2416 191.395 16.2503 191.005 16.2676C190.615 16.2849 190.282 16.3066 190.005 16.3326V15.475C190.282 15.449 190.581 15.4274 190.901 15.4101C191.222 15.3927 191.529 15.3841 191.824 15.3841C192.872 15.3841 193.621 15.5833 194.072 15.9818C194.531 16.3715 194.76 17.0169 194.76 17.9177V22.3354H193.981V20.9322C193.825 21.4606 193.543 21.859 193.136 22.1275C192.738 22.3874 192.244 22.5173 191.655 22.5173ZM191.837 21.7377C192.157 21.7377 192.465 21.6814 192.759 21.5688C193.054 21.4476 193.301 21.2483 193.5 20.9711C193.699 20.6853 193.807 20.2955 193.825 19.8018V18.8922H191.837C191.291 18.8922 190.871 19.0265 190.576 19.295C190.291 19.5549 190.148 19.897 190.148 20.3215C190.148 20.7546 190.299 21.1011 190.602 21.3609C190.906 21.6121 191.317 21.7377 191.837 21.7377Z" fill="#CED3F6"/>
<path d="M196.571 25.012V24.1415H197.455C197.905 24.1415 198.26 24.0549 198.52 23.8816C198.789 23.7084 199.001 23.3792 199.157 22.8941L199.378 22.1665H198.689L196.194 15.462H197.195L199.313 21.348H199.637L201.469 15.462H202.418L200.001 23.167C199.793 23.8253 199.469 24.2974 199.027 24.5833C198.594 24.8691 198.052 25.012 197.403 25.012H196.571Z" fill="#CED3F6"/>
<path d="M204.122 22.3354V15.449H204.902V17.0342C205.049 16.4798 205.309 16.0467 205.682 15.7349C206.054 15.4144 206.548 15.2541 207.163 15.2541H207.202C207.808 15.2541 208.298 15.4101 208.67 15.7219C209.043 16.0337 209.302 16.4712 209.45 17.0342C209.606 16.4798 209.87 16.0467 210.242 15.7349C210.623 15.4144 211.117 15.2541 211.723 15.2541H211.762C212.577 15.2541 213.183 15.5313 213.581 16.0857C213.989 16.6401 214.192 17.3937 214.192 18.3465V22.3354H213.218V18.1256C213.218 17.5193 213.07 17.0385 212.776 16.6834C212.481 16.3282 212.057 16.1507 211.503 16.1507C210.931 16.1507 210.476 16.3369 210.138 16.7094C209.809 17.0818 209.645 17.5756 209.645 18.1906V22.3354H208.67V18.1256C208.67 17.5193 208.523 17.0385 208.228 16.6834C207.934 16.3282 207.509 16.1507 206.955 16.1507C206.383 16.1507 205.928 16.3369 205.591 16.7094C205.261 17.0818 205.097 17.5756 205.097 18.1906V22.3354H204.122Z" fill="#CED3F6"/>
<path d="M219.492 22.5563C218.895 22.5563 218.379 22.4567 217.946 22.2575C217.522 22.0496 217.171 21.7767 216.894 21.4389C216.616 21.0924 216.409 20.707 216.27 20.2825C216.14 19.8494 216.075 19.412 216.075 18.9702V18.7883C216.075 18.3465 216.144 17.9134 216.283 17.489C216.422 17.0645 216.625 16.6834 216.894 16.3456C217.171 16.0077 217.517 15.7392 217.933 15.54C218.358 15.3321 218.851 15.2281 219.414 15.2281C220.133 15.2281 220.731 15.3884 221.207 15.7089C221.692 16.0207 222.056 16.4322 222.299 16.9433C222.541 17.4457 222.663 17.9784 222.663 18.5414V19.0482H217.011C217.028 19.5419 217.128 19.9923 217.309 20.3994C217.491 20.7979 217.764 21.1141 218.128 21.348C218.492 21.5818 218.947 21.6988 219.492 21.6988C220.09 21.6988 220.575 21.5645 220.948 21.296C221.32 21.0275 221.55 20.7026 221.636 20.3215H222.546C222.407 21.0058 222.065 21.5515 221.519 21.9586C220.982 22.3571 220.307 22.5563 219.492 22.5563ZM219.414 16.0857C218.713 16.0857 218.163 16.2936 217.764 16.7094C217.374 17.1252 217.136 17.6535 217.05 18.2945H221.714C221.653 17.6362 221.428 17.1035 221.038 16.6964C220.649 16.2893 220.107 16.0857 219.414 16.0857Z" fill="#CED3F6"/>
<path d="M224.539 22.3354V15.462H225.318V17.0602C225.474 16.4885 225.751 16.0467 226.15 15.7349C226.557 15.4144 227.09 15.2541 227.748 15.2541H227.787C228.653 15.2541 229.298 15.527 229.723 16.0727C230.147 16.6098 230.359 17.3677 230.359 18.3465V22.3354H229.398V18.1386C229.398 17.5409 229.233 17.0602 228.904 16.6964C228.575 16.3326 228.116 16.1507 227.527 16.1507C226.921 16.1507 226.431 16.3412 226.059 16.7224C225.695 17.0948 225.513 17.5886 225.513 18.2036V22.3354H224.539Z" fill="#CED3F6"/>
<path d="M235.281 22.4134C234.813 22.4134 234.402 22.3441 234.047 22.2055C233.7 22.0669 233.431 21.833 233.241 21.5039C233.05 21.1747 232.955 20.7243 232.955 20.1526V16.2026H231.721V15.462H232.955V13.2922H233.891V15.462H236.372V16.2026H233.891V20.2955C233.891 20.6853 233.999 20.9885 234.215 21.205C234.432 21.4216 234.739 21.5299 235.138 21.5299H236.372V22.4134H235.281Z" fill="#CED3F6"/>
<rect x="250.649" y="3" width="1.12985" height="31.0707" fill="#CED3F6"/>
<path d="M0.75 8C0.75 3.99594 3.99594 0.75 8 0.75H82.3876C86.3917 0.75 89.6376 3.99594 89.6376 8V28.155C89.6376 32.1591 86.3917 35.405 82.3876 35.405H8C3.99593 35.405 0.75 32.1591 0.75 28.155V8Z" fill="#091E42" stroke="#1E3160" stroke-width="1.5"/>
<path fill-rule="evenodd" clip-rule="evenodd" d="M27.0682 13.2363C26.0689 12.4139 24.672 12.0405 23.0281 12.1562C22.2773 12.209 20.5218 12.6035 19.6642 12.7996C18.7487 13.0088 18.5007 13.5121 18.3837 14.1218L18 16.1197C18 16.1197 19.7533 15.5154 20.8337 15.2505L20.0002 16.3718C19.8129 16.6244 19.6712 17.0531 19.6712 17.3692V28.239L21.1492 27.6549C21.9923 27.3467 22.3744 26.5883 22.3744 25.8446V23.2927C22.9476 23.5193 23.6662 23.6168 24.4203 23.5638C25.8022 23.4665 27.0086 22.8021 27.818 21.6929C28.6434 20.5613 29.0169 19.0588 28.8983 17.3478C28.7711 15.5143 28.1555 14.1309 27.0682 13.2363ZM58.1665 23.2624H57.0421C56.5119 23.2624 56.0176 22.9083 55.8142 22.4251C55.1707 23.1119 54.2627 23.4591 53.1061 23.4591C51.8042 23.4591 50.7233 22.9451 49.9805 21.9725C49.2523 21.0193 48.8669 19.6364 48.8669 17.9733C48.8669 16.2374 49.2464 14.7863 49.9644 13.777C50.7142 12.7227 51.8144 12.1654 53.1448 12.1654C54.0845 12.1654 54.9818 12.5055 55.6167 13.0715V7.99976H56.5167C57.4264 7.99976 58.1665 8.74547 58.1665 9.6621V23.2624ZM48.1215 23.2624H46.9971C46.4669 23.2624 45.9726 22.9083 45.7692 22.4251C45.1252 23.1119 44.2177 23.4591 43.0606 23.4591C41.7592 23.4591 40.6783 22.9451 39.935 21.9725C39.2068 21.0193 38.8219 19.6364 38.8219 17.9733C38.8219 16.2374 39.2014 14.7863 39.9195 13.7771C40.6692 12.7227 41.7688 12.1654 43.0998 12.1654C44.0395 12.1654 44.9368 12.5055 45.5717 13.0715V7.99976H46.4712C47.3814 7.99976 48.1215 8.74547 48.1215 9.6621V23.2624ZM29.9309 15.5438C29.9309 15.5438 32.6985 14.3811 34.0418 14.3811C34.4003 14.3811 35.4554 14.3812 35.5606 16.0407C34.9343 16.1011 33.994 16.2462 33.0344 16.4976C30.7412 17.0876 29.4264 18.4549 29.4264 20.2488C29.4264 22.0269 30.8561 23.4198 32.6808 23.4198C34.0611 23.4198 35.0303 23.124 35.7463 22.4716C36.0194 22.9322 36.5545 23.2626 37.0799 23.2626H38.1237V15.5555C38.1237 13.5911 36.4622 12.1666 34.1196 12.1666C34.1196 12.1666 33.877 12.1666 33.8749 12.1686C33.8749 12.1686 33.0597 12.1655 31.9085 12.4756C31.9085 12.4756 30.3205 12.8849 30.1664 13.9267C30.0124 14.9686 29.9303 15.5438 29.9303 15.5438L29.9309 15.5438ZM67.4026 21.1761C66.5337 21.1761 65.5431 20.737 65.2425 19.7812C66.0432 19.7028 67.5218 19.5359 68.8296 18.9729C70.6103 18.207 71.5125 16.9741 71.5125 15.3085C71.5125 13.2682 70.0855 12.0981 67.5969 12.0981C66.1055 12.0981 64.7692 12.6875 63.8343 13.7578C62.9332 14.7886 62.4373 16.2185 62.4373 17.7842C62.4373 21.2431 64.3248 23.3917 67.3635 23.3917C68.4395 23.3917 69.8397 23.0264 69.895 23.0117C70.6082 22.8334 71.0322 22.4036 71.1921 21.6977L71.6676 19.5976C71.6676 19.5976 69.9722 21.1761 67.4026 21.1761ZM61.7128 16.0291C61.7117 12.8962 61.7112 9.68373 61.7112 9.67876C61.7112 8.79814 61.0752 8.00068 60.0577 8.00068L59.1604 8.00014C59.1604 8.00014 59.162 11.6585 59.1625 15.2363C59.1636 18.3692 59.1647 21.5816 59.1647 21.5866C59.1647 22.4672 59.8001 23.2647 60.8176 23.2647L61.7144 23.2652C61.7144 23.2652 61.7133 19.6069 61.7128 16.0291ZM55.7482 17.655C55.7482 20.0696 55.058 21.2433 53.638 21.2433C51.7113 21.2433 51.4886 19.3075 51.4886 17.8515C51.4886 16.8317 51.6866 14.4597 53.521 14.4597C55.4589 14.4597 55.7482 16.4617 55.7482 17.655ZM45.5991 17.655C45.5991 20.0696 44.9089 21.2433 43.4883 21.2433C41.5617 21.2433 41.339 19.3075 41.339 17.8515C41.339 16.8317 41.537 14.4597 43.3719 14.4597C45.3098 14.4597 45.5991 16.4617 45.5991 17.655ZM35.5692 19.6985C35.5692 20.4583 34.4657 21.2041 33.3419 21.2041C32.6791 21.2041 31.9702 20.7886 31.9702 20.1701C31.9702 19.5513 32.1843 19.1234 33.2813 18.767C34.1244 18.4829 34.8983 18.3354 35.5692 18.2374V19.6985ZM24.1535 20.9964C23.414 21.0486 22.8016 20.8748 22.3744 20.4937V14.8964C22.887 14.788 23.2632 14.7208 23.4231 14.7094C25.0626 14.5939 26.0738 15.5711 26.1999 17.3899C26.2825 18.5816 25.9611 20.8689 24.1535 20.9964ZM68.9628 15.3371C68.9628 16.8237 66.8794 17.3771 64.9962 17.5735C65.0987 15.5891 66.1248 14.2793 67.613 14.2793C68.1347 14.2793 68.9628 14.5665 68.9628 15.3371Z" fill="white"/>
</svg>
