<svg width="20" height="20" viewBox="0 0 20 20" fill="none" xmlns="http://www.w3.org/2000/svg">
<g clip-path="url(#clip0_730_4974)">
<path d="M10 0.416504C4.475 0.416504 0 4.8165 0 10.2432C0 14.5857 2.865 18.2682 6.8375 19.5665C7.3375 19.659 7.52083 19.3548 7.52083 19.094C7.52083 18.8607 7.5125 18.2423 7.50833 17.4232C4.72667 18.0157 4.14 16.1048 4.14 16.1048C3.685 14.9707 3.0275 14.6673 3.0275 14.6673C2.12167 14.0582 3.0975 14.0707 3.0975 14.0707C4.10167 14.139 4.62917 15.0832 4.62917 15.0832C5.52083 16.5857 6.97 16.1515 7.54167 15.9007C7.63167 15.2648 7.88917 14.8323 8.175 14.5865C5.95417 14.3407 3.62 13.4957 3.62 9.73067C3.62 8.65817 4.0075 7.7815 4.64917 7.094C4.53667 6.84567 4.19917 5.8465 4.73667 4.49317C4.73667 4.49317 5.57417 4.22984 7.48667 5.50067C8.28667 5.28234 9.13667 5.174 9.98667 5.169C10.8367 5.174 11.6867 5.28234 12.4867 5.50067C14.3867 4.22984 15.2242 4.49317 15.2242 4.49317C15.7617 5.8465 15.4242 6.84567 15.3242 7.094C15.9617 7.7815 16.3492 8.65817 16.3492 9.73067C16.3492 13.5057 14.0117 14.3365 11.7867 14.5782C12.1367 14.8732 12.4617 15.4757 12.4617 16.3965C12.4617 17.7115 12.4492 18.7682 12.4492 19.0873C12.4492 19.3448 12.6242 19.6523 13.1367 19.554C17.1375 18.264 20 14.579 20 10.2432C20 4.8165 15.5225 0.416504 10 0.416504Z" fill="black"/>
</g>
<defs>
<clipPath id="clip0_730_4974">
<rect width="20" height="20" fill="white"/>
</clipPath>
</defs>
</svg>
