<svg width="20" height="14" viewBox="0 0 20 14" fill="none" xmlns="http://www.w3.org/2000/svg">
<path d="M8.22817 6.39998C8.64321 6.19121 8.95698 5.95869 9.172 5.70742C9.55453 5.25488 9.7433 4.65483 9.7433 3.91102C9.7433 3.18721 9.55453 2.56841 9.177 2.04962C8.54695 1.20455 7.48061 0.772014 5.97299 0.749512H0V12.9418H5.56921C6.19676 12.9418 6.77806 12.888 7.3156 12.778C7.85314 12.6667 8.31818 12.463 8.71196 12.1654C9.06199 11.9067 9.35452 11.5854 9.58704 11.2066C9.95457 10.6341 10.1383 9.98527 10.1383 9.26271C10.1383 8.56265 9.97707 7.96635 9.65704 7.47631C9.33327 6.98627 8.85823 6.62749 8.22817 6.39998ZM2.46395 2.86719H5.15417C5.74547 2.86719 6.23301 2.93094 6.61554 3.0572C7.05808 3.24097 7.27935 3.61475 7.27935 4.18479C7.27935 4.69609 7.11058 5.05362 6.77681 5.25488C6.44053 5.45615 6.00424 5.55741 5.4692 5.55741H2.46395V2.86719ZM6.71805 10.6116C6.42053 10.7553 6.00174 10.8266 5.46545 10.8266H2.46395V7.57507H5.5067C6.03675 7.57882 6.44928 7.64883 6.7443 7.78009C7.26935 8.01761 7.53062 8.45264 7.53062 9.08895C7.53062 9.83901 7.2606 10.344 6.71805 10.6116Z" fill="#053EFF"/>
<path d="M18.0779 1.31836H12.7812V2.83598H18.0779V1.31836Z" fill="#053EFF"/>
<path d="M19.9181 7.30731C19.8081 6.601 19.5655 5.9797 19.188 5.44341C18.7742 4.83586 18.2492 4.39083 17.6104 4.10955C16.9741 3.82703 16.2578 3.68577 15.4602 3.68702C14.1213 3.68702 13.0338 4.1058 12.1924 4.93712C11.3536 5.77094 10.9336 6.96978 10.9336 8.53241C10.9336 10.1988 11.3974 11.4026 12.33 12.1414C13.2588 12.8815 14.3314 13.2503 15.549 13.2503C17.0228 13.2503 18.1692 12.8115 18.988 11.9364C19.5118 11.3839 19.8081 10.8401 19.8731 10.3063H17.4329C17.2916 10.5701 17.1278 10.7763 16.9403 10.9264C16.6003 11.2014 16.1578 11.3389 15.6152 11.3389C15.0989 11.3389 14.6614 11.2251 14.2964 10.9989C13.6938 10.6363 13.3788 10.0013 13.3388 9.09745H19.9981C20.0081 8.31864 19.9831 7.71984 19.9181 7.30731ZM13.3988 7.54108C13.4863 6.95478 13.6988 6.48975 14.0363 6.14597C14.3739 5.80344 14.8514 5.63093 15.4627 5.62968C16.0265 5.62968 16.4978 5.79094 16.8816 6.11471C17.2604 6.44099 17.4741 6.91478 17.5179 7.54108H13.3988Z" fill="#053EFF"/>
</svg>
