<svg width="20" height="20" viewBox="0 0 20 20" fill="none" xmlns="http://www.w3.org/2000/svg">
<g clip-path="url(#clip0_730_4963)">
<path d="M10 0.000976562C4.48594 0.000976562 0 4.48692 0 10.0009C0 15.5148 4.48594 20.0008 10 20.0008C15.5141 20.0008 20 15.5148 20 10.0009C20 4.48692 15.5141 0.000976562 10 0.000976562ZM16.5166 4.71716C17.6392 6.09905 18.3304 7.84326 18.3879 9.74462C16.3083 9.3141 14.4252 9.36462 12.7629 9.69056C12.4619 8.98667 12.1503 8.31606 11.8358 7.68228C13.6462 6.90238 15.2223 5.90627 16.5166 4.71716ZM15.3901 3.57226C14.1053 4.74499 12.6164 5.6133 11.0918 6.25436C9.97281 4.20808 8.9022 2.66713 8.25 1.79144C8.81475 1.67112 9.39993 1.60658 10 1.60658C12.0506 1.60658 13.9307 2.34665 15.3901 3.57226ZM6.62835 2.31582C7.12084 2.954 8.29389 4.55189 9.55396 6.82531C6.38708 7.85707 3.31417 8.0309 1.83756 8.04707C2.45304 5.47597 4.25356 3.36182 6.62835 2.31582ZM1.61438 9.65674C1.63022 9.65674 1.64553 9.65684 1.66169 9.65684C2.68199 9.65684 4.55134 9.58823 6.75209 9.18694C8.00766 8.95798 9.19827 8.64981 10.3154 8.26789C10.6063 8.84751 10.8954 9.45893 11.1757 10.0998C9.61144 10.6034 8.29228 11.3281 7.24736 12.0476C5.49511 13.2542 4.26758 14.593 3.59729 15.4207C2.35627 13.9572 1.6056 12.0656 1.6056 10.0009C1.6056 9.88548 1.60967 9.77106 1.61438 9.65674ZM4.75429 16.5473C5.33134 15.8207 6.50589 14.4983 8.20494 13.3378C9.35958 12.5492 10.5541 11.9632 11.7839 11.5786C12.4975 13.4281 13.1066 15.4716 13.4698 17.6414C12.4114 18.1239 11.2372 18.3952 10 18.3952C8.01633 18.3952 6.19248 17.7021 4.75429 16.5473ZM14.947 16.7768C14.5726 14.7841 14.0144 12.9103 13.3691 11.1979C14.9565 10.9301 16.5971 10.9853 18.2821 11.3638C17.9187 13.5785 16.6864 15.5035 14.947 16.7768Z" fill="#EA4C89"/>
</g>
<defs>
<clipPath id="clip0_730_4963">
<rect width="20" height="20" fill="white"/>
</clipPath>
</defs>
</svg>
