<svg width="216" height="40" viewBox="0 0 216 40" fill="none" xmlns="http://www.w3.org/2000/svg">
<path d="M15.0009 16.8745C16.3816 16.8745 17.5009 17.9938 17.5009 19.3745C17.5009 20.7552 16.3816 21.8745 15.0009 21.8745C13.6202 21.8745 12.5009 20.7552 12.5009 19.3745C12.5009 17.9938 13.6202 16.8745 15.0009 16.8745Z" fill="white"/>
<path d="M29.1507 20.6422L25.0009 29.0415V34.9995C25.0009 35.6626 24.7375 36.2984 24.2686 36.7673C23.7998 37.2361 23.1639 37.4995 22.5009 37.4995H7.50088C6.83784 37.4995 6.20195 37.2361 5.73311 36.7673C5.26427 36.2984 5.00088 35.6626 5.00088 34.9995V29.0415L0.851023 20.6421C0.646966 20.2313 0.56028 19.7722 0.600517 19.3153C0.640755 18.8584 0.806354 18.4214 1.07906 18.0526L12.6226 2.37179C12.7006 2.26576 12.8101 2.1871 12.9355 2.147C13.0609 2.10691 13.1958 2.10743 13.3209 2.14851C13.446 2.18958 13.5549 2.2691 13.6321 2.37573C13.7093 2.48236 13.7509 2.61066 13.7509 2.74231V14.5327C12.5726 14.837 11.5456 15.5605 10.8626 16.5678C10.1796 17.575 9.88739 18.7967 10.0407 20.004C10.1941 21.2113 10.7825 22.3212 11.6956 23.1256C12.6087 23.9301 13.7839 24.374 15.0009 24.374C16.2178 24.374 17.393 23.9301 18.3062 23.1256C19.2193 22.3212 19.8077 21.2113 19.961 20.004C20.1144 18.7967 19.8221 17.575 19.1391 16.5678C18.4561 15.5605 17.4292 14.837 16.2509 14.5327V2.74233C16.2509 2.61068 16.2925 2.48239 16.3697 2.37576C16.4469 2.26913 16.5558 2.18961 16.6809 2.14853C16.806 2.10746 16.9408 2.10693 17.0662 2.14703C17.1916 2.18712 17.3012 2.26579 17.3792 2.37181L28.9226 18.0528C29.1953 18.4216 29.3609 18.8585 29.4012 19.3154C29.4414 19.7723 29.3547 20.2314 29.1507 20.6422ZM22.5009 29.9995H7.50088V34.9995H22.5009V29.9995Z" fill="white"/>
<path d="M40.91 11.4998H37V8.09977H48.56V11.4998H44.65V31.8998H40.91V11.4998Z" fill="white"/>
<path d="M50.3708 8.09977H60.5708V11.4998H54.1108V17.7898H59.2448V21.1898H54.1108V28.4998H60.5708V31.8998H50.3708V8.09977Z" fill="white"/>
<path d="M62.7223 8.09977H68.0603L70.4403 25.1338H70.5083L72.8883 8.09977H78.2263V31.8998H74.6903V13.8798H74.6223L71.9023 31.8998H68.7743L66.0543 13.8798H65.9863V31.8998H62.7223V8.09977Z" fill="white"/>
<path d="M81.0173 8.09977H86.5252C88.3839 8.09977 89.7779 8.59843 90.7072 9.59577C91.6366 10.5931 92.1012 12.0551 92.1012 13.9818V16.3278C92.1012 18.2544 91.6366 19.7164 90.7072 20.7138C89.7779 21.7111 88.3839 22.2098 86.5252 22.2098H84.7573V31.8998H81.0173V8.09977ZM86.5252 18.8098C87.1372 18.8098 87.5906 18.6398 87.8853 18.2998C88.2026 17.9598 88.3613 17.3818 88.3613 16.5658V13.7438C88.3613 12.9278 88.2026 12.3498 87.8853 12.0098C87.5906 11.6698 87.1372 11.4998 86.5252 11.4998H84.7573V18.8098H86.5252Z" fill="white"/>
<path d="M94.1325 8.09977H97.8725V28.4998H104.026V31.8998H94.1325V8.09977Z" fill="white"/>
<path d="M108.843 8.09977H113.909L117.785 31.8998H114.045L113.365 27.1738V27.2418H109.115L108.435 31.8998H104.967L108.843 8.09977ZM112.923 24.0118L111.257 12.2478H111.189L109.557 24.0118H112.923Z" fill="white"/>
<path d="M120.963 11.4998H117.053V8.09977H128.613V11.4998H124.703V31.8998H120.963V11.4998Z" fill="white"/>
<path d="M130.424 8.09977H140.623V11.4998H134.163V17.7898H139.298V21.1898H134.163V28.4998H140.623V31.8998H130.424V8.09977Z" fill="white"/>
<path d="M148.045 32.2398C146.254 32.2398 144.883 31.7298 143.931 30.7098C143.002 29.6898 142.537 28.2504 142.537 26.3918V13.6078C142.537 11.7491 143.002 10.3098 143.931 9.28977C144.883 8.26977 146.254 7.75977 148.045 7.75977C149.836 7.75977 151.196 8.26977 152.125 9.28977C153.077 10.3098 153.553 11.7491 153.553 13.6078V16.1238H150.017V13.3698C150.017 11.8964 149.394 11.1598 148.147 11.1598C146.9 11.1598 146.277 11.8964 146.277 13.3698V26.6638C146.277 28.1144 146.9 28.8398 148.147 28.8398C149.394 28.8398 150.017 28.1144 150.017 26.6638V23.0258H153.553V26.3918C153.553 28.2504 153.077 29.6898 152.125 30.7098C151.196 31.7298 149.836 32.2398 148.045 32.2398Z" fill="white"/>
<path d="M161.263 32.2398C159.427 32.2398 158.022 31.7184 157.047 30.6758C156.072 29.6331 155.585 28.1598 155.585 26.2558V13.7438C155.585 11.8398 156.072 10.3664 157.047 9.32377C158.022 8.2811 159.427 7.75977 161.263 7.75977C163.099 7.75977 164.504 8.2811 165.479 9.32377C166.454 10.3664 166.941 11.8398 166.941 13.7438V26.2558C166.941 28.1598 166.454 29.6331 165.479 30.6758C164.504 31.7184 163.099 32.2398 161.263 32.2398ZM161.263 28.8398C162.555 28.8398 163.201 28.0578 163.201 26.4938V13.5058C163.201 11.9418 162.555 11.1598 161.263 11.1598C159.971 11.1598 159.325 11.9418 159.325 13.5058V26.4938C159.325 28.0578 159.971 28.8398 161.263 28.8398Z" fill="white"/>
<path d="M174.876 32.2398C173.04 32.2398 171.635 31.7184 170.66 30.6758C169.686 29.6331 169.198 28.1598 169.198 26.2558V13.7438C169.198 11.8398 169.686 10.3664 170.66 9.32377C171.635 8.2811 173.04 7.75977 174.876 7.75977C176.712 7.75977 178.118 8.2811 179.092 9.32377C180.067 10.3664 180.554 11.8398 180.554 13.7438V26.2558C180.554 28.1598 180.067 29.6331 179.092 30.6758C178.118 31.7184 176.712 32.2398 174.876 32.2398ZM174.876 28.8398C176.168 28.8398 176.814 28.0578 176.814 26.4938V13.5058C176.814 11.9418 176.168 11.1598 174.876 11.1598C173.584 11.1598 172.938 11.9418 172.938 13.5058V26.4938C172.938 28.0578 173.584 28.8398 174.876 28.8398Z" fill="white"/>
<path d="M183.084 8.09977H186.824V18.1298L191.584 8.09977H195.324L190.87 16.8378L195.392 31.8998H191.482L188.32 21.2918L186.824 24.3178V31.8998H183.084V8.09977Z" fill="white"/>
<path d="M197.162 8.09977H200.902V31.8998H197.162V8.09977Z" fill="white"/>
<path d="M203.703 8.09977H213.903V11.4998H207.443V17.7898H212.577V21.1898H207.443V28.4998H213.903V31.8998H203.703V8.09977Z" fill="white"/>
</svg>
