<svg width="32" height="32" viewBox="0 0 32 32" fill="none" xmlns="http://www.w3.org/2000/svg">
<path opacity="0.2" d="M26 16V18C26 20.6522 24.9464 23.1957 23.0711 25.0711C21.1957 26.9464 18.6522 28 16 28C13.3478 28 10.8043 26.9464 8.92893 25.0711C7.05357 23.1957 6 20.6522 6 18V16H26Z" fill="white"/>
<path d="M19.9912 11.5C19.9912 11.7761 19.7674 12 19.4912 12C19.2151 12 18.9912 11.7761 18.9912 11.5C18.9912 11.2239 19.2151 11 19.4912 11C19.7674 11 19.9912 11.2239 19.9912 11.5Z" fill="white" stroke="white" stroke-width="2"/>
<path d="M12.9912 11.5C12.9912 11.7761 12.7674 12 12.4912 12C12.2151 12 11.9912 11.7761 11.9912 11.5C11.9912 11.2239 12.2151 11 12.4912 11C12.7674 11 12.9912 11.2239 12.9912 11.5Z" fill="white" stroke="white" stroke-width="2"/>
<path d="M16 16V27" stroke="white" stroke-width="2" stroke-linecap="round" stroke-linejoin="round"/>
<path d="M30.5 16L1.5 16" stroke="white" stroke-width="2" stroke-linecap="round" stroke-linejoin="round"/>
<path d="M26 18C26 20.6522 24.9464 23.1957 23.0711 25.0711C21.1957 26.9464 18.6522 28 16 28C13.3478 28 10.8043 26.9464 8.92893 25.0711C7.05357 23.1957 6 20.6522 6 18V14C6 11.3478 7.05357 8.8043 8.92893 6.92893C10.8043 5.05357 13.3478 4 16 4C18.6522 4 21.1957 5.05357 23.0711 6.92893C24.9464 8.8043 26 11.3478 26 14V18Z" stroke="white" stroke-width="2" stroke-linecap="round" stroke-linejoin="round"/>
<path d="M28.9901 23.5L25.3975 21.4258" stroke="white" stroke-width="2" stroke-linecap="round" stroke-linejoin="round"/>
<path d="M28.9901 8.5L25.3975 10.5742" stroke="white" stroke-width="2" stroke-linecap="round" stroke-linejoin="round"/>
<path d="M3.00977 8.5L6.60242 10.5742" stroke="white" stroke-width="2" stroke-linecap="round" stroke-linejoin="round"/>
<path d="M3.00977 23.5L6.60238 21.4258" stroke="white" stroke-width="2" stroke-linecap="round" stroke-linejoin="round"/>
</svg>
