<svg width="36" height="37" viewBox="0 0 36 37" fill="none" xmlns="http://www.w3.org/2000/svg">
<path d="M33.8509 18.0267L30.375 19.7647L25.875 11.1469L29.3863 9.39123C29.6501 9.25933 29.9552 9.2363 30.2358 9.32711C30.5164 9.41791 30.7501 9.61529 30.8867 9.87673L34.345 16.4998C34.4142 16.6322 34.4563 16.7771 34.4688 16.9259C34.4814 17.0748 34.4642 17.2247 34.4182 17.3668C34.3722 17.509 34.2983 17.6405 34.2009 17.7538C34.1035 17.8671 33.9846 17.9599 33.8509 18.0267V18.0267Z" stroke="white" stroke-width="2" stroke-linecap="round" stroke-linejoin="round"/>
<path d="M5.62515 19.6133L2.14923 17.8753C2.0156 17.8085 1.89662 17.7158 1.79923 17.6025C1.70184 17.4892 1.62799 17.3576 1.58199 17.2155C1.53599 17.0733 1.51877 16.9234 1.53132 16.7746C1.54388 16.6257 1.58596 16.4808 1.65511 16.3484L5.1135 9.72537C5.25001 9.46393 5.48375 9.26655 5.76436 9.17574C6.04498 9.08493 6.35004 9.10796 6.61384 9.23986L10.1251 10.9955L5.62515 19.6133Z" stroke="white" stroke-width="2" stroke-linecap="round" stroke-linejoin="round"/>
<path d="M30.375 19.764L28.125 22.3962L22.9504 27.5708C22.813 27.7082 22.6424 27.8076 22.4552 27.8595C22.268 27.9114 22.0705 27.9138 21.8821 27.8667L13.7319 25.8292C13.579 25.791 13.4359 25.7211 13.3117 25.624L5.625 19.6133" stroke="white" stroke-width="2" stroke-linecap="round" stroke-linejoin="round"/>
<path d="M28.1252 22.3965L21.9377 17.8965L20.1377 19.2465C19.3587 19.8307 18.4113 20.1465 17.4377 20.1465C16.464 20.1465 15.5166 19.8307 14.7377 19.2465L13.9754 18.6748C13.8464 18.5781 13.7398 18.4548 13.6626 18.3133C13.5855 18.1717 13.5396 18.0153 13.5282 17.8545C13.5168 17.6937 13.5401 17.5324 13.5964 17.3814C13.6528 17.2304 13.7409 17.0932 13.8549 16.9793L19.3582 11.476C19.4626 11.3715 19.5867 11.2887 19.7232 11.2321C19.8596 11.1756 20.0059 11.1465 20.1537 11.1465H25.8752" stroke="white" stroke-width="2" stroke-linecap="round" stroke-linejoin="round"/>
<path d="M10.2061 10.9956L17.4229 8.89164C17.6807 8.81648 17.9569 8.83602 18.2016 8.94672L23.0628 11.1463" stroke="white" stroke-width="2" stroke-linecap="round" stroke-linejoin="round"/>
<path d="M15.75 30.834L11.5116 29.7745C11.3396 29.7315 11.1803 29.6484 11.0465 29.5321L7.875 26.7754" stroke="white" stroke-width="2" stroke-linecap="round" stroke-linejoin="round"/>
</svg>
