<svg width="24" height="24" viewBox="0 0 24 24" fill="none" xmlns="http://www.w3.org/2000/svg">
<path d="M7.97716 24C10.1866 24 11.9797 22.208 11.9797 20V16H7.97716C5.76775 16 3.97461 17.792 3.97461 20C3.97461 22.208 5.76775 24 7.97716 24Z" fill="#0ACF83"/>
<path d="M3.97461 12C3.97461 9.79199 5.76775 8 7.97716 8H11.9797V16H7.97716C5.76775 16 3.97461 14.208 3.97461 12Z" fill="#A259FF"/>
<path d="M3.97461 3.99999C3.97461 1.792 5.76775 0 7.97716 0H11.9797V7.99999H7.97716C5.76775 7.99999 3.97461 6.20799 3.97461 3.99999Z" fill="#F24E1E"/>
<path d="M11.9795 0H15.982C18.1914 0 19.9846 1.792 19.9846 3.99999C19.9846 6.20799 18.1914 7.99999 15.982 7.99999H11.9795V0Z" fill="#FF7262"/>
<path d="M19.9846 12C19.9846 14.208 18.1914 16 15.982 16C13.7726 16 11.9795 14.208 11.9795 12C11.9795 9.79199 13.7726 8 15.982 8C18.1914 8 19.9846 9.79199 19.9846 12Z" fill="#1ABCFE"/>
</svg>
