<svg width="21" height="20" viewBox="0 0 21 20" fill="none" xmlns="http://www.w3.org/2000/svg">
<path d="M16.75 3.125H4.25C3.90482 3.125 3.625 3.40482 3.625 3.75V16.25C3.625 16.5952 3.90482 16.875 4.25 16.875H16.75C17.0952 16.875 17.375 16.5952 17.375 16.25V3.75C17.375 3.40482 17.0952 3.125 16.75 3.125Z" stroke="white" stroke-width="1.5" stroke-linecap="round" stroke-linejoin="round"/>
<path d="M17.375 12.5L14.0669 9.19191C13.9497 9.0747 13.7908 9.00885 13.625 9.00885C13.4592 9.00885 13.3003 9.0747 13.1831 9.19191L9.69194 12.683C9.57473 12.8002 9.41576 12.8661 9.25 12.8661C9.08424 12.8661 8.92527 12.8002 8.80806 12.683L7.19194 11.0669C7.07473 10.9497 6.91576 10.8839 6.75 10.8839C6.58424 10.8839 6.42527 10.9497 6.30806 11.0669L3.625 13.75" stroke="white" stroke-width="1.5" stroke-linecap="round" stroke-linejoin="round"/>
<path d="M8.3125 8.125C8.83027 8.125 9.25 7.70527 9.25 7.1875C9.25 6.66973 8.83027 6.25 8.3125 6.25C7.79473 6.25 7.375 6.66973 7.375 7.1875C7.375 7.70527 7.79473 8.125 8.3125 8.125Z" fill="white"/>
</svg>
