<svg width="32" height="32" viewBox="0 0 32 32" fill="none" xmlns="http://www.w3.org/2000/svg">
<path opacity="0.2" d="M4.13848 9.32715C4.04778 9.48098 3.99997 9.6563 4 9.83487V22.1652C4 22.3426 4.04721 22.5169 4.13679 22.67C4.22637 22.8232 4.35509 22.9498 4.50974 23.0368L15.5097 29.2243C15.6594 29.3085 15.8283 29.3527 16 29.3527L16.0013 29.3527L16.1186 16L4.1385 9.32717L4.13848 9.32715Z" fill="white"/>
<path d="M28 22.1651V9.83484C28 9.6574 27.9528 9.48316 27.8632 9.32999C27.7736 9.17683 27.6449 9.05025 27.4903 8.96326L16.4903 2.77576C16.3406 2.69157 16.1717 2.64734 16 2.64734C15.8283 2.64734 15.6594 2.69157 15.5097 2.77576L4.50974 8.96326C4.35509 9.05025 4.22637 9.17683 4.13679 9.32999C4.04721 9.48316 4 9.6574 4 9.83484V22.1651C4 22.3426 4.04721 22.5168 4.13679 22.67C4.22637 22.8232 4.35509 22.9497 4.50974 23.0367L15.5097 29.2242C15.6594 29.3084 15.8283 29.3526 16 29.3526C16.1717 29.3526 16.3406 29.3084 16.4903 29.2242L27.4903 23.0367C27.6449 22.9497 27.7736 22.8232 27.8632 22.67C27.9528 22.5168 28 22.3426 28 22.1651Z" stroke="white" stroke-width="2" stroke-linecap="round" stroke-linejoin="round"/>
<path d="M22.1278 19.0639V12.5639L10 5.875" stroke="white" stroke-width="2" stroke-linecap="round" stroke-linejoin="round"/>
<path d="M27.8623 9.3284L16.1188 16L4.13867 9.32715" stroke="white" stroke-width="2" stroke-linecap="round" stroke-linejoin="round"/>
<path d="M16.1183 16L16.001 29.3527" stroke="white" stroke-width="2" stroke-linecap="round" stroke-linejoin="round"/>
</svg>
