<svg width="32" height="32" viewBox="0 0 32 32" fill="none" xmlns="http://www.w3.org/2000/svg">
<path opacity="0.2" d="M26.4237 15.9293L23.0004 9.00049H9.00041L5.57707 15.9293C5.49585 16.0937 5.4614 16.2773 5.47749 16.46C5.49358 16.6427 5.5596 16.8175 5.66832 16.9651L16.0004 31.0005L26.3324 16.9651C26.4412 16.8174 26.5072 16.6427 26.5233 16.46C26.5394 16.2773 26.5049 16.0937 26.4237 15.9293ZM16.0004 19.0005C15.506 19.0005 15.0226 18.8539 14.6115 18.5792C14.2004 18.3045 13.8799 17.914 13.6907 17.4572C13.5015 17.0004 13.452 16.4977 13.5484 16.0128C13.6449 15.5278 13.883 15.0824 14.2326 14.7327C14.5823 14.3831 15.0277 14.145 15.5127 14.0485C15.9976 13.9521 16.5003 14.0016 16.9571 14.1908C17.4139 14.38 17.8044 14.7004 18.0791 15.1116C18.3538 15.5227 18.5004 16.006 18.5004 16.5005C18.5004 16.8288 18.4358 17.1539 18.3101 17.4572C18.1845 17.7605 18.0003 18.0361 17.7682 18.2683C17.536 18.5004 17.2604 18.6846 16.9571 18.8102C16.6538 18.9358 16.3287 19.0005 16.0004 19.0005Z" fill="white"/>
<path d="M16.001 19.0005L16.001 31.0005" stroke="white" stroke-width="2" stroke-linecap="round" stroke-linejoin="round"/>
<path d="M16.001 19.0005C17.3817 19.0005 18.501 17.8812 18.501 16.5005C18.501 15.1198 17.3817 14.0005 16.001 14.0005C14.6203 14.0005 13.501 15.1198 13.501 16.5005C13.501 17.8812 14.6203 19.0005 16.001 19.0005Z" stroke="white" stroke-width="2" stroke-linecap="round" stroke-linejoin="round"/>
<path d="M9.00098 9.00049V4.00049C9.00098 3.73527 9.10633 3.48092 9.29387 3.29338C9.48141 3.10585 9.73576 3.00049 10.001 3.00049H22.001C22.2662 3.00049 22.5205 3.10585 22.7081 3.29338C22.8956 3.48092 23.001 3.73527 23.001 4.00049V9.00049" stroke="white" stroke-width="2" stroke-linecap="round" stroke-linejoin="round"/>
<path d="M9.00041 9.00049L5.57709 15.9293C5.49586 16.0938 5.4614 16.2773 5.47749 16.46C5.49358 16.6427 5.55959 16.8174 5.66831 16.9651L16.0004 31.0005L26.3325 16.9651C26.4412 16.8174 26.5072 16.6426 26.5233 16.46C26.5394 16.2773 26.5049 16.0937 26.4237 15.9293L23.0004 9.00049H9.00041Z" stroke="white" stroke-width="2" stroke-linecap="round" stroke-linejoin="round"/>
</svg>
