<svg width="24" height="24" viewBox="0 0 24 24" fill="none" xmlns="http://www.w3.org/2000/svg">
<path d="M19.7501 23.7101H4.24992C1.89984 23.7101 0 21.8087 0 19.4565V4.54346C0 2.19134 1.89984 0.289856 4.24992 0.289856H19.7501C22.1002 0.289856 24 2.19134 24 4.54346V19.4565C24 21.8087 22.1002 23.7101 19.7501 23.7101Z" fill="#FF26BE"/>
<path d="M19.3696 22.7089H4.62976C2.63008 22.7089 1 21.0774 1 19.076V4.92392C1 2.92251 2.63008 1.29102 4.62976 1.29102H19.36C21.3702 1.29102 22.9898 2.92251 22.9898 4.92392V19.0664C22.9994 21.0774 21.3693 22.7089 19.3696 22.7089Z" fill="#2E001F"/>
<path d="M9.48985 11.2491L12.2902 16.6336C12.3401 16.7133 12.3103 16.7941 12.2297 16.7941H10.4892C10.3788 16.7941 10.3289 16.7643 10.279 16.6643C9.63865 15.3432 8.98873 14.0221 8.31865 12.601H8.29849C7.69849 13.9423 7.03801 15.3538 6.39865 16.6749C6.34873 16.7547 6.29881 16.7854 6.21817 16.7854H4.56985C4.47001 16.7854 4.45945 16.7057 4.51033 16.6451L7.25017 11.4201L4.60057 6.13555C4.54009 6.0558 4.60057 5.99527 4.66009 5.99527H6.38041C6.48025 5.99527 6.52057 6.01544 6.55993 6.10576C7.18969 7.42691 7.83001 8.7884 8.43001 10.1192H8.45017C9.03001 8.79801 9.67033 7.42691 10.2905 6.11537C10.3404 6.03562 10.3702 5.98566 10.471 5.98566H12.0809C12.1606 5.98566 12.1913 6.04619 12.1414 6.12594L9.48985 11.2491ZM12.7807 12.8806C12.7807 10.5486 14.3311 8.72691 16.7906 8.72691C17.0009 8.72691 17.1103 8.72691 17.311 8.74709V6.09519C17.311 6.03466 17.3609 5.99527 17.4108 5.99527H18.991C19.0706 5.99527 19.0908 6.02505 19.0908 6.07501V15.2635C19.0908 15.5334 19.0908 15.8736 19.1407 16.2445C19.1407 16.305 19.1206 16.3242 19.061 16.355C18.221 16.7556 17.3407 16.9353 16.5007 16.9353C14.3302 16.9439 12.7798 15.6036 12.7807 12.8806ZM17.31 10.319C17.1698 10.2585 16.9702 10.2191 16.7302 10.2191C15.4697 10.2191 14.5903 11.1895 14.5903 12.8018C14.5903 14.6437 15.4908 15.3845 16.6207 15.3845C16.8607 15.3845 17.1209 15.3547 17.311 15.274V10.319H17.31Z" fill="#FFD9F2"/>
</svg>
