<svg width="216" height="40" viewBox="0 0 216 40" fill="none" xmlns="http://www.w3.org/2000/svg">
<path d="M15.0009 16.8745C16.3816 16.8745 17.5009 17.9937 17.5009 19.3745C17.5009 20.7552 16.3816 21.8745 15.0009 21.8745C13.6202 21.8745 12.5009 20.7552 12.5009 19.3745C12.5009 17.9937 13.6202 16.8745 15.0009 16.8745Z" fill="#0B63E5"/>
<path d="M29.1507 20.6422L25.0009 29.0414V34.9995C25.0009 35.6625 24.7375 36.2984 24.2686 36.7672C23.7998 37.2361 23.1639 37.4995 22.5009 37.4995H7.50088C6.83784 37.4995 6.20195 37.2361 5.73311 36.7672C5.26427 36.2984 5.00088 35.6625 5.00088 34.9995V29.0414L0.851023 20.6421C0.646966 20.2313 0.56028 19.7722 0.600517 19.3152C0.640755 18.8583 0.806354 18.4214 1.07906 18.0526L12.6226 2.37174C12.7006 2.26572 12.8101 2.18705 12.9355 2.14695C13.0609 2.10686 13.1958 2.10739 13.3209 2.14846C13.446 2.18954 13.5549 2.26906 13.6321 2.37569C13.7093 2.48232 13.7509 2.61061 13.7509 2.74226V14.5327C12.5726 14.8369 11.5456 15.5605 10.8626 16.5677C10.1796 17.5749 9.88739 18.7967 10.0407 20.004C10.1941 21.2112 10.7825 22.3211 11.6956 23.1256C12.6087 23.9301 13.7839 24.3739 15.0009 24.3739C16.2178 24.3739 17.393 23.9301 18.3062 23.1256C19.2193 22.3211 19.8077 21.2112 19.961 20.004C20.1144 18.7967 19.8221 17.5749 19.1391 16.5677C18.4561 15.5605 17.4292 14.8369 16.2509 14.5327V2.74229C16.2509 2.61063 16.2925 2.48234 16.3697 2.37571C16.4469 2.26908 16.5558 2.18956 16.6809 2.14848C16.806 2.10741 16.9408 2.10688 17.0662 2.14698C17.1916 2.18707 17.3012 2.26574 17.3792 2.37177L28.9226 18.0527C29.1953 18.4215 29.3609 18.8585 29.4012 19.3154C29.4414 19.7723 29.3547 20.2314 29.1507 20.6422ZM22.5009 29.9995H7.50088V34.9995H22.5009V29.9995Z" fill="#0B63E5"/>
<path d="M40.91 11.5H37V8.1H48.56V11.5H44.65V31.9H40.91V11.5Z" fill="#061C3D"/>
<path d="M50.3708 8.1H60.5708V11.5H54.1108V17.79H59.2448V21.19H54.1108V28.5H60.5708V31.9H50.3708V8.1Z" fill="#061C3D"/>
<path d="M62.7223 8.1H68.0603L70.4403 25.134H70.5083L72.8883 8.1H78.2263V31.9H74.6903V13.88H74.6223L71.9023 31.9H68.7743L66.0543 13.88H65.9863V31.9H62.7223V8.1Z" fill="#061C3D"/>
<path d="M81.0173 8.1H86.5252C88.3839 8.1 89.7779 8.59866 90.7072 9.596C91.6366 10.5933 92.1012 12.0553 92.1012 13.982V16.328C92.1012 18.2547 91.6366 19.7167 90.7072 20.714C89.7779 21.7113 88.3839 22.21 86.5252 22.21H84.7573V31.9H81.0173V8.1ZM86.5252 18.81C87.1372 18.81 87.5906 18.64 87.8853 18.3C88.2026 17.96 88.3613 17.382 88.3613 16.566V13.744C88.3613 12.928 88.2026 12.35 87.8853 12.01C87.5906 11.67 87.1372 11.5 86.5252 11.5H84.7573V18.81H86.5252Z" fill="#061C3D"/>
<path d="M94.1325 8.1H97.8725V28.5H104.026V31.9H94.1325V8.1Z" fill="#061C3D"/>
<path d="M108.843 8.1H113.909L117.785 31.9H114.045L113.365 27.174V27.242H109.115L108.435 31.9H104.967L108.843 8.1ZM112.923 24.012L111.257 12.248H111.189L109.557 24.012H112.923Z" fill="#061C3D"/>
<path d="M120.963 11.5H117.053V8.1H128.613V11.5H124.703V31.9H120.963V11.5Z" fill="#061C3D"/>
<path d="M130.424 8.1H140.623V11.5H134.163V17.79H139.298V21.19H134.163V28.5H140.623V31.9H130.424V8.1Z" fill="#061C3D"/>
<path d="M148.045 32.24C146.254 32.24 144.883 31.73 143.931 30.71C143.002 29.69 142.537 28.2507 142.537 26.392V13.608C142.537 11.7493 143.002 10.31 143.931 9.29C144.883 8.27 146.254 7.76 148.045 7.76C149.836 7.76 151.196 8.27 152.125 9.29C153.077 10.31 153.553 11.7493 153.553 13.608V16.124H150.017V13.37C150.017 11.8967 149.394 11.16 148.147 11.16C146.9 11.16 146.277 11.8967 146.277 13.37V26.664C146.277 28.1147 146.9 28.84 148.147 28.84C149.394 28.84 150.017 28.1147 150.017 26.664V23.026H153.553V26.392C153.553 28.2507 153.077 29.69 152.125 30.71C151.196 31.73 149.836 32.24 148.045 32.24Z" fill="#061C3D"/>
<path d="M161.263 32.24C159.427 32.24 158.022 31.7187 157.047 30.676C156.072 29.6333 155.585 28.16 155.585 26.256V13.744C155.585 11.84 156.072 10.3667 157.047 9.324C158.022 8.28133 159.427 7.76 161.263 7.76C163.099 7.76 164.504 8.28133 165.479 9.324C166.454 10.3667 166.941 11.84 166.941 13.744V26.256C166.941 28.16 166.454 29.6333 165.479 30.676C164.504 31.7187 163.099 32.24 161.263 32.24ZM161.263 28.84C162.555 28.84 163.201 28.058 163.201 26.494V13.506C163.201 11.942 162.555 11.16 161.263 11.16C159.971 11.16 159.325 11.942 159.325 13.506V26.494C159.325 28.058 159.971 28.84 161.263 28.84Z" fill="#061C3D"/>
<path d="M174.876 32.24C173.04 32.24 171.635 31.7187 170.66 30.676C169.686 29.6333 169.198 28.16 169.198 26.256V13.744C169.198 11.84 169.686 10.3667 170.66 9.324C171.635 8.28133 173.04 7.76 174.876 7.76C176.712 7.76 178.118 8.28133 179.092 9.324C180.067 10.3667 180.554 11.84 180.554 13.744V26.256C180.554 28.16 180.067 29.6333 179.092 30.676C178.118 31.7187 176.712 32.24 174.876 32.24ZM174.876 28.84C176.168 28.84 176.814 28.058 176.814 26.494V13.506C176.814 11.942 176.168 11.16 174.876 11.16C173.584 11.16 172.938 11.942 172.938 13.506V26.494C172.938 28.058 173.584 28.84 174.876 28.84Z" fill="#061C3D"/>
<path d="M183.084 8.1H186.824V18.13L191.584 8.1H195.324L190.87 16.838L195.392 31.9H191.482L188.32 21.292L186.824 24.318V31.9H183.084V8.1Z" fill="#061C3D"/>
<path d="M197.162 8.1H200.902V31.9H197.162V8.1Z" fill="#061C3D"/>
<path d="M203.703 8.1H213.903V11.5H207.443V17.79H212.577V21.19H207.443V28.5H213.903V31.9H203.703V8.1Z" fill="#061C3D"/>
</svg>
