<svg width="20" height="20" viewBox="0 0 20 20" fill="none" xmlns="http://www.w3.org/2000/svg">
<path d="M18.8061 9.51441L16.875 10.4799L14.375 5.69229L16.3257 4.71692C16.4723 4.64364 16.6418 4.63085 16.7977 4.6813C16.9536 4.73175 17.0834 4.8414 17.1593 4.98665L19.0806 8.6661C19.119 8.73968 19.1424 8.82016 19.1493 8.90287C19.1563 8.98558 19.1468 9.06885 19.1212 9.14782C19.0956 9.22679 19.0546 9.29987 19.0005 9.36282C18.9464 9.42576 18.8803 9.47729 18.8061 9.51441V9.51441Z" stroke="#6A778B" stroke-width="1.5" stroke-linecap="round" stroke-linejoin="round"/>
<path d="M3.12519 10.3962L1.19412 9.43067C1.11989 9.39355 1.05378 9.34202 0.999679 9.27908C0.945572 9.21614 0.904545 9.14305 0.878991 9.06408C0.853437 8.98511 0.843869 8.90184 0.850844 8.81913C0.857819 8.73643 0.881198 8.65594 0.919617 8.58236L2.84094 4.90291C2.91678 4.75766 3.04663 4.64801 3.20253 4.59756C3.35843 4.54711 3.52791 4.5599 3.67446 4.63318L5.62519 5.60855L3.12519 10.3962Z" stroke="#6A778B" stroke-width="1.5" stroke-linecap="round" stroke-linejoin="round"/>
<path d="M16.875 10.48L15.625 11.9423L12.7502 14.8171C12.6739 14.8934 12.5791 14.9487 12.4751 14.9775C12.3711 15.0063 12.2614 15.0077 12.1567 14.9815L7.62881 13.8495C7.54389 13.8283 7.46437 13.7895 7.3954 13.7355L3.125 10.3962" stroke="#6A778B" stroke-width="1.5" stroke-linecap="round" stroke-linejoin="round"/>
<path d="M15.6252 11.9423L12.1877 9.44232L11.1877 10.1923C10.7549 10.5169 10.2286 10.6923 9.68766 10.6923C9.14673 10.6923 8.6204 10.5169 8.18766 10.1923L7.76416 9.8747C7.69252 9.82097 7.63327 9.75248 7.59041 9.67386C7.54755 9.59524 7.52208 9.50833 7.51573 9.41901C7.50938 9.32969 7.5223 9.24005 7.55362 9.15615C7.58493 9.07226 7.6339 8.99608 7.69722 8.93276L10.7546 5.87538C10.8126 5.81734 10.8815 5.77131 10.9574 5.7399C11.0332 5.70849 11.1145 5.69232 11.1965 5.69232H14.3752" stroke="#6A778B" stroke-width="1.5" stroke-linecap="round" stroke-linejoin="round"/>
<path d="M5.66992 5.60858L9.6793 4.43971C9.82252 4.39796 9.97596 4.40881 10.1119 4.47031L12.8125 5.69232" stroke="#6A778B" stroke-width="1.5" stroke-linecap="round" stroke-linejoin="round"/>
<path d="M8.75 16.6298L6.39536 16.0411C6.29981 16.0173 6.21125 15.9711 6.13692 15.9065L4.375 14.375" stroke="#6A778B" stroke-width="1.5" stroke-linecap="round" stroke-linejoin="round"/>
</svg>
