<svg width="20" height="20" viewBox="0 0 20 20" fill="none" xmlns="http://www.w3.org/2000/svg">
<path d="M2.49951 3.95831V14.7916C2.49951 14.8887 2.5221 14.9844 2.56549 15.0712C2.60889 15.1579 2.67189 15.2334 2.74951 15.2916C2.82713 15.3499 2.91725 15.3892 3.01271 15.4066C3.10817 15.4239 3.20636 15.4188 3.29951 15.3916L17.0495 11.3812C17.1793 11.3434 17.2934 11.2644 17.3745 11.1562C17.4557 11.048 17.4995 10.9165 17.4995 10.7812V7.96873C17.4995 7.8335 17.4557 7.70191 17.3745 7.59373C17.2934 7.48554 17.1793 7.40659 17.0495 7.36873L3.29951 3.35831C3.20636 3.33115 3.10817 3.32604 3.01271 3.34339C2.91725 3.36075 2.82713 3.4001 2.74951 3.45831C2.67189 3.51653 2.60889 3.59202 2.56549 3.6788C2.5221 3.76559 2.49951 3.86128 2.49951 3.95831V3.95831Z" stroke="#6A778B" stroke-width="1.5" stroke-linecap="round" stroke-linejoin="round"/>
<path d="M14.375 12.1613V15C14.375 15.1658 14.3092 15.3247 14.1919 15.442C14.0747 15.5592 13.9158 15.625 13.75 15.625H11.25C11.0842 15.625 10.9253 15.5592 10.8081 15.442C10.6908 15.3247 10.625 15.1658 10.625 15V5.49493" stroke="#6A778B" stroke-width="1.5" stroke-linecap="round" stroke-linejoin="round"/>
</svg>
